<?xml version="1.0" encoding="UTF-8"?>
<svg id="Layer_1" data-name="Layer 1" xmlns="http://www.w3.org/2000/svg" xmlns:xlink="http://www.w3.org/1999/xlink" viewBox="0 0 4000 9000">
  <defs>
    <style>
      .cls-1 {
        fill: url(#linear-gradient);
      }

      .cls-2 {
        clip-rule: evenodd;
        fill: none;
      }

      .cls-3 {
        fill: #fcfcfc;
      }

      .cls-4 {
        clip-path: url(#clippath);
      }
    </style>
    <clipPath id="clippath">
      <path class="cls-2" d="M1080.68,1662.16l20.55,50.58-15.01-46.29-18.67-50.73c4.38,15.46,8.77,30.9,13.13,46.43M1161.34,1884.38l23.44,52.48-17.69-48.97-21.15-52.08c5.14,16.16,10.28,32.33,15.4,48.57ZM1111.03,1771.32c10.76,24.25,21.57,48.58,32.44,72.98-7.2-22.64-14.4-45.25-21.62-67.74l-2.27-5.58-27.14-66.74c6.21,22.3,12.42,44.64,18.59,67.07ZM1250.7,2107.19l26.43,54c-6.83-17.16-13.66-34.33-20.5-51.42l-24.04-53.84c6.05,17.04,12.08,34.14,18.11,51.26ZM1195.84,1994.7c11.93,24.52,23.9,49.1,35.93,73.73-8.34-23.55-16.7-47.01-25.06-70.43l-32.46-72.61c7.22,23.03,14.42,46.14,21.6,69.31ZM1140.88,1881.15c13.47,28,27.06,56.08,40.72,84.23-8.26-26.53-16.56-52.93-24.89-79.25-12.38-27.77-24.72-55.44-36.97-83.02,7.08,25.92,14.12,51.93,21.14,78.04ZM571.11,109.49c.59-11.41,1.3-22.8,2.15-34.17-2.98-15.35-5.83-30.6-8.54-45.78-.25,11.21-.39,22.44-.4,33.7,2.11,15.34,4.37,30.75,6.8,46.24ZM569.31,158.68c.18-8.3.4-16.58.71-24.85-1.85-11.17-3.63-22.32-5.32-33.41.14,7,.3,13.99.53,21.01,1.25,12.38,2.62,24.8,4.09,37.26ZM1345.55,2321.24l27.82,52.1-18.06-41.2-27.24-55.71c5.85,14.89,11.66,29.87,17.48,44.81ZM1287.24,2211.77c12.8,24.1,25.66,48.24,38.55,72.43-8.38-21.35-16.78-42.63-25.2-63.87l-3.02-6.19-32.94-67.28c7.55,21.58,15.11,43.2,22.62,64.9ZM1228.08,2099.88c14.55,27.65,29.18,55.34,43.89,83.1-8.6-24.73-17.22-49.4-25.87-73.99-13.61-27.85-27.18-55.63-40.67-83.33,7.59,24.66,15.13,49.41,22.66,74.23ZM1168.8,1986.49c15.56,29.98,31.25,60.02,47.06,90.14-8.17-26.81-16.39-53.49-24.63-80.13-14.59-30.02-29.1-59.94-43.5-89.79,7.07,26.49,14.09,53.09,21.07,79.78ZM589.05,128.53c1.6-13.41,3.42-26.79,5.36-40.17-4.33-18.46-8.52-36.77-12.56-54.96-1.41,13.85-2.6,27.72-3.62,41.64,3.44,17.72,7.03,35.54,10.82,53.49ZM583.49,182.24c1.11-12.82,2.36-25.63,3.79-38.41-3.58-16.66-7.01-33.21-10.3-49.67-.81,13.11-1.49,26.25-1.98,39.41,2.68,16.15,5.51,32.37,8.5,48.67ZM579.72,235.48c.61-11.5,1.37-22.98,2.24-34.45-2.69-14.17-5.24-28.26-7.7-42.31-.26,11.91-.44,23.84-.45,35.79,1.83,13.61,3.83,27.27,5.92,40.96ZM577.79,288.55c.2-9.41.48-18.82.82-28.22-1.55-9.6-3.04-19.16-4.48-28.71.2,10.58.5,21.18.9,31.79.88,8.37,1.77,16.74,2.76,25.14ZM1448.01,2532.89l28.3,48.68c-8.08-16.85-16.17-33.71-24.29-50.52l-24.8-46.48c6.94,16.08,13.87,32.2,20.79,48.32ZM1386.2,2426.29c13.69,23.67,27.42,47.36,41.19,71.08-9.61-22.24-19.25-44.42-28.9-66.57l-8.55-15.99-29.24-54.71c8.54,22,17.01,44.1,25.49,66.2ZM1323.36,2317.25c15.58,27.15,31.24,54.35,46.97,81.58-9.75-25.28-19.53-50.49-29.34-75.65-14.56-27.29-29.08-54.52-43.54-81.69,8.66,25.19,17.32,50.42,25.9,75.76ZM1259.84,2205.86c16.77,29.6,33.66,59.25,50.66,88.94-9.24-27.12-18.51-54.2-27.84-81.14-15.75-29.67-31.42-59.27-47-88.8,8.12,26.9,16.16,53.92,24.18,81ZM1196.17,2092.54c17.43,31.32,35.07,62.7,52.82,94.14-8.45-28.41-16.95-56.71-25.5-84.92-16.47-31.3-32.82-62.53-49.03-93.68,7.3,28.05,14.53,56.21,21.71,84.46ZM1076.5,7722.97h-.02M1626.64,2851.5l4.66,7.38-8.51-14.8,3.85,7.42ZM612.89,143.92c2.49-13.16,5.22-26.31,8.06-39.45-5.06-19.53-9.99-38.89-14.82-58.08-2.43,13.89-4.67,27.78-6.71,41.7,4.34,18.48,8.83,37.08,13.46,55.83ZM603.87,195.75c2.1-13.39,4.37-26.78,6.82-40.16-4.52-18.16-8.91-36.17-13.17-54.06-1.94,14-3.71,28.02-5.26,42.05,3.72,17.29,7.59,34.68,11.61,52.17ZM596.42,248.53c1.63-13.29,3.38-26.57,5.37-39.83-3.87-16.65-7.61-33.21-11.22-49.67-1.41,13.87-2.61,27.76-3.65,41.67,3.02,15.87,6.18,31.82,9.49,47.84ZM590.75,302.05c1.12-12.68,2.45-25.36,3.89-38.03-3.13-14.75-6.13-29.45-9.01-44.08-.84,13.34-1.54,26.71-2.05,40.09,2.26,13.96,4.66,27.97,7.18,42.02ZM586.84,356.71c.66-11.86,1.48-23.72,2.39-35.56-2.23-11.94-4.39-23.86-6.44-35.74-.31,13.02-.48,26.05-.48,39.1,1.43,10.71,2.94,21.44,4.53,32.2ZM584.99,399.79c.19-6.26.28-12.52.54-18.78-1-6.3-1.91-12.58-2.85-18.87.12,6.78.25,13.54.48,20.33.58,5.76,1.21,11.54,1.83,17.31ZM1559.36,2744.8l24.95,39.57,10.54,16.71c-10.05-19.24-20.14-38.44-30.24-57.63l-31.38-54.09c8.74,18.45,17.43,36.95,26.13,55.44ZM1494.23,2641.39c14.5,23.07,29.03,46.15,43.6,69.25-11.57-24.48-23.18-48.91-34.83-73.31l-18.72-32.21-20.11-34.59c10.07,23.57,20.08,47.2,30.06,70.87ZM1427.43,2534.78c16.71,26.77,33.48,53.56,50.33,80.38-11.34-26.75-22.74-53.41-34.16-80.04-15.43-26.56-30.83-53.09-46.17-79.56,10.06,26.33,20.05,52.75,30,79.22ZM1359.65,2425.62c18,29.17,36.12,58.36,54.33,87.59-10.71-28.36-21.46-56.64-32.28-84.84-16.83-29.1-33.6-58.13-50.26-87.14,9.45,28.06,18.87,56.17,28.21,84.39ZM1291.57,2314.45c18.8,30.95,37.76,61.93,56.86,92.95-9.8-29.48-19.67-58.85-29.62-88.15-17.68-30.83-35.26-61.6-52.71-92.32,8.56,29.06,17.04,58.25,25.46,87.52ZM1223.29,2200.91c19.27,32.4,38.76,64.84,58.43,97.31-8.74-30.24-17.56-60.38-26.45-90.41-18.28-32.28-36.42-64.51-54.37-96.67,7.54,29.8,14.99,59.74,22.38,89.76ZM630.96,215.18c2.85-12.83,5.83-25.67,9.02-38.5-5.55-20.72-10.96-41.25-16.27-61.61-2.83,13.45-5.49,26.91-7.97,40.39,4.93,19.75,10,39.67,15.22,59.73ZM620.54,265.61c2.52-13.33,5.17-26.65,8.05-39.98-5.15-19.67-10.16-39.19-15.03-58.58-2.46,13.82-4.69,27.65-6.74,41.49,4.4,18.9,8.98,37.93,13.71,57.06ZM611.49,317.64c2.11-13.53,4.32-27.06,6.8-40.59-4.61-18.46-9.06-36.79-13.37-55.01-1.93,13.91-3.72,27.82-5.29,41.74,3.78,17.86,7.73,35.82,11.86,53.87ZM604,371.02c1.64-13.37,3.51-26.74,5.5-40.11-4-17.19-7.84-34.31-11.53-51.35-1.41,13.77-2.67,27.56-3.75,41.35,3.11,16.64,6.34,33.34,9.79,50.11ZM598.24,426.49c1.16-13.21,2.57-26.43,4.03-39.64-3.32-15.75-6.51-31.47-9.55-47.11-.94,13.67-1.65,27.36-2.22,41.06,2.41,15.18,5.03,30.42,7.74,45.69ZM594.62,476.06c.59-10.09,1.29-20.19,2.07-30.29-2.44-13.12-4.74-26.19-6.94-39.26-.22,9.78-.45,19.57-.54,29.36,1.67,13.37,3.48,26.76,5.42,40.18ZM592.63,519.61c.21-6.27.4-12.54.68-18.8-1.44-9.21-2.77-18.4-4.09-27.59.06,4.62.19,9.24.28,13.86.96,10.83,2,21.68,3.13,32.53ZM1678.58,2952.21l4.59,6.73,32.71,47.96c-8.36-14.74-16.72-29.48-25.12-44.21l-37.26-59.3c8.39,16.25,16.75,32.52,25.09,48.82ZM1607.36,2847.74l48.72,71.49c-11.23-21.83-22.49-43.62-33.79-65.39l-42.15-66.84-3.76-5.96c10.38,22.19,20.7,44.45,30.98,66.71ZM1537.5,2744.83c17.53,25.9,35.11,51.81,52.73,77.74-11.69-25.2-23.45-50.35-35.25-75.47l-48.89-77.61c10.53,25.05,20.99,50.17,31.4,75.33ZM1466.06,2638.81c19.07,28.46,38.24,56.92,57.49,85.4-11.19-26.93-22.45-53.82-33.76-80.64-17.97-28.6-35.89-57.16-53.73-85.7,10.06,26.92,20.07,53.89,30.01,80.94ZM1393.83,2530.27c20.04,30.34,40.23,60.69,60.54,91.06-10.41-28.23-20.88-56.4-31.44-84.47-18.99-30.44-37.9-60.84-56.69-91.21,9.26,28.13,18.47,56.33,27.59,84.63ZM1321.44,2419.66c20.56,31.72,41.3,63.45,62.22,95.19-9.44-29.16-18.98-58.21-28.56-87.21-19.57-31.72-39-63.4-58.27-95.04,8.29,28.92,16.48,57.95,24.61,87.06ZM1248.78,2306.21c20.93,33.12,42.13,66.26,63.56,99.41-8.38-29.84-16.82-59.59-25.35-89.23-20.07-33.05-39.98-66.08-59.64-99.06,7.22,29.51,14.36,59.16,21.43,88.88ZM1875.73,3251.98l4.94,6.73-8.92-13.3,3.99,6.56ZM1805.19,3156.05l36.37,49.45c-10.62-17.35-21.26-34.68-31.95-52.01-10.88-16.05-21.75-32.11-32.66-48.15,9.43,16.9,18.86,33.79,28.23,50.71ZM649.62,285.29c3.13-12.39,6.31-24.77,9.75-37.18-5.7-20.74-11.31-41.33-16.79-61.73-3.17,13.06-6.08,26.13-8.9,39.19,5.17,19.76,10.49,39.67,15.95,59.72ZM638.04,334.13c2.89-13.06,5.86-26.13,9.1-39.2-5.38-19.71-10.65-39.28-15.77-58.71-2.86,13.59-5.54,27.18-8.01,40.77,4.74,18.93,9.64,37.98,14.69,57.15ZM627.59,385.02c2.55-13.47,5.19-26.95,8.09-40.45-4.94-18.64-9.72-37.16-14.38-55.57-2.42,13.91-4.72,27.82-6.78,41.73,4.19,18.01,8.55,36.11,13.07,54.29ZM618.49,437.67c2.14-13.72,4.37-27.43,6.87-41.17-4.39-17.46-8.63-34.84-12.72-52.15-1.95,14.1-3.77,28.2-5.36,42.31,3.58,16.94,7.31,33.93,11.21,51ZM610.86,492.33c1.69-13.9,3.47-27.81,5.53-41.73-3.75-16.12-7.36-32.2-10.82-48.21-1.49,14.42-2.78,28.84-3.89,43.26,2.88,15.51,5.98,31.08,9.17,46.68ZM605.39,543.44c1.07-11.87,2.25-23.75,3.6-35.63-3.06-14.57-5.96-29.09-8.77-43.59-.82,12.16-1.39,24.33-1.92,36.49,2.21,14.22,4.59,28.46,7.09,42.73ZM601.62,592.94c.62-10.07,1.35-20.15,2.14-30.23-2.22-12.1-4.33-24.19-6.35-36.25-.3,9.69-.61,19.39-.72,29.08,1.53,12.46,3.17,24.92,4.93,37.41ZM599.28,643.39c.26-8.33.64-16.67,1.03-25.02-1.26-8.23-2.4-16.45-3.57-24.67.13,10.14.37,20.28.65,30.42.61,6.42,1.21,12.83,1.89,19.26ZM1730.42,3054.44l51.72,70.29c-12.32-22.1-24.66-44.19-37.08-66.25l-48.87-71.71c11.45,22.53,22.88,45.08,34.23,67.66ZM1654.77,2951.38c19.33,26.41,38.7,52.81,58.11,79.22-12.78-25.32-25.63-50.61-38.54-75.86l-54.52-79.98c11.72,25.5,23.38,51.03,34.96,76.61ZM1580.03,2848.88c20.09,27.68,40.25,55.34,60.48,83.01-12.41-27.3-24.89-54.55-37.46-81.74-18.82-27.65-37.63-55.3-56.35-82.94,11.18,27.17,22.3,54.39,33.33,81.67ZM1504.02,2743.58c21.22,29.6,42.58,59.19,64.02,88.78-11.55-28.47-23.18-56.87-34.92-85.2-20.08-29.68-40.09-59.34-60-88.99,10.38,28.41,20.69,56.87,30.9,85.41ZM1427.35,2635.71c21.88,31.06,43.95,62.11,66.16,93.16-10.55-29.37-21.2-58.66-31.92-87.88-20.84-31.1-41.56-62.18-62.13-93.25,9.38,29.24,18.69,58.57,27.9,87.97ZM1350.56,2525.5c22.25,32.29,44.73,64.58,67.41,96.86-9.46-30.08-19.02-60.06-28.66-89.98-21.32-32.29-42.47-64.56-63.44-96.82,8.32,29.89,16.57,59.86,24.69,89.94ZM1273.5,2412.1c22.56,33.7,45.43,67.38,68.56,101.06-8.3-30.58-16.69-61.08-25.18-91.45-21.75-33.59-43.3-67.16-64.56-100.71,7.16,30.26,14.21,60.64,21.18,91.1ZM2013.92,3450.51l5.57,7.07-10.28-14.21,4.7,7.14ZM1936.33,3352.4l42.45,53.63c-11.33-17.18-22.7-34.34-34.12-51.51-13.09-17.96-26.23-35.91-39.38-53.87,10.4,17.23,20.73,34.49,31.05,51.74ZM668.96,355.08c3.32-11.82,6.69-23.63,10.29-35.47-5.88-20.89-11.65-41.61-17.32-62.18-3.4,12.5-6.59,25-9.68,37.5,5.45,19.92,11.01,39.96,16.71,60.15ZM656.4,402.05c3.18-12.62,6.51-25.26,10.01-37.9-5.66-19.98-11.19-39.83-16.62-59.55-3.21,13.32-6.14,26.63-9.01,39.93,5.06,19.06,10.28,38.24,15.62,57.52ZM644.68,451.48c2.92-13.21,6.04-26.43,9.3-39.66-5.31-19.06-10.48-38-15.52-56.85-2.9,13.83-5.51,27.65-8.03,41.48,4.6,18.25,9.34,36.59,14.25,55.03ZM634.12,502.97c2.57-13.61,5.38-27.25,8.31-40.88-4.85-18.05-9.57-36.03-14.12-53.91-2.49,14.13-4.77,28.26-6.87,42.37,4.06,17.41,8.29,34.88,12.67,52.42ZM624.85,556.83c2.17-13.98,4.59-27.99,7.14-41.99-4.3-16.96-8.42-33.85-12.41-50.69-2.03,14.52-3.94,29.04-5.57,43.54,3.45,16.33,7.08,32.72,10.84,49.14ZM617.63,608.34c1.57-12.68,3.37-25.38,5.25-38.09-3.65-15.58-7.12-31.1-10.48-46.6-1.32,12.99-2.59,25.99-3.62,38.98,2.79,15.21,5.75,30.45,8.85,45.71ZM612.03,659.69c1.11-11.88,2.44-23.77,3.81-35.67-2.94-14.06-5.75-28.09-8.43-42.09-.82,12.15-1.54,24.28-2.1,36.42,2.11,13.76,4.33,27.54,6.71,41.34ZM607.9,713.51c.7-11.58,1.62-23.16,2.56-34.75-2.15-11.91-4.2-23.81-6.16-35.69-.41,12.76-.61,25.51-.72,38.26,1.34,10.72,2.81,21.45,4.32,32.18ZM605.77,755.35c.2-5.53.56-11.08.84-16.62-1-6.55-2.05-13.1-2.98-19.65.07,6.02.16,12.02.3,18.03.55,6.08,1.24,12.15,1.84,18.23ZM1860.27,3256.43l27.3,34.44,25.11,31.69c-13.59-22.59-27.25-45.15-40.98-67.7l-48.08-65.41c12.28,22.31,24.49,44.63,36.64,66.98ZM1780.98,3156.25c20.42,25.84,40.85,51.66,61.3,77.48-13.68-25.06-27.47-50.08-41.32-75.08l-20.77-28.22-36.78-49.96c12.6,25.23,25.14,50.49,37.57,75.78ZM1700.84,3054.48c21.8,27.8,43.66,55.56,65.57,83.32-13.31-26.96-26.72-53.87-40.23-80.75-20.6-28-41.15-56.02-61.68-84.03,12.2,27.11,24.32,54.26,36.34,81.46ZM1621.42,2952.71c22.26,28.69,44.63,57.37,67.07,86.02-12.57-28.34-25.25-56.63-38.02-84.86-21.03-28.73-42-57.47-62.9-86.21,11.37,28.3,22.68,56.64,33.85,85.05ZM1540.9,2848.21c23.1,30.22,46.35,60.42,69.72,90.59-11.56-29.24-23.23-58.42-34.98-87.54-21.99-30.3-43.87-60.6-65.65-90.91,10.4,29.21,20.71,58.5,30.91,87.85ZM1459.82,2741.02c23.61,31.52,47.43,63.03,71.42,94.49-10.46-29.97-21.02-59.86-31.68-89.68-22.6-31.54-45.06-63.08-67.34-94.63,9.3,29.86,18.5,59.8,27.6,89.82ZM1378.56,2631.1c23.9,32.76,48.08,65.48,72.49,98.17-9.3-30.55-18.7-61.01-28.21-91.39-23.05-32.72-45.9-65.44-68.51-98.18,8.16,30.39,16.26,60.84,24.23,91.4ZM1297.24,2517.89c24.14,34.15,48.62,68.27,73.41,102.34-8.11-30.97-16.31-61.86-24.64-92.63-23.41-33.99-46.55-67.97-69.38-101.99,6.98,30.65,13.84,61.43,20.61,92.28ZM2156.73,3641.66l6.06,7.16-11-14.2,4.94,7.04ZM2076.68,3547.3l44.15,51.98c-11.63-16.44-23.31-32.88-35.03-49.31-13.95-17.82-27.94-35.64-41.97-53.46,10.99,16.93,21.96,33.86,32.84,50.8ZM1995,3451.36l57.35,67.34c-14.07-21.77-28.22-43.53-42.45-65.29-18.02-22.85-36.08-45.69-54.18-68.55,13.18,22.14,26.28,44.32,39.28,66.5ZM688.95,424.76c3.42-11.07,7.02-22.16,10.71-33.26-6.08-21.21-12.07-42.27-17.96-63.17-3.57,11.98-6.85,23.93-10.15,35.89,5.67,20.05,11.48,40.23,17.39,60.54ZM675.58,469.68c3.38-12.04,7.08-24.11,10.78-36.18-5.9-20.19-11.69-40.26-17.36-60.19-3.48,12.86-6.73,25.7-9.88,38.54,5.34,19.16,10.85,38.45,16.47,57.84ZM662.91,517.81c3.25-12.97,6.65-25.96,10.19-38.96-5.6-19.21-11.05-38.31-16.39-57.3-3.25,13.52-6.3,27.02-9.19,40.52,4.98,18.49,10.1,37.08,15.38,55.74ZM651.08,568.27c3-13.66,6.02-27.33,9.36-41.03-5.2-18.28-10.26-36.48-15.17-54.59-2.92,14.06-5.65,28.12-8.2,42.16,4.5,17.75,9.19,35.57,14.01,53.46ZM640.32,621.11c2.65-14.16,5.4-28.32,8.43-42.52-4.75-17.44-9.33-34.81-13.77-52.12-2.56,14.61-4.9,29.21-7.04,43.79,3.96,16.9,8.1,33.85,12.38,50.85ZM631.48,672.54c2.08-13.31,4.26-26.63,6.66-39.97-4.19-16.4-8.25-32.76-12.14-49.08-1.89,13.53-3.56,27.03-5.11,40.53,3.38,16.15,6.88,32.31,10.59,48.52ZM624.19,724.19c1.61-12.86,3.34-25.74,5.27-38.64-3.58-15.31-7.07-30.61-10.35-45.86-1.38,13.07-2.54,26.13-3.61,39.17,2.75,15.09,5.64,30.2,8.69,45.33ZM618.19,779.12c1.21-13.06,2.57-26.13,4.09-39.22-2.92-14.02-5.69-28.01-8.34-42-.97,13.67-1.67,27.33-2.29,40.97,2.05,13.41,4.23,26.83,6.54,40.25ZM614.31,828.1c.63-9.95,1.38-19.91,2.21-29.88-2.06-11.33-4.09-22.66-5.95-33.98-.31,9.96-.44,19.92-.58,29.86,1.36,11.33,2.76,22.66,4.32,34ZM612,870.82c.23-5.91.65-11.85.96-17.77-1.01-6.76-2.11-13.53-3.05-20.29.05,6.37.09,12.75.22,19.11.55,6.32,1.26,12.63,1.87,18.95ZM1913.9,3356.11l62.4,73.3c-14.56-24.73-29.25-49.46-44.01-74.15l-48.59-61.3-9.63-12.14c13.38,24.74,26.65,49.51,39.82,74.3ZM1830.11,3257.36c22.84,27.01,45.73,53.98,68.63,80.92-14.1-26.41-28.32-52.79-42.64-79.14-21.6-27.26-43.2-54.54-64.78-81.83,13.03,26.64,25.96,53.33,38.78,80.05ZM1745.45,3156.82c23.88,28.51,47.85,56.98,71.88,85.43-13.4-27.82-26.92-55.59-40.55-83.33-22.68-28.71-45.32-57.44-67.9-86.19,12.3,27.98,24.5,56.02,36.58,84.1ZM1661.44,3055.91c24.18,29.26,48.5,58.46,72.91,87.65-12.48-28.89-25.08-57.73-37.79-86.52-23-29.32-45.92-58.67-68.75-88.04,11.33,28.91,22.54,57.88,33.64,86.91ZM1576.48,2952.23c24.86,30.62,49.89,61.19,75.08,91.72-11.38-29.65-22.87-59.23-34.49-88.76-23.81-30.68-47.48-61.38-71-92.12,10.25,29.65,20.4,59.38,30.42,89.16ZM1491.07,2845.83c25.24,31.83,50.74,63.6,76.43,95.32-10.23-30.27-20.58-60.47-31.04-90.6-24.32-31.83-48.46-63.7-72.39-95.58,9.12,30.2,18.11,60.5,26.99,90.86ZM1405.42,2736.28c25.49,33.09,51.3,66.1,77.38,99.07-9.03-30.77-18.19-61.45-27.46-92.05-24.73-33.03-49.21-66.09-73.43-99.18,7.94,30.64,15.8,61.35,23.51,92.17ZM1319.89,2623.26c25.62,34.46,51.63,68.86,77.99,103.19-7.83-31.16-15.81-62.21-23.87-93.18-24.99-34.25-49.66-68.54-74-102.87,6.74,30.85,13.35,61.82,19.87,92.86ZM2302.94,3824.38l5.84,6.46-10.5-12.68,4.66,6.22ZM2221.03,3734.18l45.22,49.72c-11.81-15.61-23.68-31.22-35.61-46.83-14.28-17.03-28.6-34.07-42.97-51.12,11.18,16.07,22.3,32.15,33.36,48.23ZM2136.7,3641.77l59.62,65.3c-14.42-20.82-28.93-41.63-43.54-62.44-18.76-22.18-37.59-44.39-56.46-66.6,13.55,21.24,27.02,42.49,40.38,63.75ZM709.88,495.59c3.47-10.42,7.12-20.87,10.8-31.33-6.28-21.58-12.47-43-18.58-64.29-3.66,11.22-7.16,22.43-10.56,33.63,6,20.53,12.13,41.19,18.34,61.99ZM696.08,538.96c3.62-11.78,7.18-23.55,11.04-35.36-6.17-20.55-12.23-40.98-18.18-61.28-3.68,12.22-7.33,24.43-10.68,36.6,5.79,19.9,11.75,39.92,17.82,60.04ZM682.45,585.17c3.49-12.56,7.2-25.13,11.03-37.74-6.01-19.86-11.89-39.61-17.64-59.25-3.53,13.07-7.04,26.13-10.23,39.16,5.46,19.19,11.07,38.46,16.85,57.83ZM669.38,633.9c3.29-13.19,6.96-26.44,10.63-39.68-5.73-19.12-11.32-38.15-16.74-57.1-3.31,13.86-6.42,27.69-9.38,41.52,5,18.36,10.16,36.77,15.49,55.26ZM657.34,685.79c3.05-13.99,6.36-28.03,9.76-42.07-5.33-18.35-10.5-36.63-15.51-54.85-3.02,14.62-5.69,29.2-8.33,43.77,4.52,17.66,9.21,35.38,14.08,53.14ZM647.07,736.92c2.55-13.61,5.1-27.23,7.98-40.89-4.81-17.36-9.49-34.67-13.97-51.93-2.4,13.87-4.47,27.69-6.52,41.52,4,17.06,8.17,34.16,12.52,51.3ZM638.15,789c2.12-13.54,4.25-27.08,6.7-40.66-4.29-16.62-8.36-33.2-12.31-49.76-1.95,13.84-3.58,27.65-5.18,41.45,3.4,16.3,7.04,32.63,10.8,48.97ZM630.42,844.33c1.74-14.11,3.58-28.24,5.69-42.4-3.68-15.67-7.2-31.31-10.56-46.94-1.56,14.5-2.78,28.97-3.96,43.44,2.79,15.29,5.71,30.59,8.83,45.9ZM624.84,895.46c1.11-11.93,2.32-23.86,3.7-35.82-2.99-14.25-5.84-28.49-8.55-42.72-.85,12.13-1.36,24.22-1.95,36.33,2.12,14.07,4.37,28.14,6.79,42.21ZM620.76,946.54c.67-10.53,1.5-21.09,2.39-31.64-2.19-12.08-4.32-24.15-6.29-36.23-.36,10.55-.49,21.08-.65,31.6,1.44,12.1,2.89,24.19,4.55,36.27ZM618.44,991.49c.24-6.57.68-13.16,1.02-19.74-1.13-7.52-2.36-15.04-3.41-22.57.04,7.01.12,14.02.26,21.02.6,7.1,1.43,14.19,2.13,21.28ZM2050.76,3547.75l51.72,56.6,15.49,16.94c-14.99-23.72-30.11-47.42-45.34-71.12l-63.7-74.83c14.03,24.13,28.01,48.26,41.83,72.42ZM1965.29,3454.02c23.44,25.76,46.89,51.46,70.33,77.14-14.75-25.66-29.63-51.31-44.66-76.93l-1.15-1.35-65.15-76.5c13.67,25.85,27.22,51.73,40.63,77.64ZM1877.28,3356.92c24.94,27.63,49.94,55.21,74.97,82.75-14.03-26.96-28.21-53.9-42.51-80.81-23.73-27.89-47.43-55.83-71.1-83.78,13.02,27.24,25.89,54.52,38.64,81.85ZM1788.25,3257.72c25.75,28.88,51.63,57.71,77.56,86.48-13.16-28.1-26.48-56.16-39.91-84.18-24.61-29.1-49.16-58.24-73.64-87.41,12.13,28.32,24.14,56.69,35.99,85.11ZM1699.76,3157.73c25.97,29.6,52.08,59.14,78.32,88.61-12.15-29.02-24.46-57.99-36.89-86.91-24.85-29.67-49.6-59.38-74.23-89.13,11.08,29.08,22,58.23,32.8,87.43ZM1610.44,3054.91c26.51,30.86,53.23,61.66,80.13,92.38-11.03-29.69-22.19-59.32-33.48-88.9-25.52-30.89-50.9-61.82-76.1-92.8,9.95,29.71,19.76,59.48,29.45,89.32ZM1520.76,2949.23c26.83,32.05,53.9,64.02,81.24,95.9-9.85-30.25-19.84-60.42-29.96-90.53-25.98-32-51.73-64.05-77.25-96.16,8.79,30.19,17.44,60.45,25.97,90.79ZM1430.86,2840.15c27.02,33.34,54.4,66.6,82.08,99.76-8.65-30.67-17.44-61.26-26.37-91.78-26.36-33.24-52.44-66.53-78.2-99.9,7.61,30.56,15.12,61.19,22.49,91.92ZM1341.26,2727.54c27.03,34.69,54.54,69.28,82.4,103.76-7.47-31.03-15.09-61.97-22.81-92.84-26.52-34.44-52.71-68.95-78.49-103.53,6.42,30.77,12.71,61.66,18.89,92.61ZM2462.9,4012.38l18.65,19.35c-11.34-12.9-22.73-25.8-34.16-38.72l15.5,19.37ZM2375.79,3922.57c16.77,17.22,33.5,34.43,50.15,51.61-15.75-19.55-31.6-39.11-47.56-58.67-14.51-16.21-29.1-32.42-43.72-48.65,13.8,18.57,27.51,37.14,41.13,55.71ZM2287.98,3832.65c20.99,21.45,41.93,42.88,62.8,64.27-17.1-23.16-34.36-46.33-51.73-69.5-19.15-21.17-38.38-42.35-57.67-63.56,15.67,22.93,31.21,45.86,46.6,68.79ZM730.12,562.49c3.49-9.74,7.05-19.49,10.74-29.26-5.99-20.35-11.92-40.57-17.77-60.66-3.66,10.42-7.34,20.85-10.75,31.23,5.84,19.45,11.76,39.01,17.78,58.68ZM715.84,603.42c3.67-10.99,7.6-22.02,11.53-33.05-6-19.6-11.92-39.08-17.75-58.46-3.82,11.91-7.35,23.79-10.94,35.68,5.62,18.51,11.34,37.13,17.16,55.84ZM701.63,648.12c3.78-12.28,7.46-24.56,11.49-36.88-5.78-18.49-11.45-36.9-17.02-55.22-3.8,12.79-7.41,25.54-10.9,38.29,5.36,17.86,10.82,35.8,16.43,53.81ZM687.62,695.43c3.63-12.97,7.46-25.96,11.42-38.98-5.54-17.77-10.98-35.46-16.29-53.08-3.66,13.49-7.21,26.97-10.49,40.41,5,17.16,10.1,34.37,15.36,51.65ZM674.17,745.26c3.4-13.59,7.23-27.24,11.04-40.89-5.2-16.98-10.26-33.9-15.21-50.77-3.41,14.19-6.82,28.37-9.81,42.5,4.54,16.36,9.17,32.73,13.98,49.17ZM662.55,795.38c2.96-13.44,6.11-26.9,9.36-40.39-4.74-16.05-9.37-32.06-13.84-48.03-2.82,13.85-5.59,27.69-8.08,41.49,4.03,15.61,8.25,31.25,12.56,46.92ZM652.09,846.59c2.61-13.7,5.18-27.4,8.12-41.14-4.24-15.21-8.34-30.38-12.31-45.54-2.43,14.09-4.6,28.14-6.68,42.18,3.49,14.82,7.11,29.65,10.87,44.5ZM642.63,900.75c2.25-14.2,4.62-28.42,7.24-42.67-3.7-14.36-7.25-28.7-10.7-43.03-2.1,14.97-3.83,29.87-5.54,44.78,2.87,13.63,5.86,27.27,8.99,40.91ZM635.23,951.49c1.61-12.55,3.44-25.12,5.37-37.72-3.04-12.99-5.97-25.98-8.79-38.95-1.41,13.46-2.47,26.87-3.56,40.29,2.2,12.13,4.56,24.25,6.98,36.38ZM629.27,1002.17c1.13-11.45,2.62-22.98,4.05-34.48-2.34-11.34-4.51-22.68-6.67-34.03-.91,12.8-1.46,25.55-2.08,38.31,1.52,10.07,3.02,20.14,4.7,30.2ZM625.31,1051.4c.68-9.78,1.57-19.6,2.36-29.4-1.46-8.28-3.02-16.56-4.38-24.85-.39,11.47-.4,22.88-.55,34.33.8,6.65,1.7,13.29,2.57,19.93ZM623,1092.56c.23-5.04.39-10.08.66-15.12l-1.07-7.52c.07,7.56.25,15.1.41,22.64ZM2198.59,3741.4l14.06,14.34,56.26,57.43c-17.1-25.33-34.36-50.64-51.78-75.96-21.84-23.98-43.76-47.99-65.71-72.02,15.88,25.39,31.61,50.79,47.17,76.21ZM2107.58,3648.45c25.11,25.68,50.2,51.3,75.26,76.88-16.55-26.9-33.29-53.78-50.17-80.66l-33.82-37-37.02-40.52c15.41,27.08,30.67,54.17,45.76,81.29ZM2017.04,3555.56c25.75,26.51,51.53,52.93,77.3,79.32-15.72-28.12-31.62-56.22-47.65-84.29-24.26-26.56-48.52-53.16-72.78-79.8,14.54,28.23,28.93,56.48,43.13,84.78ZM1924.44,3459.76c26.97,28.05,54.01,56.04,81.1,83.95-14.64-29.01-29.44-58-44.42-86.96-25.66-28.19-51.28-56.45-76.85-84.75,13.55,29.21,26.94,58.47,40.17,87.76ZM1831.03,3361.94c27.64,29.16,55.37,58.24,83.22,87.25-13.55-29.9-27.27-59.76-41.18-89.57-26.4-29.25-52.72-58.56-78.94-87.93,12.48,30.03,24.76,60.12,36.9,90.24ZM1738.02,3262.91c27.73,29.82,55.63,59.55,83.69,89.2-12.39-30.65-24.98-61.24-37.73-91.78-26.6-29.82-53.05-59.71-79.38-89.65,11.3,30.68,22.46,61.42,33.43,92.23ZM1644.23,3160.93c28.16,31,56.55,61.9,85.16,92.71-11.15-31.19-22.49-62.33-33.98-93.4-27.18-30.98-54.18-62.03-80.97-93.14,10.1,31.21,20.04,62.48,29.8,93.83ZM1550.13,3055.88c28.4,32.18,57.11,64.26,86.08,96.23-9.9-31.67-19.98-63.27-30.21-94.8-27.57-32.1-54.91-64.27-81.97-96.53,8.85,31.62,17.56,63.32,26.1,95.1ZM1455.91,2947.26c28.55,33.53,57.51,66.94,86.8,100.22-8.65-32.06-17.47-64.03-26.45-95.93-27.92-33.36-55.53-66.82-82.79-100.37,7.61,31.94,15.1,63.96,22.43,96.07ZM1362.17,2834.91c28.47,34.87,57.42,69.61,86.82,104.22-7.42-32.34-14.98-64.59-22.69-96.75-28.02-34.58-55.65-69.25-82.84-104.04,6.39,32.09,12.61,64.3,18.71,96.57ZM2528.01,4094.84c17.35,16.7,34.65,33.39,51.87,50.05-9.63-11.23-19.29-22.45-29.01-33.68-18.53-19.46-37.17-38.94-55.92-58.44,11.09,14.03,22.11,28.05,33.06,42.08ZM2438.22,4008.72c21.51,20.57,42.94,41.12,64.3,61.62-14.36-18.26-28.83-36.53-43.41-54.79-20.76-21.51-41.64-43.04-62.6-64.61,14.02,19.27,27.93,38.52,41.71,57.78ZM2346.79,3921.42l72.03,68.77c-15.48-21.49-31.11-42.98-46.86-64.47-22.93-23.54-45.95-47.12-69.05-70.74,14.77,22.15,29.4,44.29,43.88,66.44ZM752.73,635.62c3.4-8.97,6.91-17.96,10.45-26.95-6.74-22.67-13.41-45.18-20-67.54-3.65,9.86-7.08,19.67-10.56,29.5,6.61,21.53,13.31,43.19,20.11,64.99ZM738.36,674.58c3.75-10.5,7.54-21.02,11.5-31.57-6.77-21.63-13.42-43.13-19.99-64.51-3.91,11.01-7.88,22.04-11.5,33.01,6.54,20.91,13.21,41.93,19.99,63.07ZM723.56,717.22c3.84-11.6,7.97-23.24,12.1-34.89-6.77-21-13.42-41.91-19.94-62.69-3.96,12.36-7.7,24.69-11.44,37.01,6.28,20.1,12.7,40.29,19.27,60.58ZM708.96,763.6c3.92-12.87,7.72-25.72,11.91-38.64-6.53-20.09-12.91-40.08-19.17-59.99-3.95,13.21-7.67,26.38-11.29,39.54,6.02,19.63,12.19,39.32,18.55,59.09ZM694.59,812.68c3.75-13.58,7.73-27.19,11.85-40.83-6.3-19.53-12.45-39-18.43-58.4-3.8,13.92-7.51,27.83-10.9,41.69,5.66,19.13,11.46,38.3,17.48,57.54ZM681.54,861.65c3.3-13.32,7-26.7,10.68-40.09-5.97-18.95-11.75-37.85-17.37-56.69-3.28,13.62-6.53,27.22-9.44,40.78,5.19,18.63,10.55,37.29,16.14,56ZM669.8,912.93c3.03-13.91,6.12-27.84,9.45-41.81-5.53-18.36-10.9-36.68-16.06-54.97-2.9,14.09-5.57,28.15-8.15,42.18,4.7,18.18,9.66,36.37,14.76,54.59ZM658.85,967.2c2.74-14.69,5.54-29.39,8.67-44.15-5.06-17.87-9.95-35.72-14.63-53.55-2.63,14.89-4.89,29.73-7.13,44.56,4.17,17.7,8.51,35.41,13.09,53.14ZM649.81,1019.42c2.1-13.49,4.41-27.02,6.87-40.59-4.53-17.25-8.8-34.5-12.94-51.73-1.96,13.66-3.63,27.28-5.26,40.89,3.56,17.14,7.36,34.29,11.33,51.43ZM642.21,1071.79c1.63-13,3.65-26.06,5.65-39.13-3.91-16.48-7.64-32.95-11.17-49.43-1.45,13.05-2.73,26.08-3.86,39.08,2.92,16.5,6.05,32.99,9.38,49.47ZM636.39,1125.97c1.17-12.49,2.62-25.04,4.03-37.58-3.23-15.38-6.31-30.78-9.19-46.18-.92,11.87-1.78,23.72-2.42,35.54,2.34,16.08,4.83,32.16,7.58,48.22ZM632.49,1176.88c.69-10.73,1.34-21.46,2.2-32.23-2.48-13.74-4.79-27.49-6.97-41.26-.38,8.56-.89,17.14-1.1,25.67,1.75,15.96,3.7,31.9,5.87,47.82ZM630.24,1217.91c.21-5.34.25-10.65.53-16-1.59-10.7-3-21.43-4.41-32.14v1.66c1.04,15.53,2.43,31.01,3.88,46.48ZM628.85,1265.28c.04-3.06.21-6.14.27-9.2-.41-3.58-.89-7.16-1.28-10.75.28,6.66.65,13.3,1.01,19.94ZM2253.6,3832.48l74.15,70.78,3.27,3.12c-15.48-23.55-31.12-47.08-46.92-70.61l-74.07-75.62c14.68,24.1,29.21,48.22,43.56,72.34ZM2158.73,3741.67c27.14,26.05,54.28,52.02,81.4,77.94-15.01-25.1-30.19-50.18-45.56-75.26-25.91-26.45-51.87-52.94-77.84-79.49,14.17,25.58,28.17,51.19,41.99,76.81ZM2063.88,3650.27c27.62,26.74,55.3,53.4,82.99,79.99-14.27-26.33-28.73-52.64-43.35-78.93-26.39-27.01-52.79-54.07-79.16-81.19,13.34,26.68,26.52,53.38,39.52,80.12ZM1967.1,3556c28.67,28.12,57.43,56.15,86.26,84.09-13.32-27.27-26.82-54.51-40.48-81.73-27.56-28.37-55.06-56.81-82.51-85.31,12.4,27.61,24.64,55.27,36.72,82.95ZM1869.59,3459.59c29.22,29.14,58.57,58.21,88.06,87.16-12.32-28.13-24.81-56.22-37.45-84.28-28.19-29.32-56.3-58.72-84.27-88.2,11.37,28.39,22.61,56.83,33.67,85.31ZM1772.49,3361.75c29.3,29.85,58.79,59.6,88.45,89.23-11.24-28.84-22.65-57.64-34.22-86.4-28.35-29.92-56.56-59.91-84.6-90,10.27,29,20.41,58.06,30.36,87.17ZM1674.69,3260.82c29.67,31.03,59.61,61.94,89.77,92.74-10.1-29.4-20.37-58.77-30.8-88.07-28.88-31.05-57.55-62.18-85.99-93.41,9.15,29.52,18.18,59.09,27.02,88.74ZM1576.56,3156.53c29.84,32.25,60.06,64.35,90.56,96.33-8.96-29.87-18.05-59.71-27.32-89.46-29.22-32.18-58.2-64.44-86.84-96.83,8.01,29.93,15.89,59.91,23.61,89.96ZM1478.44,3048.49c29.92,33.61,60.3,67.06,91.05,100.36-7.8-30.27-15.77-60.47-23.88-90.61-29.48-33.4-58.62-66.93-87.35-100.57,6.86,30.21,13.6,60.47,20.18,90.81ZM1380.83,2936.34c29.77,35.03,60.11,69.87,90.89,104.56-6.64-30.53-13.46-60.98-20.38-91.36-29.51-34.65-58.59-69.43-87.19-104.35,5.7,30.3,11.24,60.7,16.68,91.15ZM639.76,1425.75v.02M2775.14,4345.3l19.15,17.53c-11.6-11.66-23.25-23.33-34.95-35.01l15.8,17.48ZM2690.44,4268.39c15.55,14.06,31.06,28.09,46.48,42.11-16.24-17.81-32.61-35.64-49.11-53.48-12.44-12.23-24.94-24.48-37.46-36.72,13.46,16.04,26.83,32.07,40.09,48.1ZM2596.74,4184.07c22.8,20.44,45.49,40.84,68.08,61.2-16.82-20.17-33.82-40.35-50.96-60.54-21.41-20.82-42.97-41.67-64.62-62.56,15.99,20.64,31.83,41.28,47.5,61.91ZM2502.37,4099.66c25.03,22.34,49.96,44.64,74.8,66.87-17.43-22.79-35.04-45.58-52.83-68.37-23.48-22.6-47.09-45.24-70.78-67.92,16.45,23.15,32.73,46.28,48.81,69.42ZM774.69,705.4c3.22-8.06,6.68-16.16,10.11-24.25l-19.28-64.58c-3.51,8.94-7.03,17.88-10.38,26.79,6.43,20.56,12.95,41.25,19.55,62.05ZM760.49,742.62c3.76-9.94,7.51-19.86,11.37-29.81-6.61-20.81-13.14-41.49-19.59-62.07-3.93,10.64-7.61,21.25-11.34,31.86,6.41,19.91,12.94,39.91,19.56,60.02ZM745.32,783.19c3.93-11.05,8.16-22.16,12.39-33.27-6.58-19.95-13.08-39.8-19.46-59.56-4.11,11.64-8.29,23.28-12.09,34.86,6.26,19.24,12.65,38.57,19.16,57.97ZM730.1,827.98c4.08-12.34,8.27-24.69,12.6-37.07-6.5-19.3-12.86-38.51-19.12-57.66-4.13,12.97-8,25.9-11.89,38.83,6,18.57,12.13,37.2,18.41,55.9ZM714.91,875.9c4.06-13.38,8.19-26.77,12.57-40.22-6.24-18.51-12.34-36.97-18.32-55.36-4.1,13.85-7.96,27.65-11.71,41.43,5.67,18,11.47,36.05,17.45,54.15ZM700.7,923.66c3.62-13.12,7.73-26.32,11.75-39.51-5.94-17.88-11.71-35.72-17.35-53.51-3.67,13.58-7.35,27.16-10.62,40.67,5.25,17.42,10.65,34.86,16.22,52.35ZM687.69,974.41c3.43-13.86,6.98-27.75,10.69-41.67-5.55-17.26-10.88-34.47-16.11-51.66-3.32,14.1-6.55,28.19-9.54,42.24,4.83,17.02,9.78,34.04,14.96,51.1ZM675.29,1027.99c3.2-14.75,6.45-29.52,10.02-44.34-5.13-16.76-10.07-33.5-14.87-50.21-3.13,15.29-5.83,30.49-8.57,45.69,4.29,16.27,8.78,32.57,13.41,48.86ZM664.68,1079.67c2.57-13.78,5.45-27.61,8.41-41.47-4.58-15.96-9.03-31.92-13.3-47.86-2.47,14.25-4.63,28.43-6.74,42.62,3.71,15.57,7.59,31.14,11.62,46.71ZM655.43,1132.87c2.15-13.73,4.67-27.54,7.18-41.35-3.99-15.1-7.82-30.19-11.5-45.29-2.02,14.19-3.86,28.36-5.5,42.48,3.1,14.73,6.39,29.45,9.81,44.16ZM647.96,1187.3c1.7-13.6,3.44-27.22,5.43-40.87-3.33-13.93-6.44-27.86-9.48-41.8-1.47,13.46-2.91,26.91-4.01,40.31,2.56,14.14,5.2,28.26,8.06,42.37ZM642.19,1240.19c1.19-12.61,2.31-25.21,3.77-37.89-2.59-12.32-5.11-24.64-7.46-36.99-.91,12.34-1.91,24.69-2.51,36.97,1.9,12.65,4.04,25.28,6.2,37.9ZM638.12,1288.27c.62-9.35,1.39-18.72,2.23-28.11-1.87-10.35-3.51-20.73-5.21-31.1-.27,9.15-.64,18.33-.81,27.46,1.22,10.59,2.36,21.18,3.78,31.75ZM635.19,1345.45c.34-10.32,1.05-20.72,1.59-31.08-.84-5.68-1.79-11.35-2.58-17.05.07,15.09.2,30.15.68,45.16l.31,2.97ZM2406.45,4014.06l38.09,34,41.91,37.4c-17.13-24.5-34.46-49-52-73.5-25.2-24.11-50.51-48.27-75.88-72.48,16.16,24.86,32.13,49.72,47.88,74.58ZM2308.68,3926.66c28.11,25.18,56.21,50.31,84.25,75.33-16.44-25.81-33.1-51.61-49.96-77.41l-18.61-17.76-61.55-58.74c15.49,26.18,30.78,52.37,45.87,78.57ZM2209.7,3837.75c29.03,26.19,58.08,52.27,87.11,78.29-15.54-26.88-31.29-53.76-47.25-80.6-27.69-26.45-55.41-52.94-83.13-79.53,14.64,27.26,29.05,54.54,43.27,81.84ZM2110.52,3747.82c29.49,26.89,59.05,53.69,88.63,80.39-14.59-27.89-29.43-55.75-44.47-83.59-28.18-27.04-56.34-54.17-84.47-81.37,13.64,28.16,27.09,56.35,40.31,84.57ZM2009.4,3654.9c30.38,28.13,60.84,56.17,91.41,84.08-13.47-28.66-27.19-57.27-41.09-85.85-29.21-28.27-58.34-56.66-87.4-85.11,12.55,28.92,24.92,57.88,37.07,86.88ZM1907.65,3559.8c30.81,29.09,61.77,58.05,92.89,86.91-12.35-29.35-24.9-58.66-37.65-87.93-29.77-29.19-59.42-58.48-88.94-87.86,11.42,29.58,22.66,59.21,33.7,88.89ZM1806.34,3463.05c30.82,29.81,61.88,59.46,93.12,89-11.19-29.96-22.59-59.89-34.16-89.76-29.9-29.82-59.63-59.73-89.16-89.76,10.25,30.12,20.32,60.3,30.21,90.52ZM1704.45,3363.16c31.1,30.97,62.57,61.77,94.23,92.45-10-30.48-20.21-60.9-30.58-91.27-30.36-30.94-60.52-61.98-90.38-93.15,9.07,30.59,18,61.25,26.72,91.97ZM1602.31,3259.61c31.27,32.25,62.94,64.35,94.92,96.29-8.82-30.92-17.84-61.79-27.02-92.59-30.68-32.1-61.09-64.32-91.12-96.69,7.9,30.94,15.65,61.92,23.21,92.99ZM1500.27,3152.14c31.3,33.68,63.04,67.19,95.24,100.5-7.65-31.31-15.5-62.53-23.49-93.7-30.88-33.37-61.41-66.87-91.46-100.53,6.73,31.17,13.3,62.41,19.71,93.73ZM1398.81,3040.3c31.11,35.18,62.76,70.15,94.98,104.93-6.49-31.55-13.14-63.01-19.95-94.4-30.9-34.71-61.34-69.57-91.23-104.62,5.55,31.28,10.93,62.66,16.19,94.09ZM4000,6193.29c-52.19,244.09-219.87,494.59-541.24,756.75-321.03,261.9-795.57,535.56-1461.75,826.24-555.06,262.46-904.31,478.13-1102.08,655.29-112.88,101.11-176.34,189.61-200.5,267-24.02,76.96-9.1,143.01,34.69,199.66,27.83,36,67.31,68.27,115.84,97.17l-2.5,4.23c-49.08-29.22-89.04-61.89-117.24-98.39-44.78-57.94-60.05-125.47-35.5-204.14,24.42-78.22,88.34-167.47,201.93-269.21,198.12-177.47,547.76-393.41,1103.27-656.09l.07-.03c665.76-290.49,1139.95-563.93,1460.67-825.58,320.41-261.39,487.57-510.95,539.52-753.95l4.83,1.03ZM2957.47,4523.51l24.18,20.88c-14.55-13.87-29.21-27.77-43.94-41.67,6.61,6.93,13.2,13.86,19.76,20.79ZM2857.46,4437.96c20.85,17.71,41.57,35.38,62.17,53.02-17.43-18.17-35.03-36.35-52.79-54.55-19.27-17.88-38.66-35.8-58.19-53.74,16.43,18.43,32.71,36.86,48.81,55.27ZM2764.74,4359.58c22.43,18.88,44.75,37.71,66.95,56.51-19.75-22.38-39.73-44.78-59.94-67.19-19.8-18.09-39.73-36.21-59.76-54.36,17.78,21.69,35.39,43.37,52.76,65.04ZM2665.97,4276.72c26.52,22.19,52.92,44.32,79.18,66.38-19.17-23.74-38.58-47.49-58.24-71.25-24.71-22.33-49.57-44.69-74.54-67.12,18.1,24,35.98,48,53.6,71.98ZM2566.58,4193.68c27.91,23.31,55.73,46.53,83.42,69.69-18.7-25.3-37.67-50.61-56.9-75.92-26.12-23.41-52.36-46.89-78.71-70.42,17.64,25.54,35.05,51.09,52.19,76.64ZM796.47,773.57c3.16-7.51,6.14-14.99,9.31-22.51l-18.7-62.3c-3.38,8.15-6.69,16.3-9.91,24.42,6.36,20.03,12.8,40.16,19.31,60.39ZM782.25,807.97c3.65-9.09,7.48-18.22,11.3-27.34-6.47-20.12-12.88-40.13-19.22-60.04-3.84,9.91-7.61,19.81-11.32,29.69,6.32,19.14,12.73,38.37,19.23,57.7ZM767,846.93c4.06-10.66,8.11-21.32,12.37-32.02-6.46-19.19-12.84-38.31-19.14-57.33-4.2,11.22-8.31,22.43-12.24,33.6,6.22,18.51,12.57,37.09,19,55.75ZM751.18,889.64c4.2-11.76,8.65-23.58,13.11-35.41-6.41-18.51-12.71-36.97-18.91-55.34-4.31,12.38-8.55,24.75-12.59,37.08,6.01,17.83,12.14,35.72,18.39,53.67ZM735.29,936.14c4.32-13.06,8.59-26.11,13.19-39.23-6.22-17.79-12.33-35.53-18.31-53.22-4.37,13.62-8.38,27.17-12.44,40.72,5.72,17.2,11.57,34.44,17.56,51.72ZM720.07,982.66c3.93-12.85,8.35-25.81,12.68-38.75-5.95-17.14-11.76-34.23-17.45-51.28-4.03,13.47-8.01,26.93-11.65,40.34,5.33,16.54,10.83,33.1,16.43,49.7ZM705.91,1032.41c3.82-13.77,7.7-27.55,11.78-41.37-5.57-16.42-11.03-32.81-16.32-49.16-3.73,14.05-7.39,28.09-10.77,42.07,4.94,16.14,10.07,32.29,15.31,48.47ZM692.11,1084.77c3.62-14.58,7.37-29.18,11.37-43.84-5.21-15.97-10.29-31.93-15.22-47.87-3.58,15.21-6.72,30.32-9.91,45.45,4.44,15.41,9.03,30.83,13.76,46.26ZM679.88,1135.53c3.01-13.71,6.52-27.52,9.96-41.32-4.7-15.17-9.26-30.32-13.68-45.47-2.97,14.4-5.7,28.77-8.29,43.1,3.86,14.57,7.87,29.13,12.01,43.69ZM669.21,1189.11c2.69-14.23,5.54-28.5,8.52-42.8-4.09-14.2-8.09-28.4-11.93-42.6-2.54,14.39-5.05,28.77-7.17,43.06,3.38,14.12,6.92,28.23,10.58,42.34ZM659.97,1242.5c2.23-14.04,4.43-28.08,7.01-42.18-3.53-13.34-6.87-26.69-10.14-40.04-2,14.17-3.98,28.33-5.61,42.43,2.8,13.28,5.69,26.55,8.75,39.8ZM652.27,1294.6c1.66-12.92,3.62-25.91,5.65-38.91-2.92-12.3-5.78-24.61-8.47-36.93-1.45,13.97-2.69,27.9-3.84,41.81,2.06,11.36,4.39,22.69,6.66,34.03ZM646.56,1344.61c1.11-11.05,2.48-22.18,3.79-33.28-2.26-10.84-4.34-21.69-6.41-32.53-.85,12.06-1.29,24.04-1.9,36.05,1.48,9.93,2.88,19.86,4.52,29.76ZM641.86,1402.53c.87-13.01,1.67-26,2.8-39.06-1.34-7.64-2.67-15.28-3.91-22.93-.58,15.87-.74,31.65-.87,47.43.61,4.87,1.34,9.71,1.98,14.56ZM640,1428.55l.04-.7-.29-2.1h0s.24,2.8.24,2.8ZM2465.83,4109.48c29.12,24.36,58.2,48.66,87.18,72.86-17.84-26.45-35.96-52.9-54.33-79.34l-57.42-51.25-25.2-22.5c16.85,26.74,33.45,53.48,49.78,80.23ZM2363.51,4023.68c30.18,25.39,60.34,50.68,90.45,75.88-16.83-27.43-33.94-54.85-51.31-82.27-28.66-25.58-57.37-51.23-86.13-76.96,15.92,27.77,31.59,55.55,46.99,83.35ZM2259.84,3936.11c30.93,26.26,61.9,52.4,92.86,78.47-15.75-28.31-31.78-56.61-48.04-84.89-29.51-26.43-59.05-52.92-88.57-79.52,14.82,28.62,29.41,57.27,43.74,85.94ZM2156.26,3847.57c31.23,26.87,62.52,53.65,93.87,80.3-14.59-29.08-29.43-58.13-44.52-87.15-29.89-26.96-59.76-54.04-89.56-81.19,13.66,29.31,27.04,58.67,40.22,88.05ZM2050.99,3756.21c32.01,28.04,64.17,55.96,96.42,83.74-13.42-29.78-27.1-59.52-41.03-89.23-30.87-28.16-61.65-56.43-92.33-84.8,12.55,30.06,24.88,60.15,36.94,90.28ZM1944.93,3662.39c32.36,28.98,64.97,57.78,97.68,86.47-12.23-30.42-24.72-60.79-37.43-91.13-31.35-29.03-62.58-58.17-93.64-87.44,11.35,30.66,22.48,61.36,33.38,92.1ZM1839.32,3566.6c32.34,29.75,64.98,59.33,97.8,88.77-11.03-30.99-22.29-61.93-33.77-92.82-31.43-29.68-62.72-59.45-93.74-89.4,10.11,31.11,20.03,62.25,29.72,93.45ZM1733.29,3467.5c32.61,30.98,65.5,61.8,98.74,92.43-9.81-31.46-19.83-62.87-30.07-94.22-31.87-30.83-63.49-61.79-94.8-92.91,8.91,31.51,17.62,63.07,26.13,94.7ZM1627.16,3364.82c32.67,32.23,65.74,64.27,99.2,96.12-8.6-31.8-17.39-63.54-26.38-95.23-32.17-32.05-63.96-64.29-95.41-96.67,7.71,31.86,15.25,63.78,22.59,95.78ZM1521.26,3258.01c32.6,33.65,65.73,67.09,99.32,100.31-7.41-32.14-15.02-64.22-22.8-96.23-32.32-33.36-64.19-66.91-95.61-100.63,6.54,32.12,12.9,64.29,19.09,96.55ZM1415.99,3146.53c32.36,35.22,65.38,70.2,98.95,104.96-6.24-32.39-12.67-64.71-19.26-96.95-32.32-34.78-64.08-69.77-95.29-104.95,5.36,32.22,10.54,64.55,15.59,96.94ZM650.01,1667.78c.43,4.94.94,9.86,1.42,14.78M3999.6,6572.18c-131.19,186.89-343.19,379.43-654.01,580.26-310.65,200.71-720.1,409.77-1246.35,629.78-623.88,278.1-991.94,501.09-1178.99,679.86-91.26,87.22-139.32,163.81-152.88,231-13.49,66.83,7.22,124.51,53.44,174.25,46.64,50.19,119.24,92.41,208.95,127.88l-1.82,4.6c-90.34-35.72-163.56-78.34-210.74-129.12-47.31-50.92-68.49-110.02-54.66-178.58,13.76-68.19,62.27-145.65,154.31-233.62,187.44-179.14,555.97-402.47,1180.43-680.82l.06-.03c525.98-219.9,935.18-428.82,1245.59-629.38,310.25-200.46,521.8-392.56,652.64-578.95l4.04,2.85ZM3128.99,4681.22l7.34,5.98-13.16-11.8,5.81,5.82ZM3031.05,4602.24c20.13,16.12,40.15,32.2,60.03,48.26-12.54-12.39-25.19-24.78-37.92-37.19-20.64-18.15-41.47-36.33-62.46-54.54,13.57,14.49,27.02,28.99,40.34,43.46ZM2929.02,4521.1c25.6,20.25,51.04,40.44,76.29,60.59-16.87-18.16-33.93-36.33-51.17-54.51-24.76-21.35-49.74-42.74-74.9-64.18,16.8,19.38,33.38,38.75,49.77,58.11ZM2831.53,4444.28c26.07,20.47,52.02,40.89,77.79,61.25-18.18-21.32-36.61-42.64-55.27-63.98-24.37-20.7-48.89-41.44-73.55-62.23,17.23,21.66,34.26,43.31,51.02,64.96ZM2728.79,4363.77c29.02,22.72,57.93,45.35,86.68,67.91-17.83-22.86-35.91-45.72-54.24-68.59-27.54-23.18-55.24-46.42-83.08-69.72,17.13,23.47,34.02,46.94,50.64,70.4ZM2625.18,4282.69l60.75,47.54,29.22,22.86c-17.32-24.31-34.93-48.62-52.78-72.93-28.56-23.89-57.26-47.86-86.05-71.91,16.54,24.82,32.84,49.63,48.86,74.45ZM2520.14,4200.31c31.1,24.46,62.17,48.81,93.15,73.07-16.52-25.45-33.32-50.89-50.39-76.34l-3.23-2.69-85.84-71.73,6.1,10.06c13.63,22.54,26.98,45.08,40.2,67.63ZM2414.01,4116.59c31.88,25.25,63.75,50.39,95.58,75.43-11.15-18.94-22.45-37.86-33.89-56.78-4.53-7.49-9.08-14.99-13.66-22.47-30.54-25.54-61.11-51.16-91.74-76.89,14.83,26.89,29.42,53.79,43.7,80.72ZM2306.06,4030.57c32.63,26.16,65.32,52.21,98.01,78.14-14.56-27.34-29.46-54.64-44.57-81.94-31.37-26.37-62.73-52.86-94.07-79.45,13.8,27.73,27.35,55.48,40.63,83.25ZM2198.24,3943.48c32.83,26.74,65.76,53.35,98.75,79.82-13.49-28.08-27.24-56.13-41.24-84.17-31.66-26.88-63.27-53.9-94.82-81.01,12.68,28.43,25.12,56.88,37.31,85.37ZM2089.13,3853.74c33.44,27.78,67.04,55.43,100.75,82.92-12.36-28.75-24.96-57.46-37.8-86.16-32.41-27.89-64.75-55.89-96.93-84.04,11.58,29.06,22.88,58.15,33.98,87.28ZM1979.13,3761.21c33.85,28.84,67.93,57.5,102.18,86.01-11.25-29.41-22.78-58.79-34.54-88.13-32.94-28.84-65.77-57.79-98.36-86.92,10.46,29.64,20.71,59.32,30.71,89.04ZM819.64,845.2c2.84-6.49,5.74-12.98,8.64-19.49l-20.18-66.93c-3.1,7.44-6.12,14.86-9.22,22.3,6.84,21.26,13.77,42.63,20.76,64.12ZM805.74,877.12c3.52-8.37,7.2-16.77,10.9-25.16-6.96-21.39-13.85-42.67-20.68-63.83-3.8,9.08-7.65,18.16-11.24,27.2,6.91,20.5,13.92,41.1,21.02,61.79ZM790.59,914.34c4.04-10.07,8.13-20.16,12.31-30.26-7.11-20.7-14.11-41.3-21.04-61.82-4.23,10.8-8.16,21.54-12.22,32.31,6.87,19.85,13.85,39.76,20.95,59.77ZM774.5,955.39c4.31-11.37,8.74-22.76,13.3-34.18-7.06-19.86-14.02-39.64-20.86-59.34-4.46,11.81-8.95,23.63-13.1,35.37,6.76,19.32,13.64,38.69,20.66,58.14ZM757.92,1000.1c4.43-12.47,9.18-25,13.92-37.55-7.02-19.41-13.93-38.76-20.69-58.04-4.6,13.29-8.74,26.48-13.07,39.71,6.46,18.57,13.1,37.21,19.84,55.88ZM742.18,1046.54c4.31-13.06,8.53-26.09,13.11-39.21-6.71-18.51-13.3-36.97-19.74-55.39-4.31,13.15-8.62,26.3-12.55,39.37,6.25,18.38,12.61,36.78,19.18,55.23ZM726.81,1094.92c4.12-13.57,8.39-27.17,12.85-40.81-6.5-18.17-12.85-36.3-19.03-54.41-4.09,13.89-8.05,27.74-11.82,41.56,5.84,17.86,11.82,35.75,18.01,53.66ZM711.72,1146.41c3.96-14.38,8.29-28.85,12.66-43.33-6.19-17.79-12.16-35.55-18-53.29-4,14.98-7.63,29.87-11.25,44.78,5.37,17.27,10.87,34.55,16.59,51.84ZM698.3,1197.73c3.48-14.12,7.26-28.3,11.1-42.5-5.7-17.08-11.21-34.16-16.57-51.22-3.44,14.25-6.8,28.49-9.83,42.65,4.93,17.02,9.99,34.05,15.29,51.07ZM686.11,1250.67c3.17-14.59,6.33-29.18,9.86-43.85-5.19-16.51-10.24-33.01-15.08-49.52-3.01,14.5-5.99,28.99-8.63,43.4,4.42,16.66,9.03,33.32,13.84,49.97ZM675.27,1304.31c2.72-14.5,5.5-29.02,8.58-43.6-4.76-16.29-9.34-32.59-13.74-48.9-2.57,14.82-4.68,29.53-6.9,44.27,3.84,16.09,7.86,32.17,12.07,48.23ZM665.96,1358.05c2.2-14.02,4.57-28.08,7.13-42.19-4.15-15.51-8.15-31.03-11.95-46.57-2.05,14.21-3.81,28.36-5.49,42.48,3.23,15.45,6.71,30.87,10.3,46.27ZM658.47,1409.81c1.62-12.6,3.46-25.27,5.38-37.94-3.53-14.71-6.8-29.46-10-44.21-1.41,12.13-2.82,24.26-3.89,36.31,2.69,15.3,5.45,30.6,8.51,45.84ZM651.88,1468.39c1.34-14.19,3.04-28.46,4.75-42.74-2.87-13.71-5.56-27.43-8.13-41.19-1.14,14.65-2.38,29.3-3.13,43.86,1.98,13.39,4.23,26.73,6.5,40.07ZM648.58,1509.9c.48-6.79,1.09-13.61,1.63-20.41-2.04-11.19-3.91-22.43-5.75-33.66l-.48,16.42c1.36,12.58,2.97,25.11,4.6,37.65ZM646.15,1552.87c.24-5.35.41-10.67.69-16.03-1.35-9.31-2.49-18.66-3.7-28l.02.92c.91,14.39,1.72,28.8,2.99,43.11ZM1869.5,3666.4c28.61,25.11,57.38,50.11,86.38,74.96l15.78,13.5c-10.11-29.93-20.46-59.82-31.04-89.66-33.03-29.58-65.83-59.34-98.39-89.23,9.3,30.1,18.39,60.24,27.27,90.43ZM1759.62,3568.36c33.93,30.82,68.23,61.45,102.84,91.89-8.96-30.36-18.14-60.67-27.52-90.94-33.39-30.7-66.44-61.59-99.21-92.64,8.17,30.51,16.13,61.07,23.89,91.69ZM1649.77,3466.57c33.93,32.13,68.37,64.04,103.16,95.73-7.84-30.79-15.88-61.53-24.12-92.2-33.58-31.9-66.8-63.98-99.6-96.25,7.04,30.85,13.89,61.75,20.56,92.72ZM1540.18,3360.23c33.85,33.65,68.25,67.05,103.18,100.22-6.72-31.09-13.64-62.12-20.74-93.09-33.69-33.24-66.95-66.68-99.66-100.35,5.91,31.01,11.66,62.08,17.22,93.22ZM1431.31,3248.93c33.57,35.32,67.84,70.37,102.73,105.15-5.62-31.27-11.41-62.46-17.38-93.6-33.66-34.74-66.79-69.7-99.24-104.91,4.8,31.05,9.4,62.17,13.89,93.36ZM3999.31,6778.15c-158.27,156.12-379.64,317.19-675.5,484.95-295.78,167.7-666.06,342.13-1122.24,525.02-672.85,282.27-1052.86,504.85-1230.98,680.34-81.75,80.55-120.83,151.03-126.07,212.67-5.22,61.35,23.17,114.12,76.34,159.51,77.08,65.79,206.07,116.08,360.4,154.49l-1.19,4.79c-155.03-38.59-284.71-89.2-362.42-155.53-54.41-46.43-83.44-100.58-78.07-163.67,5.34-62.8,44.87-134.34,127.55-215.79,178.54-175.9,559.06-398.85,1232.54-681.38h.03c456-182.84,826.09-357.17,1121.66-524.75,295.49-167.54,516.51-328.35,674.49-484.18l3.46,3.52ZM3299.42,4830.77l22.98,17.68c-13.73-11.72-27.56-23.44-41.5-35.19l18.52,17.51ZM3206.75,4760.27c18.32,13.83,36.52,27.63,54.6,41.4-17.04-15.94-34.26-31.91-51.66-47.88-15.67-12.97-31.44-25.95-47.32-38.96,14.95,15.16,29.74,30.31,44.38,45.44ZM3105.04,4684.04c25.53,19.01,50.88,37.98,76.03,56.89-18.24-18.68-36.73-37.37-55.44-56.08-24.05-19.56-48.33-39.17-72.8-58.82,17.63,19.35,35.06,38.69,52.21,58.01ZM2999.36,4605.73c28.86,21.3,57.55,42.52,86.01,63.68-18.96-21.17-38.21-42.36-57.73-63.56-27.33-21.88-54.9-43.83-82.67-65.82,18.41,21.91,36.54,43.82,54.38,65.71ZM2896.9,4530.32c28.96,21.26,57.78,42.46,86.42,63.57-18.93-23.06-38.2-46.14-57.74-69.23-27.07-21.42-54.33-42.9-81.74-64.44,17.98,23.37,35.68,46.73,53.06,70.1ZM2789.93,4451.85l21.55,15.81,71.77,52.65c-18.1-24.17-36.53-48.35-55.26-72.53-29.62-23.26-59.41-46.61-89.34-70.04,17.39,24.71,34.5,49.41,51.28,74.11ZM2682.01,4372.63c32.08,23.59,64.08,47.08,95.96,70.46-17.28-25.29-34.88-50.59-52.8-75.89l-42.28-33.08-49.57-38.79c16.54,25.76,32.77,51.53,48.7,77.31ZM2572.81,4292.08c32.91,24.36,65.78,48.58,98.56,72.71-16.3-26.24-32.93-52.48-49.87-78.72-31.46-24.63-63.02-49.36-94.62-74.19,15.6,26.72,30.97,53.45,45.92,80.2ZM2462.19,4209.81c33.61,25.13,67.24,50.14,100.82,75.03-15.22-27.1-30.83-54.17-46.68-81.24-32.21-25.32-64.46-50.74-96.73-76.28,14.49,27.48,28.67,54.98,42.59,82.5ZM2350.57,4125.76c34.14,25.9,68.35,51.66,102.57,77.28-14.12-27.82-28.5-55.62-43.22-83.4-32.99-26.14-65.97-52.4-98.91-78.78,13.46,28.28,26.69,56.57,39.56,84.9ZM2238.49,4039.98c34.41,26.59,68.94,53.02,103.54,79.3-13.05-28.58-26.45-57.14-40.09-85.68-33.25-26.67-66.45-53.46-99.56-80.39,12.31,28.89,24.34,57.82,36.11,86.77ZM2125.32,3951.57c34.91,27.59,70,55.02,105.23,82.27-11.9-29.17-24.07-58.32-36.51-87.43-33.93-27.64-67.76-55.43-101.43-83.37,11.17,29.48,22.06,58.99,32.71,88.53ZM2011.69,3860.55c35.16,28.56,70.57,56.93,106.18,85.13-10.76-29.73-21.77-59.43-33.04-89.1-34.38-28.57-68.6-57.32-102.59-86.23,10.06,30.03,19.89,60.09,29.45,90.2ZM1898.16,3766.85c35.15,29.49,70.62,58.78,106.37,87.87-9.66-30.28-19.58-60.51-29.74-90.71l-22.12-18.9c-27.04-23.17-53.87-46.48-80.57-69.87,8.91,30.49,17.61,61.03,26.06,91.61ZM1784.49,3669.7c35.24,30.71,70.88,61.19,106.87,91.45-8.53-30.73-17.3-61.41-26.29-92.06-34.76-30.51-69.19-61.2-103.27-92.1,7.78,30.85,15.35,61.75,22.69,92.71ZM842.9,916.42c2.5-5.52,5.13-11.05,7.75-16.59l-20.12-66.64c-2.87,6.43-5.75,12.86-8.54,19.26,6.91,21.22,13.88,42.54,20.91,63.97ZM829.7,946.43c3.41-7.75,6.79-15.49,10.23-23.25-7.04-21.44-14.02-42.77-20.93-63.99-3.66,8.45-7.22,16.87-10.74,25.29,7.06,20.55,14.21,41.21,21.44,61.95ZM814.55,981.03c3.91-9.28,8.1-18.64,12.24-27.98-7.2-20.64-14.33-41.18-21.36-61.63-4.16,10.07-8.27,20.12-12.27,30.14,7.02,19.74,14.16,39.57,21.39,59.46ZM798.45,1020.71c4.39-10.93,8.79-21.88,13.33-32.85-7.24-19.89-14.37-39.7-21.41-59.43-4.53,11.5-8.87,22.98-13.17,34.43,6.96,19.22,14.04,38.5,21.25,57.85ZM781.5,1064.09c4.61-12.17,9.32-24.37,14.2-36.61-7.17-19.21-14.23-38.36-21.17-57.45-4.73,12.55-9.52,25.11-13.9,37.57,6.81,18.78,13.78,37.61,20.87,56.49ZM764.9,1108.77c4.43-12.49,9.24-25.06,13.99-37.63-7.06-18.71-14-37.38-20.78-55.99-4.51,13.1-8.84,26.16-13.11,39.22,6.48,18.1,13.12,36.23,19.89,54.4ZM748.75,1156.54c4.42-13.42,8.94-26.86,13.63-40.35-6.79-18.12-13.41-36.21-19.91-54.26-4.46,13.84-8.64,27.63-12.77,41.39,6.17,17.72,12.56,35.46,19.05,53.22ZM732.69,1207.57c4.38-14.48,8.8-28.98,13.54-43.55-6.45-17.57-12.78-35.12-18.92-52.64-4.37,14.75-8.61,29.45-12.59,44.1,5.8,17.35,11.82,34.72,17.97,52.09ZM718.02,1258.33c3.91-14.23,7.98-28.49,12.25-42.8-6.1-17.14-12.05-34.26-17.81-51.37-3.86,14.33-7.73,28.65-11.18,42.89,5.4,17.09,10.98,34.19,16.74,51.29ZM704.3,1310.69c3.58-14.52,7.43-29.13,11.39-43.75-5.7-16.78-11.22-33.56-16.57-50.33-3.48,14.82-6.84,29.61-9.97,44.34,4.86,16.58,9.91,33.16,15.15,49.74ZM691.82,1364.06c3.15-14.57,6.68-29.21,10.24-43.87-5.24-16.39-10.29-32.79-15.16-49.2-3.1,15.1-5.79,30.1-8.51,45.1,4.29,16.01,8.77,31.99,13.44,47.96ZM680.92,1418.26c2.69-14.44,5.69-28.95,8.74-43.48-4.65-15.69-9.16-31.4-13.46-47.12-2.59,14.87-4.84,29.66-7.04,44.43,3.71,15.41,7.7,30.8,11.77,46.17ZM671.91,1471.26c2.15-13.66,4.4-27.35,6.85-41.09-4.06-15.03-7.85-30.09-11.57-45.15-1.95,13.65-3.64,27.24-5.26,40.81,3.18,15.16,6.44,30.32,9.99,45.43ZM663.59,1530.59c1.91-15.47,3.85-30.95,6.18-46.54-3.39-14.09-6.61-28.21-9.69-42.35-1.76,16.01-3.27,31.96-4.58,47.86,2.5,13.71,5.28,27.37,8.09,41.02ZM658.53,1576.98c.99-10.17,1.85-20.31,2.99-30.52-2.64-12.35-5.2-24.71-7.59-37.1-.68,9.17-1.29,18.32-1.78,27.44,1.95,13.43,4.13,26.82,6.38,40.19ZM654.36,1627.06c.68-9.96,1.33-19.91,2.19-29.92-2.02-11.29-3.74-22.66-5.55-33.99-.37,8.37-.87,16.77-1.08,25.1,1.41,12.95,2.75,25.92,4.44,38.82ZM651.43,1682.56c.36-9.99.77-20,1.31-30.04-1.03-7.06-2.17-14.1-3.12-21.18M1670.94,3568.48c20.6,18.77,41.32,37.49,62.25,56.09,14.86,13.19,29.79,26.35,44.8,39.46-7.41-31.08-15.04-62.11-22.88-93.09-34.93-31.75-69.47-63.7-103.53-95.89,6.66,31.09,13.11,62.23,19.37,93.43ZM1557.82,3462.77c35.04,33.61,70.7,66.94,106.89,100.01-6.3-31.3-12.81-62.54-19.51-93.73-35.03-33.19-69.53-66.63-103.5-100.3,5.55,31.28,10.93,62.62,16.12,94.02ZM1445.46,3351.77c34.74,35.41,70.21,70.5,106.36,105.29-5.24-31.55-10.66-63.03-16.28-94.45-34.98-34.77-69.32-69.83-102.99-105.15,4.48,31.37,8.76,62.82,12.9,94.31ZM3998.93,7057.62c-176.58,115.05-394.03,233.85-657.69,357.26-263.65,123.41-573.56,251.47-935.11,385.05-1565.99,578.61-1592.62,877-1162.85,1030.66,432.74,154.72,1323.53,164.45,1584.5,164.45v4.95c-261.16,0-1152.67-9.75-1586.16-164.74-436.43-156.04-413.24-457.63,1162.8-1039.96,361.46-133.55,671.23-261.56,934.72-384.89,263.48-123.32,480.72-242.01,657.09-356.92l2.69,4.13ZM665.62,1900.84c-.3,7.63-.38,15.19-.59,22.79,56.56,533.8,362.18,1000.34,774.61,1422.16-4.19-31.59-8.52-63.12-13.03-94.58-386.85-407.12-681.36-851.15-760.99-1350.37ZM668.93,1842.6c-.78,10.65-1.27,21.22-1.86,31.81,73,506.55,368.09,956.34,758.29,1368.27-4.53-31.32-9.19-62.59-14.04-93.78-366.8-399.26-651.07-829.59-742.39-1306.31ZM675.18,1776.06c-1.73,15.39-3.13,30.7-4.43,45.97,86.6,481.31,370.63,915.36,739.13,1317.83-5.09-32.5-10.32-64.93-15.73-97.27-346.69-392.21-619.44-810.12-718.97-1266.53ZM682.51,1718.71c-2.01,13.97-3.71,27.86-5.38,41.72,96.14,458.86,368.2,878.85,715.44,1272.86-5.32-31.65-10.76-63.23-16.39-94.71-325.32-382.71-585.77-785.92-693.67-1219.87ZM690.9,1665.3c-2.28,13.21-4.23,26.33-6.21,39.47,105.12,435.5,364.47,840.04,689.69,1223.95-5.5-30.61-11.09-61.15-16.85-91.61-303.82-372.28-551.44-760.23-666.64-1171.8ZM702.57,1604.16c-3.43,16.56-6.5,33.03-9.45,49.46,112.96,412.08,359.25,800.51,662.44,1173.21-6.18-32.48-12.48-64.89-18.93-97.18-281.87-361.79-515.09-734.98-634.06-1125.49ZM714.68,1549.4c-3.52,14.94-6.73,29.79-9.87,44.63,117.05,390.18,348.8,763.08,629.58,1124.6-6.27-31.18-12.64-62.29-19.14-93.3-259.92-349.76-478.71-706.99-600.57-1075.93ZM728.52,1494.6c-4.04,15.26-7.9,30.48-11.56,45.64,120.14,368.03,337.26,724.46,595.81,1073.42-6.6-31.33-13.32-62.58-20.16-93.72-237.89-336.75-441.45-677.63-564.09-1025.34ZM743.66,1440.78c-4.44,15.09-8.84,30.15-12.88,45.12,121,346.37,322.73,685.99,559.06,1021.54-6.89-31.22-13.86-62.34-20.97-93.34-215.96-322.68-403.74-646.6-525.21-973.31ZM759.81,1388.47c-4.76,14.75-9.45,29.47-13.82,44.12,119.86,324.8,305.62,646.95,519.73,967.87-7.1-30.89-14.3-61.69-21.59-92.36-194.27-307.45-365.89-613.81-484.32-919.63ZM776.61,1338.29c-4.96,14.25-9.79,28.47-14.39,42.63,116.77,303.31,286.19,607.21,478.33,912.2-7.23-30.24-14.53-60.38-21.92-90.41-173.05-291.1-328.36-579.29-442.03-864.42ZM794.39,1288.7c-5.29,14.23-10.35,28.38-15.31,42.51,111.91,281.98,264.81,567,435.44,854.91-7.6-30.71-15.27-61.32-23.02-91.8-151.88-272.95-290.28-541.68-397.12-805.61ZM811.89,1242.8c-5.14,13.08-10.01,26.08-14.9,39.09,104.87,260,240.57,524.73,389.72,793.58-7.47-29.21-15-58.29-22.58-87.28-131.67-253.77-253.52-502.52-352.24-745.39ZM829.32,1200.38c-5.02,11.96-10.05,23.94-14.79,35.83,96.48,238.03,215.32,481.75,343.94,730.34-7.38-28.04-14.82-55.96-22.29-83.79-112.23-233.14-217.63-460.91-306.86-682.38ZM846.53,1160.01c-4.96,11.32-9.79,22.61-14.53,33.87,86.58,215.35,188.56,436.7,297.29,663.15-7.61-28.17-15.28-56.18-22.96-84.13-93.06-209.81-181.72-414.42-259.8-612.89ZM862.43,1124.23c-4.43,9.83-8.77,19.63-13.08,29.43,74.76,190.35,159.3,386.33,248.18,587.19-7.15-25.81-14.34-51.51-21.54-77.09-75.04-184.8-147.48-364.88-213.57-539.53ZM876.57,1093.77c-3.81,8.02-7.64,16.05-11.29,24.03,61.61,162.97,128.78,330.71,198.46,502.61-6.22-21.97-12.45-43.96-18.69-65.76l-12.83-34.8c-53.68-145.55-106.12-287.71-155.65-426.09ZM888.22,1069.29c-2.9,6.08-5.8,12.14-8.66,18.2,46.73,130.6,96.06,264.58,146.59,401.63l-12.8-44.18c-22.97-69.26-45.82-137.73-68.34-205.23-19.17-57.46-38.14-114.27-56.79-170.41ZM896.54,1051.8c-1.77,3.68-3.47,7.35-5.26,11.05,19.17,57.72,38.67,116.15,58.4,175.27l24.57,73.66c-26.08-88.21-52.07-174.91-77.71-259.98ZM3999.11,6933.31c-171.31,133.18-393.26,270.71-673.35,413.77-279.94,142.99-618.08,291.56-1021.91,446.94h0c-1017.59,401.03-1375.62,674.69-1379.54,861.32-3.9,185.88,345.65,285.97,743.75,339.74l-.67,4.9c-400.41-54.07-751.98-155.42-748.01-344.73,3.96-188.55,362.81-463.9,1382.68-865.82h.02c403.53-155.25,741.53-303.77,1021.44-446.75,279.77-142.9,501.47-280.27,672.56-413.28l3.04,3.91ZM3061.71,4691.74c-31.56-21.74-63.3-43.58-95.21-65.51,17.38,24.58,34.39,49.16,50.99,73.74l53.75,34.62,45.77,29.48c-18.04-24.11-36.47-48.22-55.31-72.34ZM3170.79,4767.11c-31.63-21.94-63.52-43.97-95.6-66.09,18.28,23.57,36.2,47.14,53.7,70.7,33.33,21.48,66.48,42.85,99.38,64.12-18.77-22.91-37.93-45.81-57.48-68.74ZM3276.06,4840.49c-29.55-20.72-59.38-41.52-89.44-62.39,18.77,22.19,37.19,44.36,55.22,66.53,31.38,20.31,62.56,40.53,93.47,60.67-19.37-21.59-39.14-43.19-59.25-64.81ZM3373.83,4909.49c-25.93-18.43-52.09-36.91-78.47-55.46,18.93,20.54,37.51,41.06,55.76,61.57,28.11,18.33,56,36.61,83.65,54.81-19.95-20.29-40.27-40.59-60.94-60.92ZM3473.95,4981.36c-24.71-17.92-49.7-35.89-74.92-53.9,18.71,18.61,37.11,37.2,55.2,55.78,26.61,17.57,52.99,35.09,79.11,52.54-19.48-18.12-39.29-36.26-59.39-54.43ZM3564.33,5047.6c-17.8-13.19-35.75-26.41-53.86-39.65,16.31,14.97,32.42,29.92,48.28,44.86,20.37,13.67,40.56,27.3,60.57,40.91-18.1-15.36-36.44-30.73-55-46.13ZM3684.57,5138.41c-16.52-12.73-33.2-25.46-50.06-38.22,7.52,6.41,15.01,12.82,22.44,19.23,9.25,6.34,18.46,12.67,27.62,18.99ZM3477.05,4977.52l14.39,10.45c-8.65-6.98-17.34-13.97-26.07-20.97l11.69,10.52ZM3377.02,4905.7c20.85,14.82,41.54,29.62,62.05,44.38-14.53-12.94-29.2-25.88-44.01-38.84-20.46-16.07-41.14-32.17-61.99-48.3,14.8,14.27,29.46,28.51,43.94,42.76ZM3279.33,4836.76c24.17,16.94,48.15,33.83,71.94,50.68-18.1-17.61-36.45-35.24-55.04-52.88-22.35-17.15-44.9-34.34-67.63-51.57,17.15,17.93,34.07,35.86,50.73,53.77ZM3174.14,4763.43c28.74,19.94,57.28,39.8,85.59,59.6-18.46-19.66-37.2-39.33-56.23-59.02-27.26-20.57-54.77-41.21-82.51-61.91,18,20.45,35.73,40.89,53.15,61.32ZM3065.16,4688.12c31.2,21.5,62.22,42.91,93.01,64.24-18.5-21.53-37.33-43.08-56.45-64.64-29.72-22.13-59.68-44.34-89.84-66.62,18.08,22.35,35.84,44.68,53.29,67.01ZM2958.24,4614.56c31.24,21.47,62.33,42.84,93.23,64.12-18.16-23.1-36.68-46.21-55.51-69.33-29.51-21.78-59.23-43.64-89.1-65.58,17.44,23.6,34.59,47.19,51.38,70.78ZM1802.96,3772.9c-37.49-31.41-74.53-63.1-111.01-95.06,5.78,31.43,11.32,62.91,16.64,94.43,37.54,31.8,75.65,63.29,114.27,94.48-6.38-31.33-13.02-62.62-19.9-93.86ZM1920.34,3869.2c-37.41-30.08-74.46-60.41-111.06-91,6.83,31.12,13.4,62.3,19.72,93.51,37.68,30.36,75.85,60.44,114.42,90.24-7.41-30.96-15.13-61.87-23.08-92.76ZM2037.46,3961.7c-37.16-28.84-74.01-57.91-110.53-87.21,7.89,30.77,15.54,61.56,22.89,92.4,37.6,28.98,75.57,57.73,113.88,86.22-8.46-30.51-17.2-60.97-26.23-91.41ZM2154.85,4051.44c-37.11-27.95-74.01-56.11-110.62-84.49,8.96,30.31,17.62,60.66,26.01,91.04,37.76,28.03,75.81,55.83,114.11,83.4-9.53-30.01-19.37-60-29.5-89.95ZM2272.02,4138.56c-36.84-27.06-73.54-54.3-110.02-81.74,10.05,29.81,19.81,59.65,29.25,89.52,37.67,27.07,75.57,53.93,113.64,80.57-10.61-29.48-21.61-58.93-32.87-88.35ZM2387.82,4222.69c-36.17-26.02-72.27-52.2-108.22-78.56,11.14,29.25,22.01,58.52,32.51,87.83,37.11,25.93,74.37,51.66,111.74,77.2-11.69-28.85-23.66-57.67-36.03-86.46ZM2503.46,4305.12c-35.96-25.42-71.88-51-107.73-76.74,12.23,28.62,24.11,57.27,35.67,85.94,37.08,25.31,74.28,50.44,111.5,75.39-12.78-28.21-25.96-56.41-39.44-84.58ZM2618.22,4385.73c-35.4-24.71-70.84-49.57-106.24-74.58,13.33,27.97,26.38,55.96,39.01,83.97,36.64,24.53,73.34,48.89,110.01,73.1-13.87-27.51-28.17-55-42.78-82.48ZM2731.7,4464.55c-34.79-24.07-69.65-48.26-104.55-72.6,14.4,27.22,28.42,54.45,42.09,81.7,36.15,23.83,72.3,47.51,108.39,71.04-8.1-14.48-16.26-28.96-24.58-43.43-7.04-12.24-14.16-24.48-21.35-36.7ZM2843.7,4541.8c-34.03-23.42-68.18-46.95-102.4-70.61,5.38,9.21,10.73,18.4,16.02,27.61,9.9,17.22,19.61,34.45,29.2,51.68,35.55,23.16,71.02,46.19,106.4,69.08-16.01-25.92-32.43-51.84-49.21-77.76ZM2937.65,4606.41l-83.37-57.32c16.45,25.56,32.53,51.11,48.22,76.68,34.93,22.59,69.74,45.05,104.39,67.39-16.99-24.99-34.36-49.99-52.14-74.99l-17.11-11.76ZM2847.3,4538.29l93.13,64.04,5.89,4.05c-17.3-24.15-34.93-48.32-52.92-72.48l-84.84-62.25-10.4-7.63c16.71,24.76,33.09,49.51,49.14,74.27ZM2735.4,4461.12c33.84,23.41,67.61,46.7,101.27,69.87-16.44-25.22-33.23-50.42-50.34-75.64-32.35-23.72-64.83-47.56-97.39-71.5,15.81,25.75,31.31,51.51,46.46,77.27ZM2622.03,4382.36c34.6,24.15,69.17,48.17,103.68,72.06-15.45-26.12-31.24-52.24-47.37-78.36-33.17-24.39-66.43-48.9-99.72-73.53,14.79,26.6,29.24,53.21,43.41,79.83ZM2507.58,4301.99c35.17,24.86,70.35,49.57,105.51,74.13-14.39-26.91-29.03-53.81-44.06-80.69-33.94-25.12-67.91-50.37-101.88-75.75,13.79,27.42,27.26,54.85,40.43,82.31ZM2392.03,4219.63c35.61,25.6,71.29,51.03,107.01,76.32-13.33-27.69-26.98-55.37-40.94-83.03-34.44-25.76-68.88-51.66-103.25-77.71,12.7,28.12,25.08,56.26,37.19,84.43ZM2276.28,4135.56c35.82,26.3,71.79,52.43,107.84,78.38-12.26-28.39-24.77-56.76-37.65-85.1-34.83-26.43-69.61-53-104.25-79.75,11.65,28.8,23.02,57.61,34.07,86.46ZM2159.2,4048.54c36.31,27.34,72.81,54.49,109.48,81.45-11.17-29.04-22.65-58.05-34.42-87.04-35.42-27.37-70.71-54.91-105.83-82.63,10.52,29.38,20.79,58.78,30.77,88.22ZM2041.89,3958.9c36.45,28.29,73.2,56.37,110.15,84.25-10.07-29.59-20.42-59.17-31.05-88.71-35.75-28.26-71.3-56.72-106.62-85.36,9.43,29.9,18.6,59.84,27.51,89.82ZM1924.82,3866.47c36.44,29.28,73.21,58.34,110.3,87.17-9-30.13-18.24-60.21-27.77-90.27-35.89-29.17-71.52-58.54-106.83-88.12,8.35,30.37,16.45,60.77,24.3,91.21ZM1807.53,3770.3c36.48,30.54,73.39,60.83,110.7,90.87-7.93-30.58-16.1-61.12-24.52-91.61-36.12-30.32-71.89-60.86-107.26-91.63,7.26,30.74,14.28,61.53,21.08,92.37ZM1690.5,3670.03c36.39,31.93,73.31,63.58,110.71,94.97-6.85-30.96-13.94-61.86-21.25-92.71-16.77-14.62-33.45-29.3-50.03-44.02-19.27-17.12-38.37-34.35-57.36-51.61,6.19,31.07,12.17,62.2,17.94,93.38ZM866.09,986.84c2.23-4.72,4.33-9.4,6.59-14.12l-16.5-54.6-3.34-11.06c-2.58,5.54-5.06,11.07-7.56,16.6l20.82,63.19ZM853.49,1014.18c3.16-6.93,6.36-13.85,9.58-20.78-6.97-21.1-13.9-42.1-20.76-63-3.42,7.69-6.79,15.38-10.15,23.07,7.03,20.14,14.15,40.39,21.33,60.71ZM838.69,1046.78c3.83-8.69,7.83-17.43,11.84-26.17-7.17-20.26-14.26-40.43-21.28-60.52-4.1,9.38-8.19,18.76-12.1,28.1,7.09,19.46,14.27,38.99,21.54,58.59ZM822.53,1084.5c4.37-10.35,8.82-20.73,13.33-31.12-7.25-19.53-14.41-38.98-21.49-58.37-4.51,10.95-8.95,21.87-13.3,32.77,7.04,18.85,14.19,37.76,21.45,56.72ZM805.31,1126.37c4.71-11.76,9.48-23.54,14.42-35.36-7.24-18.88-14.38-37.7-21.4-56.46-4.85,12.32-9.48,24.58-14.08,36.84,6.9,18.28,13.91,36.61,21.06,54.97ZM788.18,1169.82c4.61-12.18,9.55-24.46,14.47-36.72-7.12-18.26-14.13-36.48-21.01-54.66-4.75,12.69-9.48,25.36-13.9,37.97,6.66,17.77,13.5,35.58,20.44,53.41ZM771.21,1216.54c4.67-13.19,9.47-26.42,14.41-39.68-6.92-17.72-13.73-35.4-20.38-53.05-4.69,13.51-9.28,27-13.66,40.44,6.41,17.42,12.93,34.83,19.64,52.29ZM754.19,1266.59c4.68-14.28,9.41-28.57,14.44-42.94-6.69-17.33-13.18-34.63-19.58-51.92-4.72,14.73-9.07,29.38-13.45,44.02,6.04,16.93,12.23,33.88,18.59,50.84ZM738.38,1316.73c4.28-14.17,8.69-28.38,13.32-42.63-6.33-16.81-12.48-33.61-18.51-50.4-4.27,14.53-8.27,29-12.17,43.43,5.62,16.53,11.41,33.06,17.36,49.59ZM723.35,1368.67c3.99-14.58,8.25-29.21,12.63-43.89-5.93-16.34-11.68-32.69-17.29-49.03-3.97,14.91-7.76,29.79-11.33,44.6,5.16,16.12,10.49,32.22,15.98,48.33ZM709.45,1421.81c3.62-14.73,7.57-29.54,11.59-44.38-5.47-15.85-10.76-31.72-15.91-47.57-3.56,15.07-7.01,30.1-10.17,45.06,4.65,15.64,9.5,31.27,14.49,46.89ZM696.94,1475.73c3.18-14.67,6.69-29.43,10.25-44.21-4.94-15.28-9.78-30.56-14.4-45.86-3.08,14.89-6.07,29.78-8.74,44.57,4.11,15.19,8.43,30.35,12.88,45.5ZM686.32,1528.9c2.63-14.13,5.49-28.32,8.45-42.54-4.41-14.77-8.58-29.58-12.67-44.39-2.47,14.08-4.93,28.14-7.03,42.12,3.61,14.95,7.29,29.9,11.25,44.8ZM676.27,1587.79c2.44-15.79,5-31.62,7.88-47.53-3.81-14.07-7.44-28.16-10.95-42.28-2.3,16.17-4.53,32.32-6.38,48.37,2.97,13.84,6.17,27.65,9.45,41.44ZM669.54,1636.24c1.48-11.61,2.94-23.22,4.63-34.88-3.08-12.6-6.19-25.18-9.02-37.82-1.13,11.15-2.33,22.32-3.28,33.42,2.36,13.14,5.03,26.21,7.67,39.28ZM663.61,1689.26c1.18-12.2,2.31-24.38,3.76-36.65-2.53-12-4.74-24.08-7.03-36.12-.87,11.88-1.64,23.72-2.28,35.54,1.82,12.41,3.47,24.87,5.55,37.23ZM658.93,1747.09c.82-12.93,1.66-25.87,2.79-38.89-1.68-9.41-3.4-18.8-4.94-28.23-.59,14.17-1.07,28.32-1.25,42.4,1,8.27,2.29,16.47,3.4,24.72ZM656.76,1787.24c.18-4.38.21-8.73.43-13.13-.56-3.68-.98-7.39-1.52-11.07.06,4.67-.02,9.38.07,14.04.29,3.4.71,6.76,1.02,10.15ZM1453.53,3456.41c-417.34-412.91-726.05-873.46-787.25-1404.79,27.74,577.3,349.17,1067.8,798.02,1500.46-3.4-31.95-6.98-63.84-10.77-95.67ZM1569.26,3567.18c-37.39-34.7-74.14-69.69-110.02-105.07,3.75,31.71,7.27,63.49,10.65,95.31,10.3,9.89,20.58,19.79,31,29.62,26.96,25.41,54.36,50.63,82.15,75.65-4.38-31.89-8.98-63.72-13.78-95.51ZM1593.56,3589.71c-6.19-5.68-12.28-11.4-18.44-17.09,4.76,31.7,9.31,63.44,13.66,95.25,37.28,33.47,75.26,66.6,113.87,99.4-5.37-31.64-10.97-63.22-16.79-94.75-31.19-27.39-61.97-54.99-92.31-82.8ZM1573.95,3564.81c7.64,7.09,15.23,14.2,22.93,21.26,28.79,26.39,57.99,52.59,87.54,78.6-5.81-31.3-11.85-62.53-18.09-93.73-36.3-33.09-72.05-66.45-107.19-100.09,5.12,31.25,10.06,62.57,14.81,93.95ZM1458.29,3454.19c35.82,35.42,72.48,70.46,109.81,105.18-4.79-31.47-9.78-62.87-14.94-94.22-36.21-34.75-71.79-69.79-106.59-105.17,4.1,31.34,7.98,62.75,11.73,94.21ZM664.35,1970.06c37.4,562.66,353.09,1046.67,788.22,1478.42-3.77-31.56-7.72-63.05-11.84-94.48-405.49-413.47-708.93-869.87-776.43-1390.31,0,2.13.05,4.24.05,6.37ZM660.64,1866.7c.02,3.06-.04,6.15,0,9.21.2,2.72.37,5.45.59,8.16.15-3.01.37-6.05.53-9.07l-1.12-8.3ZM661.56,1801.3c-.27,8.47-.67,16.99-.83,25.44.8,6.91,1.73,13.79,2.65,20.68.58-8.17,1.29-16.37,2.02-24.58-1.29-7.18-2.64-14.34-3.85-21.54ZM665.45,1728.24c-1.15,14.97-2.21,29.91-2.95,44.76,1.48,9.86,3.07,19.7,4.76,29.51,1.34-13.82,2.85-27.68,4.52-41.59-2.26-10.86-4.27-21.78-6.33-32.68ZM670.94,1668.62c-1.41,13.06-2.76,26.11-3.89,39.1,2.17,12.19,4.43,24.35,6.81,36.49,1.68-13.01,3.52-26.06,5.5-39.15-2.88-12.13-5.75-24.27-8.42-36.44ZM677.56,1615.61c-1.7,12.27-3.43,24.56-4.88,36.76,2.74,12.96,5.79,25.86,8.84,38.76,1.97-12.42,4.01-24.85,6.25-37.34-3.51-12.71-7-25.42-10.22-38.18ZM687.47,1552.24c-2.85,16.37-5.6,32.72-7.99,48.96,3.35,13.66,6.85,27.3,10.5,40.91,2.96-15.96,6.08-31.96,9.49-48.03-4.16-13.92-8.13-27.87-12-41.83ZM698.02,1496.82c-3,14.51-5.95,29.01-8.56,43.41,3.97,14.59,7.97,29.16,12.25,43.71,3.16-14.52,6.37-29.07,9.89-43.69-4.7-14.46-9.17-28.94-13.58-43.43ZM710.31,1441.16c-3.58,15.12-7.05,30.21-10.21,45.23,4.46,14.88,9.08,29.73,13.85,44.57,3.69-15.01,7.41-30.02,11.47-45.13-5.19-14.88-10.23-29.77-15.11-44.66ZM724.05,1386.31c-4.03,15.14-7.91,30.25-11.52,45.28,4.94,15.23,10.08,30.45,15.33,45.68,4.08-14.88,8.34-29.8,12.78-44.77-5.66-15.4-11.22-30.79-16.58-46.19ZM738.93,1332.99c-4.38,14.9-8.56,29.76-12.56,44.56,5.39,15.6,10.96,31.19,16.64,46.79,4.37-14.45,9.08-29.01,13.83-43.56-6.12-15.92-12.09-31.86-17.91-47.78ZM754.58,1281.82c-4.62,14.43-8.98,28.78-13.25,43.12,5.84,16.06,11.82,32.12,17.95,48.18,4.6-13.97,9.47-28.02,14.42-42.08-6.52-16.42-12.89-32.82-19.12-49.21ZM771.45,1230.88c-5.03,14.54-9.71,28.98-14.39,43.42,6.24,16.52,12.59,33.06,19.11,49.62,4.96-14.03,10.1-28.09,15.4-42.21-6.83-16.96-13.55-33.91-20.12-50.83ZM788.45,1184.1c-4.94,13.29-9.81,26.55-14.45,39.75,6.57,17,13.31,34.02,20.16,51.05,4.91-12.96,9.77-25.9,14.94-38.93-7.01-17.33-13.88-34.61-20.65-51.88ZM805.39,1140.09c-4.91,12.35-9.77,24.7-14.38,36.98,6.82,17.44,13.73,34.9,20.79,52.39,4.79-11.91,9.77-23.87,14.79-35.84-7.18-17.88-14.23-35.72-21.2-53.53ZM822.35,1097.85c-4.93,11.88-9.61,23.69-14.31,35.51,6.98,17.86,14.05,35.77,21.23,53.72,4.74-11.21,9.66-22.46,14.64-33.74-7.28-18.55-14.47-37.05-21.56-55.49ZM838.43,1060.31c-4.51,10.35-8.97,20.71-13.29,31.02,7.1,18.5,14.3,37.06,21.59,55.66,4.36-9.84,8.67-19.67,13.13-29.54-7.23-19.12-14.37-38.16-21.43-57.15ZM852.95,1027.47c-3.97,8.77-7.87,17.52-11.7,26.25,7.08,19.04,14.23,38.15,21.47,57.33,3.67-7.97,7.58-16,11.42-24.02-7.13-19.94-14.2-39.79-21.2-59.56ZM865.4,1000.47c-3.19,6.87-6.37,13.73-9.48,20.58,7.02,19.82,14.09,39.72,21.23,59.69l8.76-18.41-20.51-61.87ZM874.86,979.94c-2.17,4.66-4.25,9.29-6.44,13.96l20.54,61.99c1.82-3.75,3.57-7.47,5.42-11.23l-19.52-64.72ZM1561.03,3.35c-315.71,344.85-538.22,667.3-683.01,969.95l19.6,64.97C1057.15,716.19,1302.75,371.13,1652.14,0l3.59,3.38c-350.76,372.59-596.81,718.85-756,1041.91,38.97,129.27,78.78,262.29,118.48,398.67,24.12,72.72,48.38,146.27,72.63,220.77,26.84,73,53.83,146.73,80.8,221.26,29.79,73.4,59.74,147.41,89.64,222.12,32.81,73.52,65.75,147.54,98.57,222.14,32.19,65.83,64.42,131.98,96.53,198.53,37.57,70.42,75.15,141.15,112.51,212.22,42.25,72.9,84.43,146.05,126.25,219.44,39.72,63.3,79.34,126.72,118.54,190.27,45.35,66.92,90.45,133.9,135.01,200.98,47.46,65.05,94.55,130.1,140.95,195.18,48.91,62.46,97.34,124.89,144.96,187.28,49.89,59.5,99.17,118.92,147.57,178.26,58.5,65.31,116.09,130.46,172.31,195.48,46.34,48.65,92,97.18,136.77,145.61,61.03,60.01,120.84,119.78,178.98,179.37,63.73,59.17,125.95,118.06,186.16,176.74,53.52,47.05,105.82,93.9,156.65,140.59,63.6,52.64,125.41,105,184.99,157.13,58.2,45.69,114.76,91.15,169.35,136.42,66.39,49.23,130.53,98.14,191.91,146.82,84.24,59.4,164.51,118.3,239.78,176.88l-3.04,3.91c-54.43-42.36-111.48-84.89-170.75-127.65,61.28,50.11,119.44,100.02,173.93,149.8l-3.32,3.65c-73.56-67.2-153.81-134.62-239.42-202.51-21.89-15.44-44.03-30.9-66.44-46.4,115.84,101.59,220.28,202.45,309.36,303.19l-3.69,3.27c-97.26-109.99-212.89-220.17-341.75-331.31-24.24-16.62-48.75-33.29-73.53-49.99,171.6,163.47,316.1,325.48,419.2,488.15l-4.17,2.65c-107.12-169.02-259.08-337.38-439.81-507.47-28.16-18.91-56.64-37.88-85.4-56.92,271.99,282.05,469.91,560.87,529.7,845.46l-4.83,1c-60.7-288.93-264.64-572.21-544.09-859.16-28.93-19.1-58.13-38.26-87.58-57.5,171.02,193.89,309.82,386.72,398.18,580.86,318.9,700.71-18.71,1417.55-1867.02,2259.96-623.04,312.08-982.42,560.92-1157.56,759.27-68.11,77.13-108.29,146.59-125.22,209.09-16.87,62.23-10.65,117.59,13.96,166.79,16.31,32.62,40.73,62.6,71.87,90.14l-3.27,3.69c-31.59-27.93-56.39-58.41-73-91.61-25.16-50.31-31.54-106.84-14.34-170.3,17.13-63.19,57.66-133.31,126.31-211.06,175.53-198.78,535.41-448.03,1159.11-760.44l.08-.04c1844.87-840.83,2182.27-1555.41,1864.6-2253.42-90.17-198.14-233.11-395.01-409.32-593.11-31.76-20.73-63.82-41.53-96.09-62.44,137.02,169.8,251.37,339.09,332.29,509.14,356.81,749.9,64.67,1513.81-1791.7,2398.4h0c-361.97,191.8-633.45,360.76-830.51,509.56-202.59,152.98-326.46,284.59-389.09,397.77-62.34,112.65-63.92,206.98-22.15,285.92,6.96,13.15,15.16,25.93,24.48,38.29l-3.95,2.97c-9.45-12.53-17.78-25.53-24.9-38.96-42.55-80.42-41.05-176.33,22.21-290.63,62.95-113.77,187.25-245.9,390.42-399.32,197.24-148.93,468.96-318.05,831.27-510.03l.08-.05c1852.91-882.93,2144.91-1644.56,1789.36-2391.8-82.6-173.59-200.11-346.45-341.13-519.88-33.52-21.69-67.31-43.49-101.3-65.4,103,139.6,191.93,279.03,261.56,418.85,401.19,805.64,162.74,1623.51-1708.67,2556.79-502.82,281.55-827.95,515.82-1020.01,710.7-220.84,224.08-265.45,395.75-202.04,527.17l-4.44,2.14c-64.33-133.33-19.64-306.91,202.96-532.77,192.4-195.22,517.92-429.81,1021.21-711.62l.11-.06c1867.93-931.55,2106.34-1747.12,1706.44-2550.15-71.23-143.05-162.74-285.73-268.86-428.61l-56.88-36.64-44.12-28.42c66.77,99.48,126.98,198.95,178.96,298.59,454.3,870.73,281.68,1752.36-1615.52,2743.68-470.35,277.99-782.47,511.69-974.15,708.12-218.52,223.92-280.31,399.12-241.66,536.14l-4.75,1.34c-39.13-138.69,22.93-315.53,242.88-540.92,191.98-196.72,504.43-430.69,975.18-708.92l.11-.06c1893.85-989.54,2066.52-1868.9,1613.55-2737.09-53.54-102.63-115.84-205.11-185.05-307.61-35.02-22.57-70.21-45.25-105.5-68.07,29.44,48.26,57.45,96.54,83.89,144.85,518.43,947.27,429.24,1905.18-1506.76,2966.32-441.32,275.05-740.84,508.38-930.89,706.28-215.05,223.93-289.78,402.28-271.22,544.25l-4.9.64c-18.75-143.42,56.34-323.16,272.56-548.3,190.33-198.19,490.16-431.79,931.84-707.05l.12-.06c1932.64-1059.25,2022-2014.89,1504.92-2959.69-28.01-51.16-57.79-102.3-89.16-153.41-35.69-23.09-71.49-46.3-107.36-69.66,563.94,1020.73,548.04,2054.93-1408.2,3181.1-415.16,272.62-702.56,505.75-890.04,705.07-210.76,224.05-295.17,405.23-292.97,551.67l-4.93.05c-2.23-147.66,82.57-330.01,294.3-555.1,187.74-199.6,475.43-432.98,890.93-705.83l.13-.07c1958.05-1127.17,1969.17-2161.59,1402.03-3182.6-36.35-23.69-72.75-47.53-109.18-71.52,522.25,1047.29,486.29,2114.79-1392.62,3252.43-391.39,270.61-667.11,503.65-851.34,704.33-205.92,224.3-297.49,408.04-308.62,558.5l-4.94-.35c11.22-151.53,103.18-336.28,309.92-561.49,184.48-200.96,460.49-434.26,852.23-705.1l.13-.08c1880.11-1138.33,1911.98-2206.12,1386.99-3253.66-36.82-24.28-73.66-48.72-110.45-73.32,481.52,1074.23,426.47,2175.46-1376.14,3325.21-369.76,268.95-634.3,502.06-814.82,704.08-200.73,224.63-297.53,410.74-319.59,564.89l-4.89-.7c22.19-155.06,119.37-342.05,320.81-567.48,180.75-202.28,445.55-435.64,815.6-704.8l.12-.08c1803.26-1150.11,1854.76-2251.8,1370.82-3326.55-37.44-25.07-74.83-50.31-112.13-75.74,441.92,1102.07,369.19,2237.9-1358.22,3400.45-321.86,246.16-562.41,463.27-736.22,654.75-173.68,191.35-280.72,357.07-335.64,500.62l-4.62-1.75c55.13-144.09,162.48-310.35,336.61-502.19,174.01-191.7,414.78-409,736.89-655.36l.13-.09c1727.86-1162.79,1797.54-2299.07,1353.52-3401.57-37.55-25.64-75-51.46-112.29-77.49,402.55,1130.36,312.13,2301.35-1340.72,3477.2-257.31,206.82-461.58,393.76-620.61,562.75-158.97,168.94-272.74,319.95-349.08,454.96l-4.29-2.44c76.52-135.33,190.53-286.66,349.77-455.89,159.19-169.17,363.66-356.29,621.19-563.28l.12-.09c1653.12-1176.03,1740.91-2347.46,1336.5-3478.18-38.19-26.7-76.2-53.59-113.99-80.7,364.34,1159.54,257.49,2366.77-1321.83,3556.9-212.06,179.05-387.32,343.6-530.35,494.86-143.01,151.23-253.9,289.29-337.21,415.31l-4.11-2.73c83.42-126.17,194.49-264.45,337.75-415.95,143.25-151.49,318.64-316.19,530.74-495.26l.12-.09c1579.64-1190.33,1684.05-2398.05,1318-3557.98-38.44-27.63-76.62-55.49-114.52-83.58,326.72,1189.55,203.96,2434.17-1302.68,3639.48-175.28,155.38-324.86,300.17-451.49,435.16-126.62,134.96-230.32,260.12-313.86,376.22l-4-2.88c83.67-116.28,187.51-241.61,314.26-376.71,126.72-135.08,276.4-279.98,451.81-435.47l.1-.08c1506.92-1205.5,1627.57-2450.65,1299.3-3640.59-38.38-28.51-76.44-57.26-114.13-86.27,289.15,1220.25,150.2,2503.35-1284.29,3724.69-143.55,133.58-269.57,259.57-379.52,378.37-109.93,118.77-203.96,230.52-283.56,335.62l-3.95-2.98c79.59-105.09,173.73-216.96,283.9-335.98,110.15-119.01,236.25-245.09,379.77-378.64l.08-.07c1434.77-1221.53,1571.79-2505.24,1281.23-3725.9-38.68-29.84-76.95-59.96-114.75-90.35,252.17,1252.13,97.68,2575.42-1265.54,3814.05-115.67,112.94-219.6,220.6-312.74,323.26-93.15,102.66-175.51,200.32-248.03,293.26l-3.89-3.04c72.63-93.06,155.06-190.83,248.27-293.54,93.19-102.7,197.2-210.44,313.01-323.52l.06-.06c1363.46-1238.84,1516.19-2562.79,1262.71-3815.36-38.72-31.21-76.93-62.72-114.56-94.54,215.46,1285.14,45.38,2650.41-1247.06,3907.57-90.42,92.64-173.52,181.83-249.8,267.74-76.22,85.84-145.62,168.42-208.74,247.89l-3.87-3.08c63.13-79.49,132.61-162.14,208.92-248.1,76.26-85.89,159.41-175.14,249.97-267.9l.04-.04c1292.74-1257.43,1461.28-2623.48,1244.61-3909.09-38.69-32.8-76.75-65.93-114.12-99.4,178.86,1319.44-7.12,2728.9-1229.29,4006.05-67.37,72.39-130.63,142.75-189.94,211.11-59.33,68.37-114.73,134.78-166.34,199.22l-3.84-3.09c51.67-64.51,107.11-130.96,166.45-199.37,59.35-68.4,122.65-138.81,190.06-211.24l.03-.03c1222.52-1277.48,1407.12-2687.82,1227.13-4007.78-29.3-26.32-58.16-52.87-86.54-79.63-9.02-8.5-17.9-17.07-26.82-25.62,142.26,1355.23-60.06,2811.62-1212.49,4110.48-46.21,52.1-90.43,103.2-132.77,153.35-42.32,50.13-82.68,99.2-121.22,147.27l-3.84-3.09c38.66-48.22,79.04-97.33,121.29-147.37,42.23-50.02,86.46-101.14,132.85-153.43,1152.82-1299.3,1353.91-2756.68,1210.58-4112.54-473.1-454.83-806.03-973.43-806.03-1589.33-2.06-31.08-3.37-62.36-3.71-93.92-2.53-32.66-4.28-65.53-4.91-98.7-3.1-35.91-4.91-72.12-5.74-108.59-4.71-52.81-7.12-106.15-6.94-160.09-1.74-27.86-2.91-55.83-3.34-83.97-2.21-27.51-3.87-55.13-4.81-82.87-5.6-56.7-8.49-113.85-8.46-171.49-1.69-25.15-2.71-50.39-3.25-75.69-3.75-41.52-5.96-83.22-6.7-125.09-3.39-39.34-5.43-78.77-6.14-118.32-3.3-38.15-5.32-76.36-6.16-114.62-3.38-37.63-5.48-75.26-6.51-112.89-4.33-45.73-6.95-91.38-7.87-136.95-3.07-34.89-5.21-69.69-6.33-104.37-3.97-39.94-6.68-79.66-8.12-119.15-5-47.72-8.32-95.01-9.8-141.86-4.08-40.32-6.99-80.24-8.58-119.71l-.02-.12h.01v-.17s2.44-.1,2.44-.1l2.46-.27.02.18h0v.09c1,8.98,2.06,17.99,3.16,27.02.16-7.81.41-15.6.68-23.39l-.56-3.21.65-.11v-.39s1.9.07,1.9.07l2.31-.39.08.48.64.02-.09,3.18c2.94,17.2,6.04,34.52,9.34,51.96,1.09-12.88,2.38-25.72,3.77-38.55l-3.5-16.16,4.83-1.03.38,1.72.16-1.5,4.91.58c-.65,5.37-1.18,10.76-1.78,16.14,4.11,18.79,8.4,37.75,12.84,56.85,2.07-13.45,4.36-26.88,6.84-40.28-2.71-10.86-5.38-21.67-8.01-32.42l4.79-1.16,5.43,22.07c1.39-7.33,2.73-14.67,4.24-21.98l4.83.99c-2.22,10.78-4.27,21.56-6.24,32.36,4.88,19.55,9.87,39.28,15.01,59.19,6.92-30.95,14.78-61.86,23.72-92.73l4.74,1.38c-9.81,33.94-18.32,67.94-25.71,101.99,5.36,20.67,10.85,41.53,16.47,62.58,14.06-55.36,31.12-110.74,51.58-166.11l4.63,1.7c-21.44,58.05-39.19,116.09-53.61,174.13,5.52,20.63,11.16,41.43,16.91,62.4,22.37-79.2,50.98-158.66,86.45-238.4l4.51,2.01c-36.52,82.1-65.82,163.92-88.45,245.48,5.72,20.78,11.55,41.74,17.47,62.86,31.76-102.69,73.9-206.16,127.6-310.47l4.39,2.26c-54.83,106.49-97.62,212.11-129.54,316.94,5.9,20.99,11.91,42.15,18,63.47,42.12-125.95,99.54-253.47,174.42-382.77l4.27,2.48c-76.06,131.34-134.07,260.87-176.26,388.77,6.12,21.33,12.31,42.82,18.6,64.45C776.69,307.09,851.25,155.26,950,.36l4.15,2.65c-99.99,156.85-175.04,310.57-228.28,461.46,5.9,20.27,11.88,40.67,17.91,61.2C808.76,354.91,901.15,179.94,1025.27.29l4.06,2.81c-125.33,181.43-218.32,358.11-283.22,530.48,6.59,22.36,13.25,44.89,19.98,67.56C843.42,407.15,955.64,207.07,1108.41.22l3.96,2.93c-154.06,208.61-266.72,410.33-343.93,605.87,6.4,21.52,12.86,43.18,19.38,64.97C878,457.94,1010.56,233.67,1193.06.17l3.89,3.04c-183.8,235.14-316.88,460.94-406.85,678.4l18.74,62.43C912.26,507.12,1066.14,259.54,1279.05.12l3.8,3.13c-214.21,261.02-368.56,510.05-471.76,748.29l20.26,67.24C948.41,559.81,1124.31,287.45,1370.19.08l3.75,3.21c-247.25,288.98-423.55,562.72-540.34,822.96l20.21,66.9C984.79,612.54,1183.53,315.55,1463.38.05l3.68,3.28c-281.2,317-480.4,615.3-611.08,897.06l4.93,16.3,14.96,49.53C1021,664.6,1243.03,343.41,1557.4.03l3.63,3.33Z"/>
    </clipPath>
    <linearGradient id="linear-gradient" x1="2137.41" y1="6516.21" x2="1926.12" y2="2129.96" gradientUnits="userSpaceOnUse">
      <stop offset="0" stop-color="#fc67fa"/>
      <stop offset=".47" stop-color="#ffd4f7"/>
      <stop offset="1" stop-color="#39d5ff"/>
    </linearGradient>
  </defs>
  <rect class="cls-3" x="2.31" y="1.69" width="3995.27" height="8995.84"/>
  <g class="cls-4">
    <rect class="cls-1" width="4080.58" height="9000"/>
  </g>
</svg>