<svg id="Gradient" height="512" viewBox="0 0 512 512" width="512" xmlns="http://www.w3.org/2000/svg" xmlns:xlink="http://www.w3.org/1999/xlink"><linearGradient id="linear-gradient" gradientUnits="userSpaceOnUse" x1="256" x2="256" y1="496" y2="16"><stop offset="0" stop-color="#12bee5"/><stop offset=".5" stop-color="#c071e9"/><stop offset="1" stop-color="#f24f5a"/></linearGradient><path d="m488 64a8 8 0 0 0 8-8v-32a8 8 0 0 0 -8-8h-464a8 8 0 0 0 -8 8v32a8 8 0 0 0 8 8h8v248h-8a8 8 0 0 0 -8 8v32a8 8 0 0 0 8 8h212.686l-122.343 122.343a8 8 0 0 0 11.314 11.314l130.343-130.344 130.343 130.344a8 8 0 0 0 11.314-11.314l-122.343-122.343h212.686a8 8 0 0 0 8-8v-32a8 8 0 0 0 -8-8h-8v-248zm-456-32h448v16h-448zm448 312h-448v-16h448zm-16-32h-416v-248h416zm-336-104a64 64 0 1 0 -64-64 64.072 64.072 0 0 0 64 64zm8-111.321a47.859 47.859 0 0 1 23.936 11.527l-23.936 19.149zm-16 0v47.321a8 8 0 0 0 13 6.247l36.943-29.555a47.991 47.991 0 1 1 -49.943-24.013zm88-.679a8 8 0 0 1 8-8h224a8 8 0 0 1 0 16h-224a8 8 0 0 1 -8-8zm0 32a8 8 0 0 1 8-8h224a8 8 0 0 1 0 16h-224a8 8 0 0 1 -8-8zm0 32a8 8 0 0 1 8-8h224a8 8 0 0 1 0 16h-224a8 8 0 0 1 -8-8zm0 32a8 8 0 0 1 8-8h224a8 8 0 0 1 0 16h-224a8 8 0 0 1 -8-8zm-32 40h-96a8 8 0 0 0 -8 8v32a8 8 0 0 0 8 8h96a8 8 0 0 0 8-8v-32a8 8 0 0 0 -8-8zm-8 32h-80v-16h80zm40 16h96a8 8 0 0 0 8-8v-32a8 8 0 0 0 -8-8h-96a8 8 0 0 0 -8 8v32a8 8 0 0 0 8 8zm8-32h80v16h-80zm216-16h-96a8 8 0 0 0 -8 8v32a8 8 0 0 0 8 8h96a8 8 0 0 0 8-8v-32a8 8 0 0 0 -8-8zm-8 32h-80v-16h80z" fill="url(#linear-gradient)"/></svg>