<svg id="Gradient" height="512" viewBox="0 0 512 512" width="512" xmlns="http://www.w3.org/2000/svg" xmlns:xlink="http://www.w3.org/1999/xlink"><linearGradient id="linear-gradient" gradientUnits="userSpaceOnUse" x1="256" x2="256" y1="496" y2="16"><stop offset="0" stop-color="#12c2e9"/><stop offset=".5" stop-color="#c471ed"/><stop offset="1" stop-color="#f64f59"/></linearGradient><path d="m24 496h464a8 8 0 0 0 8-8v-192a40.051 40.051 0 0 0 -24-36.65v-139.35a104 104 0 0 0 -208 0v139.35a40.051 40.051 0 0 0 -24 36.65v104h-24v-40a8 8 0 0 0 -8-8h-96v-16h32a8 8 0 0 0 8-8v-48a8 8 0 0 0 -8-8h-80a8 8 0 0 0 -8 8v48a8 8 0 0 0 8 8h32v16h-32a8 8 0 0 0 -8 8v40h-32a8 8 0 0 0 -8 8v80a8 8 0 0 0 8 8zm48-208h64v32h-64zm408 192h-448v-16h448zm-145.758-208-12.8 64h-15.684l12.8-64zm83.2 0 12.8 64h-15.684l-12.8-64zm62.558 176h-32v-80h32zm-132-163.227a23.841 23.841 0 0 0 12 3.227h16a23.841 23.841 0 0 0 12-3.227l10.242 51.227h-60.484zm84 67.227v96h-128v-96zm-64-128a56.064 56.064 0 0 1 -56-56v-42.234l85.839-28.613 26.161 26.16v44.687a56.064 56.064 0 0 1 -56 56zm0 16a71.947 71.947 0 0 0 16-1.814v25.814a8.009 8.009 0 0 1 -8 8h-16a8.009 8.009 0 0 1 -8-8v-25.814a71.947 71.947 0 0 0 16 1.814zm-80 208h-32v-80h32zm192-152v56h-32v-8a8.035 8.035 0 0 0 -.156-1.569v-.013l-.011-.055-14.075-70.363h22.242a24.027 24.027 0 0 1 24 24zm-80-40v-23.528a72.37 72.37 0 0 0 35.938-40.672 39.784 39.784 0 0 0 20.062-7.822v72.022zm40-88v-38.624a23.994 23.994 0 0 1 -.325 45.358c.206-2.218.325-4.462.325-6.734zm-72-136a88.1 88.1 0 0 1 88 88v.022a39.789 39.789 0 0 0 -20.526-7.862l-29.817-29.817a8 8 0 0 0 -8.187-1.932l-94.87 31.625a39.782 39.782 0 0 0 -22.6 7.986v-.022a88.1 88.1 0 0 1 88-88zm-71.675 142.734a23.994 23.994 0 0 1 -.325-45.358v38.624c0 2.272.119 4.516.325 6.734zm-16.325 9.244a39.784 39.784 0 0 0 20.062 7.826 72.37 72.37 0 0 0 35.938 40.668v23.528h-56zm0 88.022h22.242l-14.073 70.363-.011.055v.013a8.035 8.035 0 0 0 -.158 1.569v8h-32v-56a24.027 24.027 0 0 1 24-24zm-208 96h128v32h-128zm168 48v32h-208v-32zm104-264a8 8 0 1 1 -8-8 8 8 0 0 1 8 8zm64 0a8 8 0 1 1 -8-8 8 8 0 0 1 8 8z" fill="url(#linear-gradient)"/></svg>