<svg id="Capa_1" enable-background="new 0 0 496.286 496.286" height="512" viewBox="0 0 496.286 496.286" width="512" xmlns="http://www.w3.org/2000/svg"><g><path d="m495.634 245.074c-49.928-110.988-141.913-185.431-247.134-185.431v377c105.221 0 197.206-74.444 247.134-185.431.235-.521.401-1.064.51-1.617v-2.904c-.108-.552-.275-1.095-.51-1.617z" fill="#ffad84"/><path d="m461.639 248.143c-42.546-112.683-122.061-188.5-213.139-188.5-106.188 0-198.895 75.817-248.5 188.5 49.605 112.682 142.312 188.5 248.5 188.5 91.078 0 170.593-75.818 213.139-188.5z" fill="#ffd4a1"/><path d="m496.145 246.691c-49.809-84.978-142.059-142.048-247.645-142.048v287c105.586 0 197.836-57.07 247.645-142.048.189-.958.189-1.945 0-2.904z" fill="#fe8566"/><path d="m461.639 248.143c-42.546-85.782-122.061-143.5-213.139-143.5-94.371 0-178.091 45.589-230.375 115.947-10.661 4.602-18.125 15.204-18.125 27.553s7.464 22.952 18.125 27.553c52.284 70.358 136.004 115.947 230.375 115.947 91.078 0 170.593-57.718 213.139-143.5z" fill="#ffad84"/><path d="m378.729 170.066c-39.296-23.174-84.329-35.423-130.229-35.423v227c45.9 0 90.934-12.249 130.229-35.423 33.095-19.517 61.479-46.298 82.909-78.077-21.429-31.779-49.814-58.56-82.909-78.077z" fill="#fffbbe"/><path d="m431.639 248.143c-18.413-31.779-42.803-58.561-71.24-78.077-33.765-23.174-72.46-35.423-111.899-35.423-45.9 0-90.934 12.249-130.229 35.423-33.095 19.517-61.479 46.298-82.909 78.077 21.43 31.779 49.814 58.561 82.909 78.077 39.296 23.174 84.329 35.423 130.229 35.423 39.44 0 78.135-12.249 111.899-35.423 28.437-19.516 52.827-46.297 71.24-78.077z" fill="#fff"/><path d="m248.5 134.643v227c62.684 0 113.5-50.816 113.5-113.5s-50.816-113.5-113.5-113.5z" fill="#01b1bc"/><path d="m332 248.143c0-62.684-37.384-113.5-83.5-113.5-62.684 0-113.5 50.816-113.5 113.5s50.816 113.5 113.5 113.5c46.116 0 83.5-50.815 83.5-113.5z" fill="#3ac7cf"/><path d="m248.5 194.643v107c29.547 0 53.5-23.953 53.5-53.5s-23.953-53.5-53.5-53.5z" fill="#20335a"/><path d="m272 248.143c0-29.547-10.521-53.5-23.5-53.5-29.547 0-53.5 23.953-53.5 53.5s23.953 53.5 53.5 53.5c12.979 0 23.5-23.952 23.5-53.5z" fill="#2b4478"/></g></svg>