<svg id="Capa_1" enable-background="new 0 0 512 512" height="512" viewBox="0 0 512 512" width="512" xmlns="http://www.w3.org/2000/svg"><g><g><path d="m400.126 277.545-17.621-7.3c1.067-9.375 1.092-18.919.012-28.488l17.609-7.288c17.985-7.459 26.535-28.076 19.089-46.073-5.627-13.571-18.749-21.769-32.587-21.769-4.499 0-9.072.861-13.486 2.693l-17.597 7.289c-6.003-7.519-12.783-14.262-20.156-20.132l7.289-17.622c7.458-17.985-1.079-38.614-19.077-46.061-4.402-1.831-8.974-2.692-13.474-2.692-13.838 0-26.972 8.198-32.587 21.769l-7.301 17.622c-9.375-1.068-18.919-1.091-28.488-.012l-7.289-17.609c-7.458-17.985-28.075-26.535-46.061-19.077-13.583 5.615-21.781 18.749-21.781 32.587 0 4.499.861 9.059 2.692 13.474l7.301 17.609c-7.531 6.003-14.262 12.771-20.132 20.156l-17.634-7.301c-17.985-7.447-38.602 1.091-46.061 19.077-1.819 4.415-2.68 8.987-2.68 13.486 0 13.838 8.186 26.96 21.769 32.587l17.609 7.288c-1.055 9.375-1.091 18.931-.012 28.488l-17.597 7.3c-17.997 7.447-26.535 28.076-19.089 46.061 5.627 13.571 18.761 21.769 32.587 21.769 4.499 0 9.059-.861 13.474-2.692l17.621-7.289c.073.097.158.206.243.303.024.012.036.037.036.049 5.93 7.386 12.601 13.995 19.877 19.78l-7.313 17.621c-7.446 17.985 1.104 38.615 19.089 46.061 4.402 1.832 8.974 2.693 13.474 2.693 5.081 0 10.066-1.104 14.626-3.189 3.917-1.783 7.531-4.281 10.587-7.41 3.068-3.128 5.603-6.876 7.374-11.169l7.301-17.621c9.375 1.067 18.919 1.091 28.488.012l7.289 17.609c7.446 17.985 28.075 26.523 46.061 19.077 13.583-5.615 21.769-18.749 21.769-32.575 0-4.499-.861-9.071-2.692-13.486l-7.289-17.609c7.531-5.991 14.262-12.77 20.132-20.144l17.621 7.289c17.997 7.458 38.614-1.092 46.073-19.077 7.447-17.988-1.103-38.617-19.088-46.064zm-144.125 27.651c-27.166 0-49.19-22.024-49.19-49.202 0-27.166 22.024-49.19 49.19-49.19s49.19 22.023 49.19 49.19c-.001 27.178-22.024 49.202-49.19 49.202z" fill="#756e78"/><g fill="#665e66"><g><path d="m270.978 129.483c9.56-1.082 19.114-1.055 28.488.013l7.297-17.626c3.556-8.585 10.117-15.015 17.959-18.586-.37-.168-.737-.339-1.115-.495-4.413-1.829-8.98-2.691-13.479-2.691-13.833 0-26.966 8.199-32.587 21.772l-6.927 16.731z"/><path d="m122.015 323.604c-7.451-17.986 1.088-38.609 19.081-46.06l17.605-7.297c-1.081-9.56-1.048-19.114.013-28.488l-17.619-7.297c-13.58-5.621-21.772-18.747-21.772-32.587 0-4.493.861-9.066 2.691-13.479 3.562-8.598 10.138-15.03 17.993-18.596l-1.156-.479c-17.986-7.451-38.609 1.088-46.06 19.074-1.829 4.413-2.691 8.986-2.691 13.479 0 13.84 8.192 26.966 21.772 32.587l17.619 7.297c-1.061 9.374-1.095 18.927-.013 28.488l-17.605 7.297c-17.993 7.451-26.532 28.074-19.081 46.06 5.622 13.573 18.754 21.772 32.587 21.772 4.493 0 9.06-.861 13.473-2.691l1.157-.479c-7.857-3.567-14.433-10.004-17.994-18.601z"/><path d="m306.763 400.128-7.29-17.606c-9.56 1.082-19.114 1.048-28.488-.013l-.37.894 6.926 16.725c7.451 17.993 28.074 26.532 46.067 19.081.38-.157.753-.322 1.125-.491-7.847-3.569-14.412-9.998-17.97-18.59z"/><path d="m216.498 418.715c-4.553 2.076-9.54 3.185-14.621 3.185-4.5 0-9.067-.861-13.48-2.691-17.986-7.451-26.532-28.074-19.081-46.06l7.304-17.625c-7.27-5.782-13.947-12.391-19.869-19.782-.007-.013-.02-.033-.033-.047-.08-.114-.167-.214-.254-.307h29.222c5.995 7.531 12.772 14.261 20.156 20.136l-7.304 17.625c-7.29 17.605.749 37.728 17.96 45.566z"/><path d="m216.498 93.29c-4.553-2.076-9.54-3.185-14.621-3.185-4.5 0-9.067.861-13.48 2.691-17.986 7.451-26.532 28.074-19.081 46.06l7.304 17.625c-7.27 5.782-13.947 12.391-19.869 19.782-.007.013-.02.033-.033.047-.08.114-.167.214-.254.307h29.222c5.995-7.531 12.772-14.261 20.156-20.136l-7.304-17.625c-7.29-17.605.749-37.728 17.96-45.566z"/></g><path d="m256.001 170.228c-47.358 0-85.766 38.408-85.766 85.767 0 47.37 38.408 85.779 85.766 85.779s85.767-38.409 85.767-85.779c-.001-47.359-38.409-85.767-85.767-85.767zm0 134.968c-27.166 0-49.19-22.024-49.19-49.202 0-27.166 22.024-49.19 49.19-49.19s49.19 22.023 49.19 49.19c-.001 27.178-22.024 49.202-49.19 49.202z"/></g></g><g><path d="m207.867 32.969c5.551 5.473 4.849 15.058-2.12 19.486l-46.132 29.307c-8.349 5.306-19.26-.687-19.26-10.582v-8.844c-54.687 12.83-96.716 58.874-103.568 115.593-.01.069-.015.133-.025.201-1.099 9.237-9.006 16.143-18.307 16.148-11.083 0-19.633-9.699-18.322-20.708 4.545-38.215 21.645-73.574 49.278-101.207 25.14-25.14 56.68-41.553 90.944-47.732v-12.074c0-9.885 10.916-15.883 19.26-10.582l46.132 29.317c.785.499 1.497 1.064 2.12 1.677z" fill="#5986cb"/><path d="m207.867 32.969c5.551 5.473 4.849 15.058-2.12 19.486l-46.132 29.307c-8.349 5.306-19.26-.687-19.26-10.582v-8.844c-54.687 12.83-96.716 58.874-103.568 115.593-.628-.648-.982-1.139-.982-1.443 0-64.072 44.699-117.89 104.55-131.937v8.845c0 9.895 10.911 15.888 19.26 10.582l46.132-29.307c.785-.501 1.492-1.07 2.116-1.693z" fill="#5766cb"/></g><g><path d="m304.133 479.031c-5.551-5.473-4.849-15.059 2.12-19.486l46.132-29.307c8.349-5.306 19.26.687 19.26 10.582v8.844c54.687-12.83 96.716-58.874 103.568-115.593.01-.069.015-.133.025-.201 1.099-9.237 9.006-16.143 18.307-16.148 11.083 0 19.633 9.699 18.322 20.708-4.545 38.215-21.645 73.574-49.278 101.207-25.14 25.14-56.68 41.553-90.944 47.732v12.074c0 9.885-10.916 15.883-19.26 10.582l-46.132-29.317c-.785-.499-1.497-1.064-2.12-1.677z" fill="#5986cb"/><path d="m304.133 479.031c-5.551-5.473-4.849-15.059 2.12-19.486l46.132-29.307c8.349-5.306 19.26.687 19.26 10.582v8.844c54.687-12.83 96.716-58.874 103.568-115.593.628.648.982 1.139.982 1.443 0 64.072-44.699 117.89-104.55 131.937v-8.845c0-9.895-10.911-15.888-19.26-10.582l-46.132 29.307c-.785.501-1.492 1.07-2.116 1.693z" fill="#5766cb"/></g><g><path d="m479.031 207.867c-5.473 5.551-15.059 4.849-19.486-2.12l-29.307-46.132c-5.306-8.349.687-19.26 10.582-19.26h8.844c-12.83-54.687-58.874-96.716-115.593-103.568-.069-.01-.133-.015-.201-.025-9.237-1.099-16.143-9.006-16.148-18.307 0-11.083 9.699-19.633 20.708-18.322 38.215 4.545 73.574 21.645 101.207 49.278 25.14 25.14 41.553 56.68 47.732 90.944h12.074c9.885 0 15.883 10.916 10.582 19.26l-29.317 46.132c-.499.785-1.064 1.497-1.677 2.12z" fill="#5986cb"/><path d="m479.031 207.867c-5.473 5.551-15.059 4.849-19.486-2.12l-29.307-46.132c-5.306-8.349.687-19.26 10.582-19.26h8.844c-12.83-54.687-58.874-96.716-115.593-103.568.648-.628 1.139-.982 1.443-.982 64.072 0 117.89 44.699 131.937 104.55h-8.845c-9.895 0-15.888 10.911-10.582 19.26l29.307 46.132c.501.785 1.07 1.492 1.693 2.116z" fill="#5766cb"/></g><g><path d="m32.969 304.133c5.473-5.551 15.058-4.849 19.486 2.12l29.307 46.132c5.306 8.349-.687 19.26-10.582 19.26h-8.844c12.83 54.687 58.874 96.716 115.593 103.568.069.01.133.015.201.025 9.237 1.099 16.143 9.006 16.148 18.307 0 11.083-9.699 19.633-20.708 18.322-38.215-4.545-73.574-21.645-101.207-49.278-25.14-25.14-41.553-56.68-47.732-90.944h-12.074c-9.885 0-15.883-10.916-10.582-19.26l29.317-46.132c.499-.785 1.064-1.497 1.677-2.12z" fill="#5986cb"/><path d="m32.969 304.133c5.473-5.551 15.058-4.849 19.486 2.12l29.307 46.132c5.306 8.349-.687 19.26-10.582 19.26h-8.844c12.83 54.687 58.874 96.716 115.593 103.568-.648.628-1.139.982-1.443.982-64.072 0-117.89-44.699-131.937-104.55h8.845c9.895 0 15.888-10.911 10.582-19.26l-29.307-46.132c-.501-.785-1.07-1.492-1.693-2.116z" fill="#5766cb"/></g></g></svg>