<svg id="Gradient" height="512" viewBox="0 0 512 512" width="512" xmlns="http://www.w3.org/2000/svg" xmlns:xlink="http://www.w3.org/1999/xlink"><linearGradient id="linear-gradient" gradientUnits="userSpaceOnUse" x1="256" x2="256" y1="464" y2="48"><stop offset="0" stop-color="#12bee5"/><stop offset=".5" stop-color="#c071e9"/><stop offset="1" stop-color="#f24f5a"/></linearGradient><path d="m488 144h-48a8 8 0 0 0 -8 8v304a8 8 0 0 0 8 8h48a8 8 0 0 0 8-8v-304a8 8 0 0 0 -8-8zm-8 304h-32v-288h32zm-72 16a8 8 0 0 0 8-8v-240a8 8 0 0 0 -8-8h-48a8 8 0 0 0 -8 8v240a8 8 0 0 0 8 8zm-40-240h32v224h-32zm-40 240a8 8 0 0 0 8-8v-184a8 8 0 0 0 -8-8h-48a8 8 0 0 0 -8 8v184a8 8 0 0 0 8 8zm-40-184h32v168h-32zm-40 184a8 8 0 0 0 8-8v-120a8 8 0 0 0 -8-8h-48a8 8 0 0 0 -8 8v120a8 8 0 0 0 8 8zm-40-120h32v104h-32zm-40 120a8 8 0 0 0 8-8v-88a8 8 0 0 0 -8-8h-48a8 8 0 0 0 -8 8v88a8 8 0 0 0 8 8zm-40-88h32v72h-32zm-40 88a8 8 0 0 0 8-8v-48a8 8 0 0 0 -8-8h-48a8 8 0 0 0 -8 8v48a8 8 0 0 0 8 8zm-40-48h32v32h-32zm160-264a8.009 8.009 0 0 0 8 8 24 24 0 0 1 8 46.624v9.376a8 8 0 0 1 -16 0v-8h-8a8 8 0 0 1 0-16h16a8 8 0 0 0 0-16 24 24 0 0 1 -8-46.624v-9.376a8 8 0 0 1 16 0v8h8a8 8 0 0 1 0 16h-16a8.009 8.009 0 0 0 -8 8zm280-104h-48a8 8 0 0 0 0 16h28.686l-112 112h-45.022c.219-2.639.336-5.306.336-8a96 96 0 1 0 -113.677 94.362l-33.636 33.638h-60.687a8 8 0 0 0 -5.657 2.343l-80 80a8 8 0 0 0 11.314 11.314l77.656-77.657h60.687a8 8 0 0 0 5.657-2.343l45.723-45.723a96.19 96.19 0 0 0 89.583-71.934h51.037a8 8 0 0 0 5.657-2.343l114.343-114.343v28.686a8 8 0 0 0 16 0v-48a8 8 0 0 0 -8-8zm-272 200a80 80 0 1 1 80-80 80.091 80.091 0 0 1 -80 80z" fill="url(#linear-gradient)"/></svg>