<svg id="Gradient" height="512" viewBox="0 0 512 512" width="512" xmlns="http://www.w3.org/2000/svg" xmlns:xlink="http://www.w3.org/1999/xlink"><linearGradient id="linear-gradient" gradientUnits="userSpaceOnUse" x1="256" x2="256" y1="496" y2="16"><stop offset="0" stop-color="#12bee5"/><stop offset=".5" stop-color="#c071e9"/><stop offset="1" stop-color="#f24f5a"/></linearGradient><path d="m248 264a8 8 0 1 1 -8-8 8 8 0 0 1 8 8zm-40-8a8 8 0 1 0 8 8 8 8 0 0 0 -8-8zm32-128a8 8 0 1 0 8 8 8 8 0 0 0 -8-8zm64 128h-32a8 8 0 0 0 0 16h32a8 8 0 0 0 0-16zm-96-128a8 8 0 1 0 8 8 8 8 0 0 0 -8-8zm96 64h-32a8 8 0 0 0 0 16h32a8 8 0 0 0 0-16zm-96 0a8 8 0 1 0 8 8 8 8 0 0 0 -8-8zm32 0a8 8 0 1 0 8 8 8 8 0 0 0 -8-8zm232 168v80a24.027 24.027 0 0 1 -24 24h-21.754l5.515 22.06a8 8 0 0 1 -7.761 9.94h-48a8 8 0 0 1 -7.761-9.94l5.515-22.06h-21.754a24.027 24.027 0 0 1 -24-24v-56h-49.376a24 24 0 0 1 -45.248 0h-33.376v56a23.889 23.889 0 0 1 -1.376 8h9.376a8 8 0 0 1 8 8 40.045 40.045 0 0 1 -40 40h-96a40.045 40.045 0 0 1 -40-40 8 8 0 0 1 8-8h9.376a23.889 23.889 0 0 1 -1.376-8v-80a24.027 24.027 0 0 1 24-24h24v-64a64 64 0 0 1 0-128h10.788a104.016 104.016 0 0 1 189.8-78.5 79.975 79.975 0 0 1 95.412 78.5h8a64 64 0 0 1 0 128v64h40a24.027 24.027 0 0 1 24 24zm-64-160a8 8 0 1 0 -8 8 8.009 8.009 0 0 0 8-8zm-304 56v-33.376a24 24 0 1 1 30.624-30.624h33.376v-8a23.9 23.9 0 0 1 6.131-16 23.9 23.9 0 0 1 -6.131-16v-32a24.028 24.028 0 0 1 24-24h128a24.028 24.028 0 0 1 24 24v32a23.9 23.9 0 0 1 -6.131 16 23.9 23.9 0 0 1 6.131 16v8h33.376a24 24 0 1 1 30.624 30.624v33.376a48 48 0 0 0 0-96h-16.45a8 8 0 0 1 -7.952-8.877 63.981 63.981 0 0 0 -80.82-68.757 8 8 0 0 1 -9.2-3.922 88.019 88.019 0 0 0 -160.569 70.889 8 8 0 0 1 -7.539 10.667h-21.47a48 48 0 0 0 0 96zm240-8v8h48v-33.376a24.119 24.119 0 0 1 -14.624-14.624h-33.376v8a23.9 23.9 0 0 1 -6.131 16 23.9 23.9 0 0 1 6.131 16zm-16-32v-32a8.009 8.009 0 0 0 -8-8h-128a8.009 8.009 0 0 0 -8 8v32a8.009 8.009 0 0 0 8 8h128a8.009 8.009 0 0 0 8-8zm-8 24h-128a8.009 8.009 0 0 0 -8 8v32a8.009 8.009 0 0 0 8 8h128a8.009 8.009 0 0 0 8-8v-32a8.009 8.009 0 0 0 -8-8zm8-88v-32a8.009 8.009 0 0 0 -8-8h-128a8.009 8.009 0 0 0 -8 8v32a8.009 8.009 0 0 0 8 8h128a8.009 8.009 0 0 0 8-8zm-208 104h48v-8a23.9 23.9 0 0 1 6.131-16 23.9 23.9 0 0 1 -6.131-16v-8h-33.376a24.119 24.119 0 0 1 -14.624 14.624zm0-56a8 8 0 1 0 -8 8 8.009 8.009 0 0 0 8-8zm-48 216h112v-56a8.009 8.009 0 0 0 -8-8h-96a8.009 8.009 0 0 0 -8 8zm0 24a8.009 8.009 0 0 0 8 8h96a8.009 8.009 0 0 0 8-8v-8h-112zm-14.629 24a24.042 24.042 0 0 0 22.629 16h96a24.042 24.042 0 0 0 22.629-16zm206.629-88a8 8 0 1 0 -8 8 8.009 8.009 0 0 0 8-8zm88-40h40v-64h-48v8a24.028 24.028 0 0 1 -24 24h-128a24.028 24.028 0 0 1 -24-24v-8h-48v64h56a24.027 24.027 0 0 1 24 24v8h33.376a24 24 0 0 1 45.248 0h49.376v-8a24.027 24.027 0 0 1 24-24zm61.754 144-4-16h-19.508l-4 16zm42.246-48h-112v8a8.009 8.009 0 0 0 8 8h96a8.009 8.009 0 0 0 8-8zm0-72a8.009 8.009 0 0 0 -8-8h-96a8.009 8.009 0 0 0 -8 8v56h112zm-152-232h-32a8 8 0 0 0 0 16h32a8 8 0 0 0 0-16z" fill="url(#linear-gradient)"/></svg>