<svg height="464pt" viewBox="-24 0 464 464" width="464pt" xmlns="http://www.w3.org/2000/svg" xmlns:xlink="http://www.w3.org/1999/xlink"><linearGradient id="a"><stop offset="0" stop-color="#12c2e9"/><stop offset=".5" stop-color="#c471ed"/><stop offset="1" stop-color="#f64f59"/></linearGradient><linearGradient id="b" gradientUnits="userSpaceOnUse" x1="208.032071" x2="208.032071" xlink:href="#a" y1="515.272" y2="-51.632"/><linearGradient id="c" gradientUnits="userSpaceOnUse" x1="136.032071" x2="136.032071" xlink:href="#a" y1="512.152" y2="-56.224"/><linearGradient id="d" gradientUnits="userSpaceOnUse" x1="280.032071" x2="280.032071" xlink:href="#a" y1="516.152" y2="-52.224"/><linearGradient id="e" gradientUnits="userSpaceOnUse" x1="208.032071" x2="208.032071" xlink:href="#a" y1="511.856" y2="-48.512"/><path d="m24.03125 160v44c-15.445312 9.171875-24.648438 26.046875-24 44 0 24.113281 14.90625 44.070312 34.234375 47.441406 13.40625 95.414063 86.214844 168.558594 173.765625 168.558594 87.554688 0 160.359375-73.144531 173.769531-168.558594 19.328125-3.371094 34.230469-23.328125 34.230469-47.441406.648438-17.953125-8.554688-34.828125-24-44v-44c.007812-14.308594-2.96875-28.464844-8.734375-41.558594 15.457031-10.402344 24.726563-27.808594 24.734375-46.441406v-8c0-4.417969-3.582031-8-8-8h-40.800781c10.765625-10.523438 16.820312-24.949219 16.800781-40v-8c0-4.417969-3.582031-8-8-8h-160c-67.289062 0-120 28.113281-120 64v.046875c-38.710938 16.171875-63.941406 53.996094-64 95.953125zm8 103.703125c0 4.898437.207031 9.738281.511719 14.542969-10.855469-6.074219-17.273438-17.828125-16.511719-30.246094 0-16.273438 9.183594-29.601562 20.984375-31.59375-3.300781 15.550781-4.972656 31.402344-4.984375 47.296875zm176 184.296875c-88.222656 0-160-82.671875-160-184.296875 0-63.199219 27.519531-120.800781 73.722656-154.863281 26.769532 13.320312 56.386719 19.898437 86.277344 19.160156h107.945312c33.960938 36.976562 52.574219 85.5 52.054688 135.703125 0 101.625-71.773438 184.296875-160 184.296875zm168-248h-1.207031c-7.652344-26.238281-20.410157-50.707031-37.542969-72h14.75c5.699219-.003906 11.367188-.878906 16.800781-2.601562 4.738281 10.921874 7.1875 22.699218 7.199219 34.601562zm24 48c.761719 12.417969-5.65625 24.171875-16.511719 30.246094.304688-4.796875.511719-9.644532.511719-14.542969-.015625-15.902344-1.710938-31.761719-5.0625-47.3125 11.839844 1.960937 21.0625 15.296875 21.0625 31.609375zm-192-232h152c-.027344 22.082031-17.917969 39.972656-40 40-4.417969 0-8 3.582031-8 8s3.582031 8 8 8h72c-.027344 22.082031-17.917969 39.972656-40 40h-144c-62.207031 0-104-24.800781-104-48s41.792969-48 104-48zm-116.296875 63.824219c3.730469 7.675781 9.167969 14.398437 15.898437 19.648437-32.078124 25.789063-55.335937 60.921875-66.535156 100.527344h-1.066406v-40c.042969-34.546875 20.253906-65.886719 51.703125-80.175781zm0 0" fill="url(#b)"/><path d="m160.03125 184c-9.1875-.003906-17.933594 3.953125-24 10.855469-8.800781-9.976563-22.855469-13.46875-35.300781-8.769531-12.449219 4.699218-20.6875 16.609374-20.699219 29.914062 0 17.375 37.777344 64 56 64 18.226562 0 56-46.625 56-64 0-17.671875-14.324219-32-32-32zm-23.871094 80c-9.191406-1.183594-39.945312-37.976562-40.128906-48 0-8.835938 7.164062-16 16-16s16 7.164062 16 16v2.160156c0 4.417969 3.582031 8 8 8s8-3.582031 8-8v-2.160156c0-8.835938 7.164062-16 16-16s16 7.164062 16 16c-.183594 10.03125-30.933594 46.824219-39.871094 48zm0 0" fill="url(#c)"/><path d="m280.03125 194.855469c-8.800781-9.976563-22.855469-13.46875-35.300781-8.769531-12.449219 4.699218-20.6875 16.609374-20.699219 29.914062 0 17.375 37.777344 64 56 64 18.226562 0 56-46.625 56-64-.007812-13.304688-8.25-25.214844-20.695312-29.914062-12.449219-4.699219-26.503907-1.207032-35.304688 8.769531zm40 21.144531c-.183594 10.03125-30.933594 46.824219-39.871094 48-9.191406-1.183594-39.945312-37.976562-40.128906-48 0-8.835938 7.164062-16 16-16s16 7.164062 16 16v2.160156c0 4.417969 3.582031 8 8 8s8-3.582031 8-8v-2.160156c0-8.835938 7.164062-16 16-16s16 7.164062 16 16zm0 0" fill="url(#d)"/><path d="m236.03125 297.089844c-3.816406-2.222656-8.710938-.929688-10.933594 2.886718-5.066406 8.765626-9.714844 12.023438-17.066406 12.023438s-12-3.257812-17.085938-12c-2.335937-3.53125-7.019531-4.636719-10.683593-2.515625-3.664063 2.121094-5.042969 6.730469-3.140625 10.515625 5.476562 12.160156 17.574218 19.976562 30.910156 19.976562s25.433594-7.816406 30.914062-19.976562c2.199219-3.820312.898438-8.699219-2.914062-10.910156zm0 0" fill="url(#e)"/></svg>