<svg id="Layer_1" viewBox="0 0 512 512" xmlns="http://www.w3.org/2000/svg" xmlns:xlink="http://www.w3.org/1999/xlink" data-name="Layer 1"><linearGradient id="linear-gradient" gradientUnits="userSpaceOnUse" x1="406.566" x2="153.99" y1="78.836" y2="516.311"><stop offset="0" stop-color="#2aa3ff"/><stop offset="1" stop-color="#ce3fff"/></linearGradient><path d="m473.871 435.674c0 33.307-97.54 60.321-217.871 60.321s-217.871-27.014-217.871-60.321c0-26.192 60.151-48.444 144.255-56.806 7.37 11.537 14.91 22.96 22.677 34.242 11.14 16.158 22.961 32.514 35.802 47.396 3.855 4.45 9.241 6.917 15.137 6.917s11.282-2.466 15.137-6.917c12.841-14.882 24.661-31.238 35.802-47.396 7.767-11.282 15.335-22.705 22.677-34.242 84.104 8.362 144.255 30.614 144.255 56.806zm-367.229-225.751c-13.833-52.979 1.276-110.069 40.025-148.819 30.076-30.075 69.704-45.099 109.332-45.099s79.285 15.024 109.332 45.099c38.75 38.75 53.887 95.84 40.053 148.819-11.225 42.86-94.734 186.52-143.32 242.73-1.587 1.814-3.657 2.75-6.066 2.75s-4.479-.935-6.038-2.75c-48.614-56.211-132.123-199.871-143.32-242.73zm51.506-39.487c0 38.069 22.054 71.263 54 87.392l28.715 56.41c2.92 5.754 8.702 9.297 15.137 9.297s12.246-3.543 15.165-9.297l28.687-56.41c31.946-16.129 54-49.323 54-87.392 0-44.419-29.962-82.148-70.668-93.997l-12.019-23.612c-2.92-5.754-8.731-9.298-15.165-9.298s-12.217 3.543-15.137 9.298l-12.019 23.612c-40.734 11.849-70.696 49.578-70.696 93.997zm51.534-21.373c1.814 1.531 4.337 1.587 6.236.17l37.077-27.808c1.814-1.36 4.195-1.36 6.009 0l37.106 27.808c1.871 1.417 4.394 1.361 6.208-.17 1.814-1.502 2.296-3.997 1.247-6.095l-43.115-84.699c-.879-1.729-2.523-2.75-4.45-2.75s-3.572 1.021-4.45 2.75l-43.115 84.699c-1.049 2.098-.539 4.592 1.247 6.095zm41.868 159.732c.879 1.729 2.523 2.722 4.45 2.722s3.572-.992 4.45-2.722l43.115-84.728c1.049-2.098.567-4.563-1.247-6.094-1.814-1.502-4.337-1.559-6.208-.17l-37.106 27.836c-1.814 1.333-4.195 1.333-6.009 0l-37.077-27.836c-1.899-1.389-4.422-1.332-6.236.17-1.786 1.531-2.296 3.997-1.247 6.094z" fill="url(#linear-gradient)"/></svg>