<?xml version="1.0" encoding="UTF-8"?>
<svg xmlns="http://www.w3.org/2000/svg" xmlns:xlink="http://www.w3.org/1999/xlink" id="Gradient" viewBox="0 0 512 512" width="512" height="512"><defs><linearGradient id="linear-gradient" x1="248" y1="456" x2="248" y2="40" gradientUnits="userSpaceOnUse"><stop offset="0" stop-color="#12bee5"/><stop offset="0.5" stop-color="#c071e9"/><stop offset="1" stop-color="#f24f5a"/></linearGradient></defs><path d="M280,328v-8H256a8,8,0,0,1-6.656-12.438l32-48A8,8,0,0,1,296,264v40h8a8,8,0,0,1,0,16h-8v8a8,8,0,0,1-16,0Zm0-24V290.422L270.948,304ZM248,408a111.746,111.746,0,0,0,86.151-40.428,8,8,0,1,0-12.3-10.23A95.776,95.776,0,0,1,256,391.669V384a8,8,0,0,0-16,0v7.664A96.154,96.154,0,0,1,152.336,304H160a8,8,0,0,0,0-16h-7.664A96.154,96.154,0,0,1,240,200.336V208a8,8,0,0,0,16,0v-7.664a96.174,96.174,0,0,1,87.243,83.593l-1.586-1.586a8,8,0,0,0-11.314,11.314l16,16a8,8,0,0,0,11.314,0l16-16a8,8,0,0,0-11.314-11.314l-2.865,2.865A112,112,0,1,0,248,408ZM488,112V416a40.045,40.045,0,0,1-40,40H48A40.045,40.045,0,0,1,8,416V112A40.045,40.045,0,0,1,48,72H64V64a24,24,0,0,1,48,0v8h32V64a24,24,0,0,1,48,0v8h32V64a24,24,0,0,1,48,0v8h32V64a24,24,0,0,1,48,0v8h32V64a24,24,0,0,1,48,0v8h16A40.045,40.045,0,0,1,488,112ZM400,96a8,8,0,0,0,16,0V64a8,8,0,0,0-16,0Zm-80,0a8,8,0,0,0,16,0V64a8,8,0,0,0-16,0Zm-80,0a8,8,0,0,0,16,0V64a8,8,0,0,0-16,0Zm-80,0a8,8,0,0,0,16,0V64a8,8,0,0,0-16,0ZM80,96a8,8,0,0,0,16,0V64a8,8,0,0,0-16,0ZM24,112v24H472V112a24.028,24.028,0,0,0-24-24H432v8a24,24,0,0,1-48,0V88H352v8a24,24,0,0,1-48,0V88H272v8a24,24,0,0,1-48,0V88H192v8a24,24,0,0,1-48,0V88H112v8a24,24,0,0,1-48,0V88H48A24.028,24.028,0,0,0,24,112Zm448,40H24V416a24.028,24.028,0,0,0,24,24H448a24.028,24.028,0,0,0,24-24ZM240,320H222.948l23.708-35.562A8,8,0,0,0,248,280c0-9.647-6.392-24-24-24s-24,14.353-24,24a8,8,0,0,0,16,.1h0a12.035,12.035,0,0,1,1.313-4.815c.893-1.622,2.386-3.28,6.688-3.28s5.795,1.658,6.688,3.28a10.967,10.967,0,0,1,1.015,2.744l-30.359,45.538A8,8,0,0,0,208,336h32a8,8,0,0,0,0-16Z" style="fill:url(#linear-gradient)"/></svg>
