<svg height="512pt" viewBox="-72 0 512 512.00038" width="512pt" xmlns="http://www.w3.org/2000/svg"><path d="m68.945312 376.257812v33.894532c0 6.421875 5.207032 11.628906 11.632813 11.628906h207.117187c6.425782 0 11.632813-5.207031 11.632813-11.628906v-33.894532c0-45.652343-37.007813-82.65625-82.65625-82.65625h-65.070313c-45.648437 0-82.65625 37.003907-82.65625 82.65625zm0 0" fill="#8cbafa"/><path d="m216.671875 293.601562h-26.078125c45.648438 0 82.652344 37.007813 82.652344 82.65625v33.894532c0 6.421875-5.207032 11.628906-11.628906 11.628906h26.078124c6.425782 0 11.632813-5.207031 11.632813-11.628906v-33.894532c0-45.652343-37.007813-82.65625-82.65625-82.65625zm0 0" fill="#5692d8"/><path d="m181.304688 253.117188c-30.324219 1.394531-55.089844 16.886718-56.960938 47.183593-1.570312 25.460938 12.777344 47.757813 34.035156 57.898438 2.132813 1.015625 4.542969-.59375 4.539063-2.957031 0-.019532 0-.035157 0-.054688 0-16.054688 9.5-29.070312 21.21875-29.070312s21.214843 13.015624 21.214843 29.070312v.054688c0 2.363281 2.410157 3.972656 4.542969 2.953124 20.195313-9.632812 34.152344-30.230468 34.152344-54.09375 0-34.027343-28.367187-52.570312-62.742187-50.984374zm0 0" fill="#e9e9ea"/><path d="m280.566406 56.261719c-21.207031-47.410157-70.46875-65.5625-120.691406-47.410157-40.507812 14.640626-71.488281 1.40625-87.679688-7.875-4.753906-2.726562-10.492187.519532-11.382812 6.421876-5.710938 37.808593-8.101562 130.761718 42.1875 171.691406h171.601562c20.15625-24.011719 66.019532-117.863282 5.964844-122.828125zm0 0" fill="#575b7a"/><path d="m280.566406 56.261719c-19.4375-43.460938-62.453125-62.3125-108.175781-51.171875 35.65625-1.082032 67.167969 18.035156 82.835937 54.265625 55.824219 4.769531 16.988282 91.699219-3.410156 119.734375h22.785156c20.15625-24.011719 66.019532-117.863282 5.964844-122.828125zm0 0" fill="#252d4c"/><path d="m138.613281 235.992188v41.03125c0 25.140624 20.382813 45.523437 45.523438 45.523437s45.523437-20.382813 45.523437-45.523437v-41.03125zm0 0" fill="#ffd2c0"/><path d="m229.660156 277.023438v-41.03125h-91.046875v40.75c13.261719 10.652343 30.097657 17.042968 48.433594 17.042968h7.097656c12.480469 0 24.261719-2.972656 34.703125-8.222656.527344-2.765625.8125-5.617188.8125-8.539062zm0 0" fill="#edaa9d"/><path d="m281.300781 151.800781h-16.222656v-12.425781c0-18.277344-8.457031-34.566406-21.660156-45.199219-4.136719-3.332031-9.878907-3.648437-14.4375-.914062-13.105469 7.863281-28.441407 12.394531-44.84375 12.394531-16.398438 0-31.734375-4.53125-44.84375-12.394531-4.554688-2.730469-10.296875-2.417969-14.4375.914062-13.203125 10.632813-21.65625 26.921875-21.65625 45.199219v12.425781h-16.226563c-10.703125 0-19.816406 8.320313-20.199218 19.019531-.398438 11.226563 8.585937 20.457032 19.726562 20.457032h16.699219v7.605468c0 42.742188 34.648437 77.390626 77.390625 77.390626h7.097656c42.738281 0 77.386719-34.648438 77.386719-77.390626v-7.605468h16.699219c11.140624 0 20.125-9.230469 19.726562-20.460938-.378906-10.691406-9.496094-19.015625-20.199219-19.015625zm0 0" fill="#ffd2c0"/><g fill="#252d4c"><path d="m134.816406 155.425781c-1.5 0-3.015625-.449219-4.332031-1.382812-3.378906-2.394531-4.175781-7.074219-1.78125-10.453125 4.917969-6.945313 10.457031-10.464844 16.464844-10.464844 6.003906 0 11.542969 3.519531 16.464843 10.464844 2.394532 3.378906 1.597657 8.058594-1.78125 10.453125-3.378906 2.398437-8.0625 1.597656-10.457031-1.78125-2.6875-3.789063-4.226562-4.132813-4.242187-4.136719.015625.003906-1.523438.347656-4.210938 4.136719-1.460937 2.0625-3.777344 3.164062-6.125 3.164062zm0 0"/><path d="m233.460938 155.425781c-2.351563 0-4.664063-1.101562-6.128907-3.164062-2.683593-3.789063-4.226562-4.132813-4.238281-4.136719.011719.003906-1.527344.347656-4.214844 4.136719-2.394531 3.378906-7.074218 4.179687-10.453125 1.78125-3.378906-2.394531-4.179687-7.074219-1.785156-10.453125 4.921875-6.945313 10.460937-10.464844 16.464844-10.464844 6.007812 0 11.546875 3.523438 16.464843 10.464844 2.398438 3.378906 1.597657 8.058594-1.78125 10.457031-1.316406.929687-2.832031 1.378906-4.328124 1.378906zm0 0"/><path d="m184.136719 228.5625c-16.210938 0-31.074219-9.511719-37.867188-24.238281-1.734375-3.761719-.089843-8.21875 3.667969-9.953125 3.765625-1.734375 8.21875-.089844 9.953125 3.671875 4.347656 9.425781 13.867187 15.519531 24.246094 15.519531 10.378906 0 19.898437-6.09375 24.246093-15.519531 1.734376-3.761719 6.191407-5.40625 9.953126-3.671875 3.761718 1.734375 5.402343 6.191406 3.667968 9.953125-6.792968 14.722656-21.65625 24.238281-37.867187 24.238281zm0 0"/></g><path d="m301.640625 512h-235.007813c-36.800781 0-66.632812-29.832031-66.632812-66.632812 0-36.800782 29.832031-66.632813 66.632812-66.632813h235.007813c36.800781 0 66.632813 29.832031 66.632813 66.632813 0 36.800781-29.832032 66.632812-66.632813 66.632812zm0 0" fill="#ed5176"/><path d="m104.507812 460.539062 3.9375 16.945313c1.355469 5.8125-4.949218 10.394531-10.0625 7.308594l-14.894531-8.984375c-2.144531-1.292969-4.832031-1.292969-6.972656 0l-14.898437 8.984375c-5.109376 3.082031-11.414063-1.496094-10.0625-7.308594l3.941406-16.945313c.566406-2.441406-.261719-4.992187-2.15625-6.632812l-13.148438-11.390625c-4.511718-3.910156-2.101562-11.320313 3.84375-11.832031l17.335938-1.488282c2.492187-.214843 4.664062-1.789062 5.640625-4.097656l6.769531-16.023437c2.324219-5.5 10.117188-5.5 12.441406 0l6.769532 16.023437c.976562 2.308594 3.148437 3.882813 5.644531 4.097656l17.332031 1.488282c5.945312.511718 8.355469 7.921875 3.84375 11.832031l-13.148438 11.390625c-1.894531 1.640625-2.726562 4.191406-2.15625 6.632812zm0 0" fill="#ffcd34"/><path d="m208.644531 460.539062 3.941407 16.945313c1.351562 5.8125-4.953126 10.394531-10.066407 7.308594l-14.894531-8.984375c-2.144531-1.292969-4.828125-1.292969-6.972656 0l-14.898438 8.984375c-5.109375 3.082031-11.414062-1.496094-10.0625-7.308594l3.941406-16.945313c.566407-2.441406-.261718-4.992187-2.15625-6.632812l-13.148437-11.390625c-4.511719-3.910156-2.101563-11.320313 3.84375-11.832031l17.335937-1.488282c2.492188-.214843 4.664063-1.789062 5.640626-4.097656l6.773437-16.023437c2.320313-5.5 10.113281-5.5 12.4375 0l6.769531 16.023437c.976563 2.308594 3.148438 3.882813 5.644532 4.097656l17.332031 1.488282c5.945312.511718 8.355469 7.921875 3.84375 11.832031l-13.148438 11.390625c-1.894531 1.640625-2.722656 4.191406-2.15625 6.632812zm0 0" fill="#ffcd34"/><path d="m312.78125 460.539062 3.941406 16.945313c1.351563 5.8125-4.953125 10.394531-10.066406 7.308594l-14.894531-8.984375c-2.144531-1.292969-4.828125-1.292969-6.972657 0l-14.898437 8.984375c-5.109375 3.082031-11.414063-1.496094-10.0625-7.308594l3.941406-16.945313c.566407-2.441406-.261719-4.992187-2.15625-6.632812l-13.148437-11.390625c-4.507813-3.910156-2.101563-11.320313 3.84375-11.832031l17.335937-1.488282c2.492188-.214843 4.664063-1.789062 5.640625-4.097656l6.773438-16.023437c2.320312-5.5 10.113281-5.5 12.4375 0l6.769531 16.023437c.976563 2.308594 3.148437 3.882813 5.644531 4.097656l17.332032 1.488282c5.945312.511718 8.355468 7.921875 3.84375 11.832031l-13.148438 11.390625c-1.894531 1.640625-2.722656 4.191406-2.15625 6.632812zm0 0" fill="#ffcd34"/></svg>