<svg fill="none" height="24" viewBox="0 0 24 24" width="24" xmlns="http://www.w3.org/2000/svg" xmlns:xlink="http://www.w3.org/1999/xlink"><linearGradient id="paint0_linear_2158_2771" gradientUnits="userSpaceOnUse" x1="1" x2="23" y1="1" y2="23"><stop offset="0" stop-color="#4ea2ea"/><stop offset=".244792" stop-color="#484dff"/><stop offset=".484375" stop-color="#cd0ef3"/><stop offset=".723958" stop-color="#f640bb"/><stop offset=".950204" stop-color="#fb6d64"/></linearGradient><g fill="url(#paint0_linear_2158_2771)"><circle cx="12" cy="12" opacity=".2" r="11"/><path clip-rule="evenodd" d="m3 12c0-4.97056 4.02944-9 9-9 4.9706 0 9 4.02944 9 9 0 4.9706-4.0294 9-9 9-4.97056 0-9-4.0294-9-9zm9-11c-6.07513 0-11 4.92487-11 11 0 6.0751 4.92487 11 11 11 6.0751 0 11-4.9249 11-11 0-6.07513-4.9249-11-11-11zm0 5c.5523 0 1 .44772 1 1v4h4c.5523 0 1 .4477 1 1s-.4477 1-1 1h-4v4c0 .5523-.4477 1-1 1s-1-.4477-1-1v-4h-4c-.55228 0-1-.4477-1-1s.44772-1 1-1h4v-4c0-.55228.4477-1 1-1z" fill-rule="evenodd"/></g></svg>