<?xml version="1.0" encoding="UTF-8"?>
<svg id="Layer_1" data-name="Layer 1" xmlns="http://www.w3.org/2000/svg" xmlns:xlink="http://www.w3.org/1999/xlink" viewBox="0 0 595.52 93.53">
  <defs>
    <style>
      .cls-1 {
        fill: #3b82f6;
      }

      .cls-2 {
        letter-spacing: 0em;
      }

      .cls-3 {
        fill: #06b6d4;
      }

      .cls-4 {
        fill: none;
        stroke: url(#linear-gradient);
        stroke-miterlimit: 10;
      }

      .cls-5 {
        font-family: ProximaNova-Extrabld, 'Proxima Nova';
        font-size: 9px;
      }

      .cls-6 {
        fill: #f43f5e;
      }

      .cls-7 {
        letter-spacing: -.07em;
      }

      .cls-8 {
        letter-spacing: -.02em;
      }

      .cls-9 {
        font-family: ProximaNova-Regular, 'Proxima Nova';
        font-size: 8px;
      }

      .cls-10 {
        letter-spacing: .06em;
      }

      .cls-11 {
        fill: #8b5cf6;
      }

      .cls-12 {
        fill: #d946ef;
      }
    </style>
    <linearGradient id="linear-gradient" x1="0" y1="31.32" x2="595.52" y2="31.32" gradientUnits="userSpaceOnUse">
      <stop offset="0" stop-color="#fb7185"/>
      <stop offset=".25" stop-color="#e879f9"/>
      <stop offset=".5" stop-color="#a78bfa"/>
      <stop offset=".75" stop-color="#60a5fa"/>
      <stop offset="1" stop-color="#22d3ee"/>
    </linearGradient>
  </defs>
  <path class="cls-4" d="M.08,58.9c57.17,9.82,80.32-4.94,102.28-14.75,21.89-9.78,53.63-33.48,76.28-29.1,31.3,6.05,39.14,31.84,79.49,35.43,36.55,3.25,84.12-21.15,127.81-35.43,30.44-9.95,36.31,27.13,93.5,26.5,51.17-.57,102.19-36.31,115.91-41.07"/>
  <circle class="cls-6" cx="58.51" cy="58.49" r="8"/>
  <circle class="cls-12" cx="165.76" cy="16.47" r="8"/>
  <circle class="cls-11" cx="286.72" cy="46.89" r="8"/>
  <circle class="cls-1" cx="389.03" cy="13.1" r="8"/>
  <circle class="cls-3" cx="514.94" cy="34.89" r="8"/>
  <text class="cls-6" transform="translate(19.35 81.76)"><tspan class="cls-5"><tspan class="cls-7" x="0" y="0">V</tspan><tspan x="5.66" y="0">ận hành mượt mà</tspan></tspan><tspan class="cls-9"><tspan x="-1.54" y="9.6">Giảm tải áp lực nhân sự</tspan></tspan></text>
  <g>
    <path class="cls-12" d="M126.14,47.93h-1.55v-4.65h-1.68v-1.35h4.9v1.35h-1.67v4.65Z"/>
    <path class="cls-12" d="M129.37,47.93h-1.39v-4.35h1.39v.53c.15-.18.35-.33.6-.46s.5-.19.76-.19v1.33c-.11-.02-.22-.04-.34-.04-.19,0-.39.04-.59.11s-.34.17-.43.28v2.77Z"/>
    <path class="cls-12" d="M135.31,47.93h-1.39v-.43c-.14.16-.33.29-.57.39-.24.1-.5.15-.78.15-.38,0-.72-.12-1.03-.37s-.46-.6-.46-1.06c0-.48.15-.83.45-1.06.3-.22.65-.34,1.04-.34.63,0,1.08.17,1.35.5v-.52c0-.19-.08-.34-.23-.46-.16-.11-.37-.17-.65-.17-.46,0-.87.15-1.23.46l-.5-.87c.53-.45,1.19-.67,1.97-.67.28,0,.53.03.76.09.23.06.44.15.64.27.19.13.35.31.46.54.11.23.17.51.17.84v2.72ZM133.15,47.13c.37,0,.63-.11.77-.32v-.39c-.15-.2-.41-.31-.77-.31-.2,0-.36.04-.5.13-.13.09-.2.21-.2.37s.07.29.2.37c.13.09.3.13.5.13ZM133.05,42.75l-.47-.15c.12-.34.37-.51.75-.51.22,0,.4.05.54.17s.22.28.22.5c0,.13-.04.27-.13.44h-.56c.11-.11.16-.25.16-.41,0-.17-.08-.26-.23-.26-.13,0-.23.08-.28.23Z"/>
    <path class="cls-12" d="M137.58,42.96c-.15.16-.34.23-.56.23s-.41-.08-.56-.23c-.15-.16-.23-.34-.23-.57s.08-.41.23-.56c.15-.15.34-.23.56-.23s.41.08.56.23c.15.15.23.34.23.56s-.08.41-.23.57ZM137.71,47.93h-1.39v-4.35h1.39v4.35Z"/>
    <path class="cls-12" d="M145.35,47.93h-1.39v-2.51c0-.48-.24-.72-.71-.72-.34,0-.62.14-.85.42v2.81h-1.39v-4.35h1.39v.53c.37-.43.87-.64,1.5-.64.48,0,.84.12,1.08.37.24.25.36.58.36,1v3.08Z"/>
    <path class="cls-12" d="M148.16,49.69c-.76,0-1.4-.22-1.93-.65l.6-.99c.31.34.75.5,1.32.5.29,0,.54-.08.77-.22.23-.15.34-.41.34-.77v-.33c-.36.42-.79.63-1.29.63-.56,0-1.02-.19-1.38-.57-.36-.38-.54-.92-.54-1.62s.18-1.23.54-1.62c.36-.38.82-.57,1.38-.57.52,0,.95.21,1.29.62v-.51h1.38v3.96c0,.34-.05.64-.16.9s-.24.47-.4.62c-.16.15-.36.28-.58.38s-.45.17-.67.2c-.22.03-.44.05-.67.05ZM148.44,46.63c.15,0,.3-.04.46-.11.16-.07.28-.17.36-.28v-1.16c-.08-.11-.21-.21-.36-.28-.16-.07-.31-.11-.46-.11-.28,0-.51.08-.69.25-.18.17-.27.4-.27.71s.09.55.27.72c.18.17.41.25.69.25Z"/>
    <path class="cls-12" d="M156,47.93h-1.39v-2.53c0-.47-.24-.7-.72-.7-.33,0-.61.14-.84.42v2.81h-1.39v-6h1.39v2.19c.37-.43.87-.64,1.5-.64.48,0,.84.12,1.08.36s.36.58.36,1v3.1Z"/>
    <path class="cls-12" d="M158.27,42.96c-.15.16-.34.23-.56.23s-.41-.08-.56-.23c-.15-.16-.23-.34-.23-.57s.08-.41.23-.56c.15-.15.34-.23.56-.23s.41.08.56.23c.15.15.23.34.23.56s-.08.41-.23.57ZM158.4,47.93h-1.39v-4.35h1.39v4.35Z"/>
    <path class="cls-12" d="M161.49,48.04c-.68,0-1.25-.21-1.7-.63-.45-.42-.68-.97-.68-1.66,0-.64.22-1.18.65-1.62.43-.44.99-.66,1.66-.66s1.19.22,1.6.66c.41.44.62,1.03.62,1.76v.3h-3.1c.04.22.16.4.35.55.19.15.44.23.74.23.17,0,.36-.03.58-.1.22-.07.39-.16.5-.27l.58.86c-.21.19-.48.33-.81.43-.33.1-.66.15-1.01.15ZM162.88,42.93h-.83l-.62-.73-.59.73h-.82l.81-1.3h1.22l.84,1.3ZM162.33,45.29c-.02-.19-.11-.37-.25-.52-.14-.15-.36-.23-.65-.23-.27,0-.48.08-.62.22-.14.15-.23.32-.27.52h1.79ZM161.94,49.55c-.14.14-.3.21-.5.21s-.36-.07-.5-.21c-.14-.14-.21-.31-.21-.5s.07-.36.21-.5c.14-.14.3-.21.5-.21s.36.07.5.21c.14.14.21.3.21.5s-.07.37-.21.5Z"/>
    <path class="cls-12" d="M171.2,47.93h-1.38v-2.65c0-.39-.19-.58-.58-.58-.31,0-.57.14-.78.42v2.81h-1.39v-2.65c0-.39-.19-.58-.58-.58-.29,0-.55.14-.77.42v2.81h-1.39v-4.35h1.39v.53c.11-.15.3-.29.57-.43s.55-.21.86-.21c.64,0,1.05.26,1.23.77.14-.21.34-.39.62-.54s.57-.23.89-.23c.41,0,.73.11.96.33.23.22.34.54.34.98v3.15Z"/>
    <path class="cls-12" d="M177.11,47.93h-1.48l-1.71-4.35h1.46l.98,2.75.99-2.75h1.47l-1.71,4.35Z"/>
    <path class="cls-12" d="M183.55,47.93h-1.39v-.52c-.37.42-.87.63-1.5.63-.48,0-.84-.12-1.08-.37-.24-.24-.36-.57-.36-.99v-3.1h1.39v2.53c0,.47.24.7.72.7.33,0,.61-.14.83-.42v-2.81h1.37c.06-.09.1-.18.13-.27-.02.02-.06.03-.13.03-.14,0-.25-.05-.34-.14-.09-.1-.13-.22-.13-.37s.06-.28.17-.39c.11-.11.24-.17.39-.17.17,0,.32.06.45.19s.18.3.18.53c0,.5-.23.92-.69,1.25v3.69Z"/>
    <path class="cls-12" d="M189.13,43.13c0,.47-.2.86-.6,1.19.32.41.49.89.49,1.43,0,.64-.22,1.18-.65,1.62-.43.44-1.01.67-1.73.67s-1.29-.22-1.72-.67c-.43-.44-.65-.98-.65-1.62s.22-1.17.65-1.62c.43-.44,1.01-.66,1.72-.66.61,0,1.12.17,1.55.5.19-.15.32-.32.38-.52-.02.02-.06.03-.13.03-.14,0-.25-.05-.34-.14-.09-.09-.14-.21-.14-.36s.06-.29.17-.4c.11-.11.24-.16.39-.16.17,0,.32.06.44.19s.18.3.18.52ZM185.95,46.51c.17.2.39.3.69.3s.53-.1.7-.3c.17-.2.26-.45.26-.76s-.09-.55-.26-.75c-.17-.2-.4-.3-.7-.3s-.52.1-.69.3-.25.45-.25.75.08.56.25.76ZM187.15,49.55c-.14.14-.3.21-.5.21s-.36-.07-.5-.21c-.14-.14-.21-.31-.21-.5s.07-.36.21-.5c.14-.14.3-.21.5-.21s.36.07.5.21c.14.14.21.3.21.5s-.07.37-.21.5Z"/>
    <path class="cls-12" d="M191.39,48.04c-.44,0-.78-.11-1.01-.32-.23-.22-.35-.53-.35-.95v-1.97h-.72v-1.21h.72v-1.19h1.38v1.19h.88v1.21h-.88v1.58c0,.13.03.24.1.32s.16.12.28.12c.17,0,.29-.04.35-.11l.27,1.04c-.2.19-.55.29-1.03.29Z"/>
    <path class="cls-12" d="M196.93,48.04c-.44,0-.78-.11-1.01-.32-.23-.22-.35-.53-.35-.95v-1.97h-.72v-1.21h.72v-1.19h1.38v1.19h.88v1.21h-.88v1.58c0,.13.03.24.1.32s.16.12.28.12c.17,0,.29-.04.35-.11l.27,1.04c-.2.19-.55.29-1.03.29Z"/>
    <path class="cls-12" d="M199.91,47.93h-1.39v-4.35h1.39v.53c.15-.18.35-.33.6-.46s.5-.19.76-.19v1.33c-.11-.02-.22-.04-.34-.04-.19,0-.39.04-.59.11s-.34.17-.43.28v2.77Z"/>
    <path class="cls-12" d="M203.98,48.04c-.71,0-1.29-.22-1.72-.67-.43-.44-.65-.98-.65-1.62s.22-1.17.65-1.62c.43-.44,1.01-.66,1.72-.66s1.3.22,1.73.66c.43.44.65.98.65,1.62s-.22,1.18-.65,1.62c-.43.44-1.01.67-1.73.67ZM205.42,42.93h-.83l-.62-.73-.59.73h-.82l.81-1.3h1.21l.84,1.3ZM203.29,46.51c.17.2.39.3.69.3s.53-.1.7-.3c.17-.2.26-.45.26-.76s-.09-.55-.26-.75c-.17-.2-.4-.3-.7-.3s-.52.1-.69.3-.25.45-.25.75.08.56.25.76ZM204.5,49.55c-.14.14-.3.21-.5.21s-.36-.07-.5-.21c-.14-.14-.21-.31-.21-.5s.07-.36.21-.5c.14-.14.3-.21.5-.21s.36.07.5.21c.14.14.21.3.21.5s-.07.37-.21.5Z"/>
    <path class="cls-12" d="M208.34,42.96c-.15.16-.34.23-.56.23s-.41-.08-.56-.23c-.15-.16-.23-.34-.23-.57s.08-.41.23-.56c.15-.15.34-.23.56-.23s.41.08.56.23c.15.15.23.34.23.56s-.08.41-.23.57ZM208.47,47.93h-1.39v-4.35h1.39v4.35Z"/>
    <path class="cls-12" d="M117.65,57.53h-.66v-4.74h-1.69v-.59h4.05v.59h-1.7v4.74Z"/>
    <path class="cls-12" d="M123.42,57.53h-.6v-2.54c0-.32-.07-.55-.22-.68-.15-.13-.37-.2-.65-.2-.22,0-.43.06-.64.18-.21.12-.38.26-.5.42v2.82h-.6v-5.34h.6v2.03c.15-.18.35-.33.6-.46.25-.13.51-.2.78-.2.82,0,1.23.41,1.23,1.23v2.73Z"/>
    <path class="cls-12" d="M127.82,57.53h-.6v-.54c-.16.18-.36.33-.6.46-.24.12-.5.18-.77.18-.82,0-1.23-.41-1.23-1.23v-2.73h.6v2.54c0,.32.07.55.22.68.15.13.36.2.64.2.22,0,.44-.06.65-.17.21-.11.38-.25.49-.42v-2.84h.6v3.86Z"/>
    <path class="cls-12" d="M134.3,57.53h-.6v-2.54c0-.32-.07-.55-.22-.68-.15-.13-.37-.2-.65-.2-.22,0-.43.06-.64.18-.21.12-.38.26-.5.42v2.82h-.6v-5.34h.6v2.03c.15-.18.35-.33.6-.46.25-.13.51-.2.78-.2.82,0,1.23.41,1.23,1.23v2.73Z"/>
    <path class="cls-12" d="M138.71,57.53h-.6v-.54c-.16.18-.36.33-.6.46-.24.12-.5.18-.77.18-.82,0-1.23-.41-1.23-1.23v-2.73h.6v2.54c0,.32.07.55.22.68.15.13.36.2.64.2.22,0,.44-.06.65-.17.21-.11.38-.25.49-.42v-2.84h.6v3.86ZM138.46,51.93l-1.35,1.15h-.46l1.18-1.15h.62Z"/>
    <path class="cls-12" d="M140.89,57.63c-.28,0-.5-.08-.64-.23-.14-.16-.22-.38-.22-.67v-2.53h-.64v-.53h.64v-1.06h.6v1.06h.78v.53h-.78v2.4c0,.15.03.27.1.36s.16.14.29.14c.18,0,.31-.05.41-.16l.18.45c-.18.17-.42.25-.72.25Z"/>
    <path class="cls-12" d="M145.88,59.1c-.34,0-.63-.04-.87-.12-.24-.08-.47-.23-.69-.45l.3-.45c.29.35.71.53,1.26.53.36,0,.65-.09.89-.28.23-.19.35-.48.35-.88v-.55c-.14.2-.33.37-.56.5-.23.13-.47.19-.74.19-.51,0-.93-.18-1.24-.54-.32-.36-.48-.85-.48-1.46s.16-1.1.48-1.46.73-.54,1.24-.54.96.23,1.3.68v-.58h.6v3.75c0,.59-.17,1.02-.52,1.28s-.79.4-1.32.4ZM145.97,57.05c.23,0,.45-.06.67-.18.22-.12.38-.27.48-.45v-1.69c-.11-.18-.27-.32-.48-.44s-.44-.18-.67-.18c-.38,0-.69.14-.91.41-.22.27-.33.63-.33,1.06s.11.79.34,1.06c.22.27.53.41.9.41Z"/>
    <path class="cls-12" d="M149.22,53.11c-.11,0-.2-.04-.28-.12-.08-.08-.12-.17-.12-.28s.04-.21.12-.29c.08-.08.17-.12.28-.12s.21.04.29.12c.08.08.12.18.12.29s-.04.21-.12.28-.18.12-.29.12ZM149.52,57.53h-.6v-3.86h.6v3.86Z"/>
    <path class="cls-12" d="M153.93,57.53h-.6v-.54c-.16.18-.36.33-.6.46-.24.12-.5.18-.77.18-.82,0-1.23-.41-1.23-1.23v-2.73h.6v2.54c0,.32.07.55.22.68.15.13.36.2.64.2.22,0,.44-.06.65-.17.21-.11.38-.25.49-.42v-2.84h.6v.38c.26-.19.39-.41.41-.65h-.04s-.04,0-.05,0c-.09,0-.17-.03-.23-.09-.06-.06-.09-.14-.09-.24,0-.09.03-.17.1-.24.07-.07.15-.1.24-.1.11,0,.21.04.29.14s.12.21.12.37c0,.23-.07.45-.2.66-.14.21-.32.37-.55.5v3.14ZM152.8,53.1c-.13,0-.25-.04-.35-.12s-.17-.16-.22-.25c-.05-.09-.11-.17-.18-.25-.07-.08-.15-.12-.24-.12-.11,0-.2.06-.28.17-.07.12-.11.29-.11.52h-.36c0-.32.07-.58.2-.78.14-.2.33-.3.57-.3.13,0,.24.04.34.12.1.08.17.16.22.25s.11.17.18.25c.07.08.15.12.24.12.11,0,.2-.06.28-.17.07-.11.11-.29.11-.52h.36c0,.32-.07.58-.2.78-.14.2-.33.3-.57.3Z"/>
    <path class="cls-12" d="M158.9,57.63c-.57,0-1.04-.19-1.39-.58-.36-.39-.54-.87-.54-1.45s.18-1.06.54-1.45c.36-.38.82-.58,1.39-.58s1.07.22,1.42.67l-.4.37c-.25-.34-.57-.5-.98-.5s-.73.14-.97.42-.36.63-.36,1.07.12.8.36,1.08c.24.28.57.42.97.42s.73-.17.98-.5l.4.37c-.35.45-.82.67-1.42.67Z"/>
    <path class="cls-12" d="M164.37,57.53h-.6v-2.54c0-.32-.07-.55-.22-.68-.15-.13-.37-.2-.65-.2-.22,0-.43.06-.64.18-.21.12-.38.26-.5.42v2.82h-.6v-5.34h.6v2.03c.15-.18.35-.33.6-.46.25-.13.51-.2.78-.2.82,0,1.23.41,1.23,1.23v2.73Z"/>
    <path class="cls-12" d="M168.58,57.53h-.6v-.44c-.33.36-.75.54-1.28.54-.36,0-.67-.11-.94-.34s-.41-.54-.41-.94.13-.72.4-.94c.27-.22.58-.33.95-.33.55,0,.98.18,1.28.53v-.7c0-.26-.09-.46-.27-.6-.18-.14-.42-.22-.7-.22-.45,0-.85.18-1.18.54l-.28-.42c.41-.43.93-.64,1.54-.64.44,0,.8.11,1.08.32.28.21.42.54.42.98v2.66ZM166.92,57.19c.48,0,.83-.16,1.06-.48v-.73c-.23-.32-.58-.48-1.06-.48-.28,0-.51.08-.68.24s-.27.36-.27.61.09.45.27.6.41.24.68.24ZM168.15,53.08h-.41l-.66-.85-.64.85h-.41l.76-1.15h.58l.78,1.15Z"/>
    <path class="cls-12" d="M172.99,57.53h-.6v-2.53c0-.33-.07-.56-.22-.69-.15-.14-.36-.2-.64-.2-.22,0-.44.06-.65.18-.21.12-.37.26-.49.42v2.82h-.6v-3.86h.6v.56c.15-.18.35-.33.6-.46.25-.13.51-.2.78-.2.82,0,1.23.42,1.23,1.25v2.71Z"/>
    <path class="cls-12" d="M179.65,57.53h-.77l-1.39-1.74-.64.63v1.1h-.6v-5.34h.6v3.53l2.03-2.06h.76l-1.71,1.75,1.72,2.11Z"/>
    <path class="cls-12" d="M183.58,57.53h-.6v-2.54c0-.32-.07-.55-.22-.68-.15-.13-.37-.2-.65-.2-.22,0-.43.06-.64.18-.21.12-.38.26-.5.42v2.82h-.6v-5.34h.6v2.03c.15-.18.35-.33.6-.46.25-.13.51-.2.78-.2.82,0,1.23.41,1.23,1.23v2.73Z"/>
    <path class="cls-12" d="M187.8,57.53h-.6v-.44c-.33.36-.75.54-1.28.54-.36,0-.67-.11-.94-.34s-.41-.54-.41-.94.13-.72.4-.94c.27-.22.58-.33.95-.33.55,0,.98.18,1.28.53v-.7c0-.26-.09-.46-.27-.6-.18-.14-.42-.22-.7-.22-.45,0-.85.18-1.18.54l-.28-.42c.41-.43.93-.64,1.54-.64.44,0,.8.11,1.08.32.28.21.42.54.42.98v2.66ZM186.13,57.19c.48,0,.83-.16,1.06-.48v-.73c-.23-.32-.58-.48-1.06-.48-.28,0-.51.08-.68.24s-.27.36-.27.61.09.45.27.6.41.24.68.24ZM187.65,51.93l-1.35,1.15h-.46l1.18-1.15h.62Z"/>
    <path class="cls-12" d="M190.7,57.63c-.57,0-1.04-.19-1.39-.58-.36-.39-.54-.87-.54-1.45s.18-1.06.54-1.45c.36-.38.82-.58,1.39-.58s1.07.22,1.42.67l-.4.37c-.25-.34-.57-.5-.98-.5s-.73.14-.97.42-.36.63-.36,1.07.12.8.36,1.08c.24.28.57.42.97.42s.73-.17.98-.5l.4.37c-.35.45-.82.67-1.42.67Z"/>
    <path class="cls-12" d="M196.17,57.53h-.6v-2.54c0-.32-.07-.55-.22-.68-.15-.13-.37-.2-.65-.2-.22,0-.43.06-.64.18-.21.12-.38.26-.5.42v2.82h-.6v-5.34h.6v2.03c.15-.18.35-.33.6-.46.25-.13.51-.2.78-.2.82,0,1.23.41,1.23,1.23v2.73Z"/>
    <path class="cls-12" d="M202.65,57.53h-.6v-2.54c0-.32-.07-.55-.22-.68-.15-.13-.37-.2-.65-.2-.22,0-.43.06-.64.18-.21.12-.38.26-.5.42v2.82h-.6v-5.34h.6v2.03c.15-.18.35-.33.6-.46.25-.13.51-.2.78-.2.82,0,1.23.41,1.23,1.23v2.73Z"/>
    <path class="cls-12" d="M206.87,57.53h-.6v-.44c-.33.36-.75.54-1.28.54-.36,0-.67-.11-.94-.34s-.41-.54-.41-.94.13-.72.4-.94c.27-.22.58-.33.95-.33.55,0,.98.18,1.28.53v-.7c0-.26-.09-.46-.27-.6-.18-.14-.42-.22-.7-.22-.45,0-.85.18-1.18.54l-.28-.42c.41-.43.93-.64,1.54-.64.44,0,.8.11,1.08.32.28.21.42.54.42.98v2.66ZM205.83,53.08h-.46l-1.35-1.15h.62l1.18,1.15ZM205.21,57.19c.48,0,.83-.16,1.06-.48v-.73c-.23-.32-.58-.48-1.06-.48-.28,0-.51.08-.68.24s-.27.36-.27.61.09.45.27.6.41.24.68.24Z"/>
    <path class="cls-12" d="M211.28,57.53h-.6v-2.53c0-.33-.07-.56-.22-.69-.15-.14-.36-.2-.64-.2-.22,0-.44.06-.65.18-.21.12-.37.26-.49.42v2.82h-.6v-3.86h.6v.56c.15-.18.35-.33.6-.46.25-.13.51-.2.78-.2.82,0,1.23.42,1.23,1.25v2.71Z"/>
    <path class="cls-12" d="M214.03,59.1c-.34,0-.63-.04-.87-.12-.24-.08-.47-.23-.69-.45l.3-.45c.29.35.71.53,1.26.53.36,0,.65-.09.89-.28.23-.19.35-.48.35-.88v-.55c-.14.2-.33.37-.56.5-.23.13-.47.19-.74.19-.51,0-.93-.18-1.24-.54-.32-.36-.48-.85-.48-1.46s.16-1.1.48-1.46.73-.54,1.24-.54.96.23,1.3.68v-.58h.6v3.75c0,.59-.17,1.02-.52,1.28s-.79.4-1.32.4ZM214.12,57.05c.23,0,.45-.06.67-.18.22-.12.38-.27.48-.45v-1.69c-.11-.18-.27-.32-.48-.44s-.44-.18-.67-.18c-.38,0-.69.14-.91.41-.22.27-.33.63-.33,1.06s.11.79.34,1.06c.22.27.53.41.9.41Z"/>
  </g>
  <text class="cls-11" transform="translate(236.17 70.49)"><tspan class="cls-5"><tspan x="0" y="0">Doanh thu tăng trưởng</tspan></tspan><tspan class="cls-9"><tspan class="cls-8" x="14.51" y="9.6">L</tspan><tspan class="cls-2" x="18.42" y="9.6">ợi nhuận cải thiện</tspan></tspan></text>
  <text class="cls-1" transform="translate(356.17 42.06)"><tspan class="cls-5"><tspan x="0" y="0">Dữ liệu trực quan</tspan></tspan><tspan class="cls-9"><tspan x="6.61" y="9.6">Quản lý dễ dàng</tspan></tspan><tspan class="cls-9"><tspan x="2.72" y="19.2">kiểm soát chặt chẽ</tspan></tspan></text>
  <text class="cls-3" transform="translate(451 58.49)"><tspan class="cls-5"><tspan x="0" y="0">Kinh</tspan><tspan class="cls-10" x="18.96" y="0"> </tspan><tspan x="21.81" y="0">doanh bền vững – Mở rộng </tspan></tspan><tspan class="cls-9"><tspan x="15.99" y="9.6">Giải phóng giá trị thương hiệu</tspan></tspan></text>
</svg>