<?xml version="1.0" encoding="UTF-8"?>
<svg id="Layer_1" data-name="Layer 1" xmlns="http://www.w3.org/2000/svg" xmlns:xlink="http://www.w3.org/1999/xlink" viewBox="0 0 595.68 74.13">
  <defs>
    <style>
      .cls-1 {
        fill: #3b82f6;
      }

      .cls-2 {
        letter-spacing: 0em;
      }

      .cls-3 {
        fill: #06b6d4;
      }

      .cls-4 {
        fill: none;
        stroke: url(#linear-gradient);
        stroke-miterlimit: 10;
        stroke-width: 2px;
      }

      .cls-5 {
        font-family: ProximaNova-Extrabld, 'Proxima Nova';
        font-size: 9px;
      }

      .cls-6 {
        fill: #f43f5e;
      }

      .cls-7 {
        letter-spacing: -.07em;
      }

      .cls-8 {
        letter-spacing: -.02em;
      }

      .cls-9 {
        font-family: ProximaNova-Regular, 'Proxima Nova';
        font-size: 8px;
      }

      .cls-10 {
        fill: #8b5cf6;
      }

      .cls-11 {
        fill: #d946ef;
      }
    </style>
    <linearGradient id="linear-gradient" x1="0" y1="25.5" x2="595.68" y2="25.5" gradientUnits="userSpaceOnUse">
      <stop offset="0" stop-color="#fb7185"/>
      <stop offset=".25" stop-color="#e879f9"/>
      <stop offset=".5" stop-color="#a78bfa"/>
      <stop offset=".75" stop-color="#60a5fa"/>
      <stop offset="1" stop-color="#22d3ee"/>
    </linearGradient>
  </defs>
  <path class="cls-4" d="M.14,47.42c57.17,7.81,80.32-3.92,102.28-11.73,21.89-7.78,67.55-23.36,99.72-18.33,24,3.75,47.59,20.51,70.06,20.51,36.7,0,70.11-13.97,113.8-25.32,30.44-7.91,36.31,21.58,93.5,21.07,51.17-.45,102.19-28.87,115.91-32.66"/>
  <circle class="cls-6" cx="82.29" cy="40.89" r="8"/>
  <circle class="cls-11" cx="177.97" cy="16.74" r="8"/>
  <circle class="cls-10" cx="286.77" cy="34.75" r="8"/>
  <circle class="cls-1" cx="389.08" cy="12.34" r="8"/>
  <circle class="cls-3" cx="506.99" cy="30.26" r="8"/>
  <text class="cls-6" transform="translate(43.13 62.35)"><tspan class="cls-5"><tspan class="cls-7" x="0" y="0">V</tspan><tspan x="5.66" y="0">ận hành mượt mà</tspan></tspan><tspan class="cls-9"><tspan x="3.67" y="9.6">Giảm áp lực nhân sự</tspan></tspan></text>
  <g>
    <path class="cls-11" d="M138.35,38.22h-1.55v-4.65h-1.68v-1.35h4.9v1.35h-1.67v4.65Z"/>
    <path class="cls-11" d="M141.59,38.22h-1.39v-4.35h1.39v.53c.15-.18.35-.33.6-.46s.5-.19.76-.19v1.33c-.11-.02-.22-.04-.34-.04-.19,0-.39.04-.59.11s-.34.17-.43.28v2.77Z"/>
    <path class="cls-11" d="M147.52,38.22h-1.39v-.43c-.14.16-.33.29-.57.39-.24.1-.5.15-.78.15-.38,0-.72-.12-1.03-.37s-.46-.6-.46-1.06c0-.48.15-.83.45-1.06.3-.22.65-.34,1.04-.34.63,0,1.08.17,1.35.5v-.52c0-.19-.08-.34-.23-.46-.16-.11-.37-.17-.65-.17-.46,0-.87.15-1.23.46l-.5-.87c.53-.45,1.19-.67,1.97-.67.28,0,.53.03.76.09.23.06.44.15.64.27.19.13.35.31.46.54.11.23.17.51.17.84v2.72ZM145.36,37.42c.37,0,.63-.11.77-.32v-.39c-.15-.2-.41-.31-.77-.31-.2,0-.36.04-.5.13-.13.09-.2.21-.2.37s.07.29.2.37c.13.09.3.13.5.13ZM145.27,33.04l-.47-.15c.12-.34.37-.51.75-.51.22,0,.4.05.54.17s.22.28.22.5c0,.13-.04.27-.13.44h-.56c.11-.11.16-.25.16-.41,0-.17-.08-.26-.23-.26-.13,0-.23.08-.28.23Z"/>
    <path class="cls-11" d="M149.79,33.25c-.15.16-.34.23-.56.23s-.41-.08-.56-.23c-.15-.16-.23-.34-.23-.57s.08-.41.23-.56c.15-.15.34-.23.56-.23s.41.08.56.23c.15.15.23.34.23.56s-.08.41-.23.57ZM149.92,38.22h-1.39v-4.35h1.39v4.35Z"/>
    <path class="cls-11" d="M157.56,38.22h-1.39v-2.51c0-.48-.24-.72-.71-.72-.34,0-.62.14-.85.42v2.81h-1.39v-4.35h1.39v.53c.37-.43.87-.64,1.5-.64.48,0,.84.12,1.08.37.24.25.36.58.36,1v3.08Z"/>
    <path class="cls-11" d="M160.38,39.99c-.76,0-1.4-.22-1.93-.65l.6-.99c.31.34.75.5,1.32.5.29,0,.54-.08.77-.22.23-.15.34-.41.34-.77v-.33c-.36.42-.79.63-1.29.63-.56,0-1.02-.19-1.38-.57-.36-.38-.54-.92-.54-1.62s.18-1.23.54-1.62c.36-.38.82-.57,1.38-.57.52,0,.95.21,1.29.62v-.51h1.38v3.96c0,.34-.05.64-.16.9s-.24.47-.4.62c-.16.15-.36.28-.58.38s-.45.17-.67.2c-.22.03-.44.05-.67.05ZM160.66,36.93c.15,0,.3-.04.46-.11.16-.07.28-.17.36-.28v-1.16c-.08-.11-.21-.21-.36-.28-.16-.07-.31-.11-.46-.11-.28,0-.51.08-.69.25-.18.17-.27.4-.27.71s.09.55.27.72c.18.17.41.25.69.25Z"/>
    <path class="cls-11" d="M168.22,38.22h-1.39v-2.53c0-.47-.24-.7-.72-.7-.33,0-.61.14-.84.42v2.81h-1.39v-6h1.39v2.19c.37-.43.87-.64,1.5-.64.48,0,.84.12,1.08.36s.36.58.36,1v3.1Z"/>
    <path class="cls-11" d="M170.48,33.25c-.15.16-.34.23-.56.23s-.41-.08-.56-.23c-.15-.16-.23-.34-.23-.57s.08-.41.23-.56c.15-.15.34-.23.56-.23s.41.08.56.23c.15.15.23.34.23.56s-.08.41-.23.57ZM170.61,38.22h-1.39v-4.35h1.39v4.35Z"/>
    <path class="cls-11" d="M173.71,38.33c-.68,0-1.25-.21-1.7-.63-.45-.42-.68-.97-.68-1.66,0-.64.22-1.18.65-1.62.43-.44.99-.66,1.66-.66s1.19.22,1.6.66c.41.44.62,1.03.62,1.76v.3h-3.1c.04.22.16.4.35.55.19.15.44.23.74.23.17,0,.36-.03.58-.1.22-.07.39-.16.5-.27l.58.86c-.21.19-.48.33-.81.43-.33.1-.66.15-1.01.15ZM175.09,33.22h-.83l-.62-.73-.59.73h-.82l.81-1.3h1.22l.84,1.3ZM174.54,35.59c-.02-.19-.11-.37-.25-.52-.14-.15-.36-.23-.65-.23-.27,0-.48.08-.62.22-.14.15-.23.32-.27.52h1.79ZM174.16,39.84c-.14.14-.3.21-.5.21s-.36-.07-.5-.21c-.14-.14-.21-.31-.21-.5s.07-.36.21-.5c.14-.14.3-.21.5-.21s.36.07.5.21c.14.14.21.3.21.5s-.07.37-.21.5Z"/>
    <path class="cls-11" d="M183.41,38.22h-1.38v-2.65c0-.39-.19-.58-.58-.58-.31,0-.57.14-.78.42v2.81h-1.39v-2.65c0-.39-.19-.58-.58-.58-.29,0-.55.14-.77.42v2.81h-1.39v-4.35h1.39v.53c.11-.15.3-.29.57-.43s.55-.21.86-.21c.64,0,1.05.26,1.23.77.14-.21.34-.39.62-.54s.57-.23.89-.23c.41,0,.73.11.96.33.23.22.34.54.34.98v3.15Z"/>
    <path class="cls-11" d="M189.32,38.22h-1.48l-1.71-4.35h1.46l.98,2.75.99-2.75h1.47l-1.71,4.35Z"/>
    <path class="cls-11" d="M195.76,38.22h-1.39v-.52c-.37.42-.87.63-1.5.63-.48,0-.84-.12-1.08-.37-.24-.24-.36-.57-.36-.99v-3.1h1.39v2.53c0,.47.24.7.72.7.33,0,.61-.14.83-.42v-2.81h1.37c.06-.09.1-.18.13-.27-.02.02-.06.03-.13.03-.14,0-.25-.05-.34-.14-.09-.1-.13-.22-.13-.37s.06-.28.17-.39c.11-.11.24-.17.39-.17.17,0,.32.06.45.19s.18.3.18.53c0,.5-.23.92-.69,1.25v3.69Z"/>
    <path class="cls-11" d="M201.34,33.43c0,.47-.2.86-.6,1.19.32.41.49.89.49,1.43,0,.64-.22,1.18-.65,1.62-.43.44-1.01.67-1.73.67s-1.29-.22-1.72-.67c-.43-.44-.65-.98-.65-1.62s.22-1.17.65-1.62c.43-.44,1.01-.66,1.72-.66.61,0,1.12.17,1.55.5.19-.15.32-.32.38-.52-.02.02-.06.03-.13.03-.14,0-.25-.05-.34-.14-.09-.09-.14-.21-.14-.36s.06-.29.17-.4c.11-.11.24-.16.39-.16.17,0,.32.06.44.19s.18.3.18.52ZM198.16,36.8c.17.2.39.3.69.3s.53-.1.7-.3c.17-.2.26-.45.26-.76s-.09-.55-.26-.75c-.17-.2-.4-.3-.7-.3s-.52.1-.69.3-.25.45-.25.75.08.56.25.76ZM199.36,39.84c-.14.14-.3.21-.5.21s-.36-.07-.5-.21c-.14-.14-.21-.31-.21-.5s.07-.36.21-.5c.14-.14.3-.21.5-.21s.36.07.5.21c.14.14.21.3.21.5s-.07.37-.21.5Z"/>
    <path class="cls-11" d="M203.6,38.33c-.44,0-.78-.11-1.01-.32-.23-.22-.35-.53-.35-.95v-1.97h-.72v-1.21h.72v-1.19h1.38v1.19h.88v1.21h-.88v1.58c0,.13.03.24.1.32s.16.12.28.12c.17,0,.29-.04.35-.11l.27,1.04c-.2.19-.55.29-1.03.29Z"/>
    <path class="cls-11" d="M209.15,38.33c-.44,0-.78-.11-1.01-.32-.23-.22-.35-.53-.35-.95v-1.97h-.72v-1.21h.72v-1.19h1.38v1.19h.88v1.21h-.88v1.58c0,.13.03.24.1.32s.16.12.28.12c.17,0,.29-.04.35-.11l.27,1.04c-.2.19-.55.29-1.03.29Z"/>
    <path class="cls-11" d="M212.13,38.22h-1.39v-4.35h1.39v.53c.15-.18.35-.33.6-.46s.5-.19.76-.19v1.33c-.11-.02-.22-.04-.34-.04-.19,0-.39.04-.59.11s-.34.17-.43.28v2.77Z"/>
    <path class="cls-11" d="M216.19,38.33c-.71,0-1.29-.22-1.72-.67-.43-.44-.65-.98-.65-1.62s.22-1.17.65-1.62c.43-.44,1.01-.66,1.72-.66s1.3.22,1.73.66c.43.44.65.98.65,1.62s-.22,1.18-.65,1.62c-.43.44-1.01.67-1.73.67ZM217.63,33.22h-.83l-.62-.73-.59.73h-.82l.81-1.3h1.21l.84,1.3ZM215.51,36.8c.17.2.39.3.69.3s.53-.1.7-.3c.17-.2.26-.45.26-.76s-.09-.55-.26-.75c-.17-.2-.4-.3-.7-.3s-.52.1-.69.3-.25.45-.25.75.08.56.25.76ZM216.71,39.84c-.14.14-.3.21-.5.21s-.36-.07-.5-.21c-.14-.14-.21-.31-.21-.5s.07-.36.21-.5c.14-.14.3-.21.5-.21s.36.07.5.21c.14.14.21.3.21.5s-.07.37-.21.5Z"/>
    <path class="cls-11" d="M220.55,33.25c-.15.16-.34.23-.56.23s-.41-.08-.56-.23c-.15-.16-.23-.34-.23-.57s.08-.41.23-.56c.15-.15.34-.23.56-.23s.41.08.56.23c.15.15.23.34.23.56s-.08.41-.23.57ZM220.68,38.22h-1.39v-4.35h1.39v4.35Z"/>
    <path class="cls-11" d="M144.19,47.93c-.77,0-1.42-.26-1.95-.77-.53-.51-.79-1.18-.79-2s.26-1.48.79-1.99c.53-.51,1.18-.77,1.95-.77.84,0,1.53.33,2.07,1l-.53.33c-.17-.22-.39-.4-.67-.54-.27-.13-.57-.2-.88-.2-.59,0-1.08.2-1.47.61s-.59.93-.59,1.56.2,1.15.59,1.56c.39.41.88.62,1.47.62.29,0,.57-.06.82-.17.25-.11.46-.25.61-.4v-1.09h-1.83v-.59h2.5v1.93c-.55.61-1.25.92-2.1.92Z"/>
    <path class="cls-11" d="M147.64,43.41c-.11,0-.2-.04-.28-.12-.08-.08-.12-.17-.12-.28s.04-.21.12-.29c.08-.08.17-.12.28-.12s.21.04.29.12c.08.08.12.18.12.29s-.04.21-.12.28-.18.12-.29.12ZM147.94,47.82h-.6v-3.86h.6v3.86Z"/>
    <path class="cls-11" d="M152.35,47.82h-.6v-.54c-.16.18-.36.33-.6.46-.24.12-.5.18-.77.18-.82,0-1.23-.41-1.23-1.23v-2.73h.6v2.54c0,.32.07.55.22.68.15.13.36.2.64.2.22,0,.44-.06.65-.17.21-.11.38-.25.49-.42v-2.84h.6v.38c.26-.19.39-.41.41-.65h-.04s-.04,0-.05,0c-.09,0-.17-.03-.23-.09-.06-.06-.09-.14-.09-.24,0-.09.03-.17.1-.24.07-.07.15-.1.24-.1.11,0,.21.04.29.14s.12.21.12.37c0,.23-.07.45-.2.66-.14.21-.32.37-.55.5v3.14ZM151.22,43.39c-.13,0-.25-.04-.35-.12s-.17-.16-.22-.25c-.05-.09-.11-.17-.18-.25-.07-.08-.15-.12-.24-.12-.11,0-.2.06-.28.17-.07.12-.11.29-.11.52h-.36c0-.32.07-.58.2-.78.14-.2.33-.3.57-.3.13,0,.24.04.34.12.1.08.17.16.22.25s.11.17.18.25c.07.08.15.12.24.12.11,0,.2-.06.28-.17.07-.11.11-.29.11-.52h.36c0,.32-.07.58-.2.78-.14.2-.33.3-.57.3Z"/>
    <path class="cls-11" d="M157.32,47.92c-.57,0-1.04-.19-1.39-.58-.36-.39-.54-.87-.54-1.45s.18-1.06.54-1.45c.36-.38.82-.58,1.39-.58s1.07.22,1.42.67l-.4.37c-.25-.34-.57-.5-.98-.5s-.73.14-.97.42-.36.63-.36,1.07.12.8.36,1.08c.24.28.57.42.97.42s.73-.17.98-.5l.4.37c-.35.45-.82.67-1.42.67Z"/>
    <path class="cls-11" d="M162.79,47.82h-.6v-2.54c0-.32-.07-.55-.22-.68-.15-.13-.37-.2-.65-.2-.22,0-.43.06-.64.18-.21.12-.38.26-.5.42v2.82h-.6v-5.34h.6v2.03c.15-.18.35-.33.6-.46.25-.13.51-.2.78-.2.82,0,1.23.41,1.23,1.23v2.73Z"/>
    <path class="cls-11" d="M167.01,47.82h-.6v-.44c-.33.36-.75.54-1.28.54-.36,0-.67-.11-.94-.34s-.41-.54-.41-.94.13-.72.4-.94c.27-.22.58-.33.95-.33.55,0,.98.18,1.28.53v-.7c0-.26-.09-.46-.27-.6-.18-.14-.42-.22-.7-.22-.45,0-.85.18-1.18.54l-.28-.42c.41-.43.93-.64,1.54-.64.44,0,.8.11,1.08.32.28.21.42.54.42.98v2.66ZM165.34,47.49c.48,0,.83-.16,1.06-.48v-.73c-.23-.32-.58-.48-1.06-.48-.28,0-.51.08-.68.24s-.27.36-.27.61.09.45.27.6.41.24.68.24ZM166.58,43.37h-.41l-.66-.85-.64.85h-.41l.76-1.15h.58l.78,1.15Z"/>
    <path class="cls-11" d="M171.42,47.82h-.6v-2.53c0-.33-.07-.56-.22-.69-.15-.14-.36-.2-.64-.2-.22,0-.44.06-.65.18-.21.12-.37.26-.49.42v2.82h-.6v-3.86h.6v.56c.15-.18.35-.33.6-.46.25-.13.51-.2.78-.2.82,0,1.23.42,1.23,1.25v2.71Z"/>
    <path class="cls-11" d="M178.08,47.82h-.77l-1.39-1.74-.64.63v1.1h-.6v-5.34h.6v3.53l2.03-2.06h.76l-1.71,1.75,1.72,2.11Z"/>
    <path class="cls-11" d="M182.01,47.82h-.6v-2.54c0-.32-.07-.55-.22-.68-.15-.13-.37-.2-.65-.2-.22,0-.43.06-.64.18-.21.12-.38.26-.5.42v2.82h-.6v-5.34h.6v2.03c.15-.18.35-.33.6-.46.25-.13.51-.2.78-.2.82,0,1.23.41,1.23,1.23v2.73Z"/>
    <path class="cls-11" d="M186.22,47.82h-.6v-.44c-.33.36-.75.54-1.28.54-.36,0-.67-.11-.94-.34s-.41-.54-.41-.94.13-.72.4-.94c.27-.22.58-.33.95-.33.55,0,.98.18,1.28.53v-.7c0-.26-.09-.46-.27-.6-.18-.14-.42-.22-.7-.22-.45,0-.85.18-1.18.54l-.28-.42c.41-.43.93-.64,1.54-.64.44,0,.8.11,1.08.32.28.21.42.54.42.98v2.66ZM184.56,47.49c.48,0,.83-.16,1.06-.48v-.73c-.23-.32-.58-.48-1.06-.48-.28,0-.51.08-.68.24s-.27.36-.27.61.09.45.27.6.41.24.68.24ZM186.08,42.22l-1.35,1.15h-.46l1.18-1.15h.62Z"/>
    <path class="cls-11" d="M189.13,47.92c-.57,0-1.04-.19-1.39-.58-.36-.39-.54-.87-.54-1.45s.18-1.06.54-1.45c.36-.38.82-.58,1.39-.58s1.07.22,1.42.67l-.4.37c-.25-.34-.57-.5-.98-.5s-.73.14-.97.42-.36.63-.36,1.07.12.8.36,1.08c.24.28.57.42.97.42s.73-.17.98-.5l.4.37c-.35.45-.82.67-1.42.67Z"/>
    <path class="cls-11" d="M194.6,47.82h-.6v-2.54c0-.32-.07-.55-.22-.68-.15-.13-.37-.2-.65-.2-.22,0-.43.06-.64.18-.21.12-.38.26-.5.42v2.82h-.6v-5.34h.6v2.03c.15-.18.35-.33.6-.46.25-.13.51-.2.78-.2.82,0,1.23.41,1.23,1.23v2.73Z"/>
    <path class="cls-11" d="M201.08,47.82h-.6v-2.54c0-.32-.07-.55-.22-.68-.15-.13-.37-.2-.65-.2-.22,0-.43.06-.64.18-.21.12-.38.26-.5.42v2.82h-.6v-5.34h.6v2.03c.15-.18.35-.33.6-.46.25-.13.51-.2.78-.2.82,0,1.23.41,1.23,1.23v2.73Z"/>
    <path class="cls-11" d="M205.3,47.82h-.6v-.44c-.33.36-.75.54-1.28.54-.36,0-.67-.11-.94-.34s-.41-.54-.41-.94.13-.72.4-.94c.27-.22.58-.33.95-.33.55,0,.98.18,1.28.53v-.7c0-.26-.09-.46-.27-.6-.18-.14-.42-.22-.7-.22-.45,0-.85.18-1.18.54l-.28-.42c.41-.43.93-.64,1.54-.64.44,0,.8.11,1.08.32.28.21.42.54.42.98v2.66ZM204.25,43.37h-.46l-1.35-1.15h.62l1.18,1.15ZM203.63,47.49c.48,0,.83-.16,1.06-.48v-.73c-.23-.32-.58-.48-1.06-.48-.28,0-.51.08-.68.24s-.27.36-.27.61.09.45.27.6.41.24.68.24Z"/>
    <path class="cls-11" d="M209.7,47.82h-.6v-2.53c0-.33-.07-.56-.22-.69-.15-.14-.36-.2-.64-.2-.22,0-.44.06-.65.18-.21.12-.37.26-.49.42v2.82h-.6v-3.86h.6v.56c.15-.18.35-.33.6-.46.25-.13.51-.2.78-.2.82,0,1.23.42,1.23,1.25v2.71Z"/>
    <path class="cls-11" d="M212.45,49.39c-.34,0-.63-.04-.87-.12-.24-.08-.47-.23-.69-.45l.3-.45c.29.35.71.53,1.26.53.36,0,.65-.09.89-.28.23-.19.35-.48.35-.88v-.55c-.14.2-.33.37-.56.5-.23.13-.47.19-.74.19-.51,0-.93-.18-1.24-.54-.32-.36-.48-.85-.48-1.46s.16-1.1.48-1.46.73-.54,1.24-.54.96.23,1.3.68v-.58h.6v3.75c0,.59-.17,1.02-.52,1.28s-.79.4-1.32.4ZM212.54,47.34c.23,0,.45-.06.67-.18.22-.12.38-.27.48-.45v-1.69c-.11-.18-.27-.32-.48-.44s-.44-.18-.67-.18c-.38,0-.69.14-.91.41-.22.27-.33.63-.33,1.06s.11.79.34,1.06c.22.27.53.41.9.41Z"/>
  </g>
  <text class="cls-10" transform="translate(239.37 54.01)"><tspan class="cls-5"><tspan x="0" y="0">Doanh thu tăng trưởng</tspan></tspan><tspan class="cls-9"><tspan class="cls-8" x="14.51" y="9.6">L</tspan><tspan class="cls-2" x="18.42" y="9.6">ợi nhuận cải thiện</tspan></tspan></text>
  <g>
    <path class="cls-1" d="M362.63,32.49h-1.55v-3.91l-1.52,3.91h-.68l-1.51-3.91v3.91h-1.55v-6h2.15l1.25,3.26,1.26-3.26h2.15v6Z"/>
    <path class="cls-1" d="M368.25,27.69c0,.47-.2.86-.6,1.19.32.41.49.89.49,1.43,0,.64-.22,1.18-.65,1.62-.43.44-1.01.67-1.73.67s-1.29-.22-1.72-.67c-.43-.44-.65-.98-.65-1.62s.22-1.17.65-1.62c.43-.44,1-.66,1.72-.66.61,0,1.12.17,1.55.5.19-.15.32-.32.38-.52-.02.02-.06.03-.13.03-.14,0-.25-.05-.34-.14-.09-.09-.13-.21-.13-.36s.06-.29.17-.4c.11-.11.24-.16.39-.16.17,0,.32.06.44.19s.18.3.18.52ZM365.07,31.07c.17.2.39.3.69.3s.53-.1.7-.3c.17-.2.26-.45.26-.76s-.08-.55-.26-.75c-.17-.2-.4-.3-.7-.3s-.52.1-.69.3-.25.45-.25.75.08.56.25.76ZM365.48,27.3l-.47-.15c.12-.34.37-.51.75-.51.22,0,.4.05.54.17.14.11.22.28.22.5,0,.13-.04.27-.13.44h-.56c.11-.11.16-.25.16-.41,0-.17-.08-.26-.23-.26-.13,0-.22.08-.28.23Z"/>
    <path class="cls-1" d="M372.55,32.49h-1.39v-4.35h1.39v.53c.15-.18.35-.33.6-.46s.5-.19.76-.19v1.33c-.11-.02-.22-.04-.34-.04-.19,0-.39.04-.59.11s-.34.17-.43.28v2.77Z"/>
    <path class="cls-1" d="M376.62,32.59c-.71,0-1.29-.22-1.72-.67-.43-.44-.65-.98-.65-1.62s.22-1.17.65-1.62c.43-.44,1.01-.66,1.72-.66s1.3.22,1.73.66c.43.44.65.98.65,1.62s-.22,1.18-.65,1.62c-.43.44-1.01.67-1.73.67ZM378.06,27.48h-.83l-.62-.73-.59.73h-.82l.81-1.3h1.21l.84,1.3ZM375.93,31.07c.17.2.39.3.69.3s.53-.1.7-.3c.17-.2.26-.45.26-.76s-.09-.55-.26-.75-.4-.3-.7-.3-.52.1-.69.3-.25.45-.25.75.08.56.25.76ZM377.13,34.11c-.14.14-.3.21-.5.21s-.36-.07-.5-.21c-.14-.14-.21-.31-.21-.5s.07-.36.21-.5.3-.21.5-.21.36.07.5.21c.14.14.21.3.21.5s-.07.37-.21.5Z"/>
    <path class="cls-1" d="M384.05,32.49h-1.39v-2.51c0-.48-.24-.72-.71-.72-.34,0-.62.14-.85.42v2.81h-1.39v-4.35h1.39v.53c.37-.43.87-.64,1.5-.64.48,0,.84.12,1.08.37.24.25.36.58.36,1v3.08Z"/>
    <path class="cls-1" d="M386.87,34.25c-.76,0-1.4-.22-1.93-.65l.6-.99c.31.34.75.5,1.32.5.29,0,.54-.08.77-.22.22-.15.34-.41.34-.77v-.33c-.36.42-.79.63-1.29.63-.56,0-1.02-.19-1.38-.57-.36-.38-.54-.92-.54-1.62s.18-1.23.54-1.62c.36-.38.82-.57,1.38-.57.52,0,.95.21,1.29.62v-.51h1.38v3.96c0,.34-.05.64-.16.9-.1.26-.24.47-.4.62-.16.15-.36.28-.58.38-.23.1-.45.17-.67.2-.22.03-.44.05-.67.05ZM387.15,31.19c.15,0,.3-.04.46-.11.16-.07.28-.17.36-.28v-1.16c-.08-.11-.21-.21-.36-.28s-.31-.11-.46-.11c-.28,0-.51.08-.69.25-.18.17-.26.4-.26.71s.09.55.26.72c.18.17.41.25.69.25Z"/>
    <path class="cls-1" d="M394.3,32.59c-.56,0-1.02-.2-1.38-.6-.35-.4-.53-.96-.53-1.68s.18-1.27.53-1.67c.35-.4.81-.6,1.38-.6.52,0,.95.2,1.29.61v-.5h1.39v6h-1.39v-2.17c-.34.41-.77.62-1.29.62ZM394.76,31.37c.14,0,.3-.04.46-.11s.28-.17.36-.28v-1.32c-.08-.11-.21-.21-.37-.28-.16-.08-.31-.11-.45-.11-.28,0-.51.1-.69.29-.18.19-.27.45-.27.77s.09.58.27.77c.18.19.41.29.69.29Z"/>
    <path class="cls-1" d="M402.3,32.49h-1.39v-.52c-.37.42-.87.63-1.5.63-.48,0-.84-.12-1.08-.37-.24-.24-.36-.57-.36-.99v-3.1h1.39v2.53c0,.47.24.7.72.7.33,0,.61-.14.83-.42v-2.81h1.39v4.35Z"/>
    <path class="cls-1" d="M403.22,34.18l.2-1.23c.1.05.21.08.34.08.32,0,.52-.08.58-.24l.1-.23-1.73-4.41h1.46l.98,2.75.99-2.75h1.47l-1.96,4.97c-.16.43-.39.72-.69.88-.3.16-.68.25-1.14.26-.24,0-.44-.02-.59-.07Z"/>
    <path class="cls-1" d="M417.18,32.49h-1.38v-2.65c0-.39-.19-.58-.58-.58-.31,0-.57.14-.78.42v2.81h-1.39v-2.65c0-.39-.19-.58-.58-.58-.29,0-.55.14-.77.42v2.81h-1.39v-4.35h1.39v.53c.11-.15.3-.29.57-.43.26-.14.55-.21.86-.21.64,0,1.05.26,1.23.77.14-.21.34-.39.62-.54.27-.15.57-.23.89-.23.41,0,.74.11.96.33.23.22.34.54.34.98v3.15Z"/>
    <path class="cls-1" d="M420.28,32.59c-.71,0-1.29-.22-1.72-.67-.43-.44-.65-.98-.65-1.62s.22-1.17.65-1.62c.43-.44,1.01-.66,1.72-.66s1.3.22,1.73.66c.43.44.65.98.65,1.62s-.22,1.18-.65,1.62c-.43.44-1.01.67-1.73.67ZM421.73,27.48h-.83l-.62-.73-.59.73h-.82l.81-1.3h1.21l.84,1.3ZM419.59,31.07c.17.2.39.3.69.3s.53-.1.7-.3c.17-.2.26-.45.26-.76s-.09-.55-.26-.75-.4-.3-.7-.3-.52.1-.69.3-.25.45-.25.75.08.56.25.76Z"/>
    <path class="cls-1" d="M355.13,42.09h-.64l-3.11-4.26v4.26h-.66v-5.34h.68l3.07,4.17v-4.17h.66v5.34Z"/>
    <path class="cls-1" d="M359.37,42.09h-.6v-.44c-.33.36-.75.54-1.28.54-.36,0-.67-.11-.94-.34-.27-.23-.41-.54-.41-.94s.13-.72.4-.94.58-.33.95-.33c.55,0,.98.18,1.28.53v-.7c0-.26-.09-.46-.27-.6-.18-.14-.42-.22-.7-.22-.45,0-.85.18-1.18.54l-.28-.42c.41-.43.93-.64,1.54-.64.44,0,.8.11,1.08.32.28.21.42.54.42.98v2.66ZM357.71,41.75c.48,0,.83-.16,1.06-.48v-.73c-.23-.32-.58-.48-1.06-.48-.28,0-.5.08-.68.24s-.27.36-.27.61.09.45.27.6.41.24.68.24ZM358.94,37.64h-.41l-.66-.85-.64.85h-.41l.76-1.15h.58l.78,1.15Z"/>
    <path class="cls-1" d="M363.78,42.09h-.6v-2.53c0-.33-.07-.56-.22-.69-.15-.14-.36-.2-.64-.2-.22,0-.44.06-.65.18s-.38.26-.49.42v2.82h-.6v-3.86h.6v.56c.15-.18.35-.33.6-.46.25-.13.51-.2.78-.2.82,0,1.23.42,1.23,1.25v2.71Z"/>
    <path class="cls-1" d="M366.53,43.65c-.34,0-.63-.04-.87-.12-.24-.08-.47-.23-.69-.45l.3-.45c.29.35.71.53,1.26.53.36,0,.65-.09.89-.28s.35-.48.35-.88v-.55c-.14.2-.33.37-.56.5-.23.13-.47.19-.74.19-.51,0-.93-.18-1.24-.54-.32-.36-.48-.85-.48-1.46s.16-1.1.48-1.46.73-.54,1.24-.54.96.23,1.3.68v-.58h.6v3.75c0,.59-.17,1.02-.52,1.28s-.79.4-1.32.4ZM366.62,41.61c.23,0,.45-.06.67-.18s.38-.27.48-.45v-1.69c-.11-.18-.27-.32-.48-.44-.21-.12-.44-.18-.67-.18-.38,0-.69.14-.91.41-.22.27-.33.63-.33,1.06s.11.79.34,1.06c.22.27.53.41.9.41Z"/>
    <path class="cls-1" d="M372.61,42.18c-.28,0-.5-.08-.64-.23-.14-.16-.22-.38-.22-.67v-2.53h-.64v-.53h.64v-1.06h.6v1.06h.78v.53h-.78v2.4c0,.15.03.27.1.36.07.09.16.14.29.14.18,0,.31-.05.41-.16l.18.45c-.18.17-.42.25-.72.25Z"/>
    <path class="cls-1" d="M374.74,37.08h-.46l-1.35-1.15h.62l1.18,1.15ZM377,42.09h-.6v-.44c-.33.36-.75.54-1.28.54-.36,0-.67-.11-.94-.34-.27-.23-.41-.54-.41-.94s.13-.72.4-.94.58-.33.95-.33c.55,0,.98.18,1.28.53v-.7c0-.26-.09-.46-.27-.6-.18-.14-.42-.22-.7-.22-.45,0-.85.18-1.18.54l-.28-.42c.41-.43.93-.64,1.54-.64.44,0,.8.11,1.08.32.28.21.42.54.42.98v2.66ZM375.34,41.75c.48,0,.83-.16,1.06-.48v-.73c-.23-.32-.58-.48-1.06-.48-.28,0-.5.08-.68.24s-.27.36-.27.61.09.45.27.6.41.24.68.24ZM376.57,37.64h-.41l-.66-.85-.64.85h-.41l.76-1.15h.58l.78,1.15Z"/>
    <path class="cls-1" d="M383.47,42.09h-.6v-2.62c0-.53-.24-.8-.71-.8-.19,0-.38.06-.58.18-.19.12-.34.26-.45.42v2.83h-.6v-2.62c0-.53-.24-.8-.71-.8-.19,0-.37.06-.56.18s-.34.26-.45.42v2.82h-.6v-3.86h.6v.56c.1-.15.26-.3.5-.44.24-.14.49-.22.74-.22.28,0,.51.07.69.2.18.13.29.31.35.52.12-.19.3-.36.54-.5.24-.14.49-.22.76-.22.72,0,1.08.39,1.08,1.17v2.79Z"/>
    <path class="cls-1" d="M387.71,42.18c-.28,0-.5-.08-.64-.23-.14-.16-.22-.38-.22-.67v-2.53h-.64v-.53h.64v-1.06h.6v1.06h.78v.53h-.78v2.4c0,.15.03.27.1.36.07.09.16.14.29.14.18,0,.31-.05.41-.16l.18.45c-.18.17-.42.25-.72.25Z"/>
    <path class="cls-1" d="M392.3,42.09h-.6v-2.54c0-.32-.07-.55-.22-.68-.15-.13-.37-.2-.65-.2-.22,0-.43.06-.64.18s-.38.26-.5.42v2.82h-.6v-5.34h.6v2.03c.15-.18.35-.33.6-.46.25-.13.51-.2.78-.2.82,0,1.23.41,1.23,1.23v2.73Z"/>
    <path class="cls-1" d="M396.71,42.09h-.6v-.54c-.16.18-.36.33-.6.46-.24.12-.5.18-.77.18-.82,0-1.23-.41-1.23-1.23v-2.73h.6v2.54c0,.32.07.55.22.68.15.13.36.2.64.2.22,0,.44-.06.65-.17.21-.11.38-.25.49-.42v-2.84h.6v.38c.26-.19.39-.41.41-.65h-.04s-.04,0-.05,0c-.09,0-.17-.03-.23-.09s-.09-.14-.09-.24c0-.09.03-.17.1-.24.07-.07.15-.1.24-.1.11,0,.21.04.29.14s.12.21.12.37c0,.23-.07.45-.2.66s-.32.37-.55.5v3.14Z"/>
    <path class="cls-1" d="M401.52,37.85c0,.38-.16.7-.46.96.3.36.45.81.45,1.34,0,.58-.17,1.06-.52,1.45-.35.39-.81.58-1.39.58s-1.04-.19-1.39-.58c-.35-.39-.52-.87-.52-1.45s.17-1.06.52-1.44c.35-.39.81-.58,1.39-.58.49,0,.91.15,1.26.46.2-.17.31-.36.34-.58,0,0-.02,0-.04,0s-.04,0-.05,0c-.09,0-.17-.03-.23-.09s-.09-.14-.09-.24c0-.09.03-.17.1-.24.07-.07.15-.1.24-.1.11,0,.21.05.28.14.08.09.12.21.12.37ZM398.65,41.21c.23.29.54.44.94.44s.71-.14.94-.44.34-.64.34-1.06-.11-.77-.34-1.06-.54-.43-.94-.43-.71.15-.94.44c-.23.29-.35.64-.35,1.05s.12.77.35,1.06Z"/>
    <path class="cls-1" d="M405.69,42.09h-.6v-2.53c0-.33-.07-.56-.22-.69-.15-.14-.36-.2-.64-.2-.22,0-.44.06-.65.18s-.38.26-.49.42v2.82h-.6v-3.86h.6v.56c.15-.18.35-.33.6-.46.25-.13.51-.2.78-.2.82,0,1.23.42,1.23,1.25v2.71Z"/>
    <path class="cls-1" d="M408.44,43.65c-.34,0-.63-.04-.87-.12-.24-.08-.47-.23-.69-.45l.3-.45c.29.35.71.53,1.26.53.36,0,.65-.09.89-.28s.35-.48.35-.88v-.55c-.14.2-.33.37-.56.5-.23.13-.47.19-.74.19-.51,0-.93-.18-1.24-.54-.32-.36-.48-.85-.48-1.46s.16-1.1.48-1.46.73-.54,1.24-.54.96.23,1.3.68v-.58h.6v3.75c0,.59-.17,1.02-.52,1.28s-.79.4-1.32.4ZM408.53,41.61c.23,0,.45-.06.67-.18s.38-.27.48-.45v-1.69c-.11-.18-.27-.32-.48-.44-.21-.12-.44-.18-.67-.18-.38,0-.69.14-.91.41-.22.27-.33.63-.33,1.06s.11.79.34,1.06c.22.27.53.41.9.41Z"/>
    <path class="cls-1" d="M416.76,42.09h-.6v-2.54c0-.32-.08-.55-.22-.68-.15-.13-.37-.2-.65-.2-.22,0-.43.06-.64.18-.21.12-.38.26-.5.42v2.82h-.6v-5.34h.6v2.03c.15-.18.35-.33.6-.46s.51-.2.78-.2c.82,0,1.23.41,1.23,1.23v2.73Z"/>
    <path class="cls-1" d="M418.26,37.67c-.11,0-.2-.04-.28-.12-.08-.08-.12-.17-.12-.28s.04-.21.12-.29c.08-.08.17-.12.28-.12.11,0,.21.04.29.12.08.08.12.18.12.29s-.04.21-.12.28-.18.12-.29.12ZM418.56,42.09h-.6v-3.86h.6v3.86Z"/>
    <path class="cls-1" d="M421.5,42.18c-.58,0-1.05-.19-1.42-.56s-.55-.87-.55-1.47c0-.57.18-1.04.54-1.44.36-.39.82-.59,1.36-.59.57,0,1.02.2,1.36.59s.5.89.5,1.48v.15h-3.13c.03.38.17.7.42.95s.58.38.98.38c.48,0,.88-.16,1.19-.49l.29.39c-.39.39-.91.59-1.54.59ZM422.7,39.91c0-.33-.12-.63-.34-.89-.22-.26-.53-.4-.94-.4-.38,0-.69.13-.91.39-.22.26-.34.56-.36.9h2.54ZM422.51,37.64h-.41l-.66-.85-.64.85h-.41l.76-1.15h.58l.78,1.15ZM421.71,43.45c-.07.07-.16.11-.26.11s-.19-.04-.26-.11c-.07-.08-.11-.16-.11-.26s.04-.19.11-.26.16-.11.26-.11.19.04.26.11.11.16.11.27-.04.2-.11.27Z"/>
    <path class="cls-1" d="M427.47,42.09h-.6v-.54c-.16.18-.36.33-.6.46-.24.12-.5.18-.77.18-.82,0-1.23-.41-1.23-1.23v-2.73h.6v2.54c0,.32.07.55.22.68.15.13.36.2.64.2.22,0,.44-.06.65-.17.21-.11.38-.25.49-.42v-2.84h.6v3.86Z"/>
  </g>
  <g>
    <path class="cls-3" d="M481.86,47.22h-2.53v-6h2.52c.96,0,1.74.27,2.34.81.6.54.9,1.27.9,2.19s-.3,1.65-.9,2.19c-.6.54-1.38.81-2.34.81ZM481.85,45.87c.51,0,.92-.16,1.21-.48.3-.32.45-.71.45-1.17,0-.49-.14-.88-.43-1.19-.29-.31-.7-.46-1.22-.46h-.98v3.3h.97Z"/>
    <path class="cls-3" d="M490.16,47.22h-1.39v-.52c-.37.42-.87.63-1.5.63-.48,0-.84-.12-1.08-.37-.24-.24-.36-.57-.36-.99v-3.1h1.39v2.53c0,.47.24.7.72.7.33,0,.61-.14.83-.42v-2.81h1.37c.06-.09.11-.18.13-.27-.02.02-.06.03-.13.03-.14,0-.25-.05-.34-.14-.09-.1-.13-.22-.13-.37s.05-.28.17-.39c.11-.11.24-.17.39-.17.17,0,.32.06.45.19s.18.3.18.53c0,.5-.23.92-.69,1.25v3.69ZM488.48,42.23c-.17,0-.32-.04-.45-.13s-.24-.17-.33-.25-.17-.12-.24-.12c-.18,0-.27.15-.27.44h-.7c0-.8.34-1.21,1.02-1.21.17,0,.32.04.44.13s.24.17.33.25.18.12.25.12c.18,0,.27-.15.27-.44h.7c0,.8-.34,1.21-1.02,1.21Z"/>
    <path class="cls-3" d="M494.85,47.22h-1.39v-6h1.39v6Z"/>
    <path class="cls-3" d="M497.12,42.25c-.15.16-.34.23-.56.23s-.41-.08-.56-.23-.23-.34-.23-.57.08-.41.23-.56.34-.23.56-.23.41.08.56.23.23.34.23.56-.08.41-.23.57ZM497.25,47.22h-1.39v-4.35h1.39v4.35Z"/>
    <path class="cls-3" d="M500.34,47.33c-.68,0-1.25-.21-1.7-.63s-.67-.97-.67-1.66c0-.64.22-1.18.65-1.62.43-.44.99-.66,1.66-.66s1.19.22,1.6.66c.41.44.62,1.03.62,1.76v.3h-3.1c.04.22.16.4.35.55.19.15.44.23.74.23.17,0,.36-.03.58-.1s.39-.16.5-.27l.58.86c-.21.19-.48.33-.81.43-.33.1-.67.15-1.01.15ZM501.73,42.22h-.83l-.62-.73-.59.73h-.82l.81-1.3h1.21l.84,1.3ZM501.18,44.58c-.02-.19-.11-.37-.25-.52-.14-.15-.36-.23-.65-.23-.27,0-.48.08-.62.22-.14.15-.23.32-.27.52h1.79ZM500.79,48.84c-.14.14-.3.21-.5.21s-.36-.07-.5-.21c-.14-.14-.21-.31-.21-.5s.07-.36.21-.5c.14-.14.3-.21.5-.21s.36.07.5.21.21.3.21.5-.07.37-.21.5Z"/>
    <path class="cls-3" d="M507.51,47.22h-1.39v-.52c-.37.42-.87.63-1.5.63-.48,0-.84-.12-1.08-.37-.24-.24-.36-.57-.36-.99v-3.1h1.39v2.53c0,.47.24.7.72.7.33,0,.61-.14.83-.42v-2.81h1.39v4.35Z"/>
    <path class="cls-3" d="M513.41,47.22h-1.48l-1.71-4.35h1.46l.98,2.75.99-2.75h1.47l-1.71,4.35Z"/>
    <path class="cls-3" d="M517.61,47.33c-.71,0-1.29-.22-1.72-.67-.43-.44-.65-.98-.65-1.62s.22-1.17.65-1.62c.43-.44,1.01-.66,1.72-.66s1.3.22,1.73.66c.43.44.65.98.65,1.62s-.22,1.18-.65,1.62c-.43.44-1.01.67-1.73.67ZM519.06,42.22h-.83l-.62-.73-.59.73h-.82l.81-1.3h1.21l.84,1.3ZM516.93,45.8c.17.2.39.3.69.3s.53-.1.7-.3c.17-.2.26-.45.26-.76s-.09-.55-.26-.75-.4-.3-.7-.3-.52.1-.69.3-.25.45-.25.75.08.56.25.76Z"/>
    <path class="cls-3" d="M524.83,48.98c-.76,0-1.4-.22-1.93-.65l.6-.99c.31.34.75.5,1.32.5.29,0,.54-.08.77-.22.23-.15.34-.41.34-.77v-.33c-.36.42-.79.63-1.29.63-.56,0-1.02-.19-1.38-.57s-.54-.92-.54-1.62.18-1.23.54-1.62c.36-.38.82-.57,1.38-.57.52,0,.95.21,1.29.62v-.51h1.38v3.96c0,.34-.05.64-.16.9-.11.26-.24.47-.4.62-.16.15-.36.28-.58.38-.23.1-.45.17-.67.2-.22.03-.44.05-.67.05ZM525.11,45.92c.15,0,.3-.04.46-.11.16-.07.28-.17.36-.28v-1.16c-.08-.11-.21-.21-.36-.28-.16-.07-.31-.11-.46-.11-.28,0-.51.08-.69.25s-.27.4-.27.71.09.55.27.72.41.25.69.25Z"/>
    <path class="cls-3" d="M529.59,42.25c-.15.16-.34.23-.56.23s-.41-.08-.56-.23c-.15-.16-.23-.34-.23-.57s.08-.41.23-.56c.15-.15.34-.23.56-.23s.41.08.56.23c.15.15.23.34.23.56s-.08.41-.23.57ZM529.72,47.22h-1.39v-4.35h1.39v4.35Z"/>
    <path class="cls-3" d="M534.68,47.22h-1.39v-.43c-.14.16-.33.29-.57.39-.24.1-.5.15-.78.15-.38,0-.72-.12-1.03-.37-.31-.25-.46-.6-.46-1.06,0-.48.15-.83.45-1.06.3-.22.65-.34,1.04-.34.63,0,1.08.17,1.35.5v-.52c0-.19-.08-.34-.23-.46-.16-.11-.37-.17-.65-.17-.46,0-.87.15-1.23.46l-.5-.87c.53-.45,1.19-.67,1.97-.67.28,0,.53.03.76.09.23.06.44.15.64.27.19.13.35.31.46.54.11.23.17.51.17.84v2.72ZM532.52,46.42c.37,0,.63-.11.77-.32v-.39c-.15-.2-.41-.31-.77-.31-.2,0-.36.04-.5.13-.13.09-.2.21-.2.37s.07.29.2.37c.13.09.3.13.5.13ZM534.43,40.92l-1.43,1.3h-.94l1.14-1.3h1.22Z"/>
    <path class="cls-3" d="M477.57,56.92c-.78,0-1.43-.26-1.96-.77s-.79-1.18-.79-1.99.26-1.47.79-1.99,1.18-.77,1.96-.77c.85,0,1.53.35,2.02,1.06l-.56.31c-.15-.23-.36-.42-.62-.56-.26-.14-.54-.22-.84-.22-.59,0-1.08.2-1.47.61-.39.41-.59.93-.59,1.56s.2,1.15.59,1.56c.39.41.88.61,1.47.61.3,0,.58-.07.84-.21s.47-.33.62-.56l.57.31c-.52.7-1.2,1.06-2.03,1.06Z"/>
    <path class="cls-3" d="M483.65,56.82h-.6v-2.54c0-.32-.07-.55-.22-.68-.15-.13-.37-.2-.65-.2-.22,0-.43.06-.64.18s-.38.26-.5.42v2.82h-.6v-5.34h.6v2.03c.15-.18.35-.33.6-.46.25-.13.51-.2.78-.2.82,0,1.23.41,1.23,1.23v2.73Z"/>
    <path class="cls-3" d="M485.14,52.4c-.11,0-.2-.04-.28-.12-.08-.08-.12-.17-.12-.28s.04-.21.12-.29c.08-.08.17-.12.28-.12.11,0,.21.04.29.12.08.08.12.18.12.29s-.04.21-.12.28-.18.12-.29.12ZM485.45,56.82h-.6v-3.86h.6v3.86Z"/>
    <path class="cls-3" d="M488.39,56.92c-.58,0-1.05-.19-1.42-.56-.37-.38-.55-.87-.55-1.47,0-.57.18-1.04.54-1.44.36-.39.82-.59,1.36-.59s1.02.2,1.36.59c.33.39.5.89.5,1.48v.15h-3.13c.03.38.17.7.42.95.25.26.58.38.98.38.48,0,.88-.16,1.19-.49l.29.39c-.39.39-.91.59-1.54.59ZM489.59,54.64c0-.33-.12-.63-.34-.89-.22-.26-.53-.4-.94-.4-.38,0-.69.13-.91.39-.22.26-.34.56-.36.9h2.54ZM489.39,52.37h-.41l-.66-.85-.64.85h-.41l.76-1.15h.58l.78,1.15ZM490.88,50.66l-1.35,1.15h-.46l1.18-1.15h.62Z"/>
    <path class="cls-3" d="M494.36,56.82h-.6v-2.53c0-.33-.07-.56-.22-.69-.15-.14-.36-.2-.64-.2-.22,0-.44.06-.65.18s-.38.26-.49.42v2.82h-.6v-3.86h.6v.56c.15-.18.35-.33.6-.46.25-.13.51-.2.78-.2.82,0,1.23.42,1.23,1.25v2.71Z"/>
    <path class="cls-3" d="M498.22,56.82h-.6v-5.34h.6v5.34Z"/>
    <path class="cls-3" d="M502.63,56.82h-.6v-.54c-.16.18-.36.33-.6.46-.24.12-.5.18-.77.18-.82,0-1.23-.41-1.23-1.23v-2.73h.6v2.54c0,.32.07.55.22.68.15.13.36.2.64.2.22,0,.44-.06.65-.17.21-.11.38-.25.49-.42v-2.84h.6v.38c.26-.19.39-.41.41-.65h-.04s-.04,0-.05,0c-.09,0-.17-.03-.23-.09s-.09-.14-.09-.24c0-.09.03-.17.1-.24.07-.07.15-.1.24-.1.11,0,.21.04.29.14s.12.21.12.37c0,.23-.07.45-.2.66s-.32.37-.55.5v3.14Z"/>
    <path class="cls-3" d="M507.45,52.58c0,.38-.15.7-.46.96.3.36.45.81.45,1.34,0,.58-.17,1.06-.52,1.45-.35.39-.81.58-1.39.58s-1.04-.19-1.39-.58c-.35-.39-.52-.87-.52-1.45s.17-1.06.52-1.44c.35-.39.81-.58,1.39-.58.49,0,.91.15,1.26.46.2-.17.31-.36.34-.58,0,0-.02,0-.04,0-.02,0-.04,0-.05,0-.09,0-.17-.03-.23-.09s-.09-.14-.09-.24c0-.09.03-.17.1-.24s.15-.1.24-.1c.11,0,.21.05.28.14.08.09.12.21.12.37ZM504.58,55.94c.23.29.54.44.94.44s.71-.14.94-.44c.23-.29.34-.64.34-1.06s-.12-.77-.34-1.06c-.23-.29-.54-.43-.94-.43s-.71.15-.94.44c-.23.29-.35.64-.35,1.05s.12.77.35,1.06ZM505.78,58.18c-.07.07-.16.11-.26.11s-.19-.04-.26-.11-.11-.16-.11-.26.04-.19.11-.26c.07-.08.16-.11.26-.11s.19.04.26.11c.07.07.11.16.11.27s-.04.2-.11.27Z"/>
    <path class="cls-3" d="M510.11,56.92c-.57,0-1.04-.19-1.39-.58-.36-.39-.54-.87-.54-1.45s.18-1.06.54-1.45c.36-.38.82-.58,1.39-.58s1.07.22,1.42.67l-.4.37c-.25-.34-.57-.5-.98-.5s-.73.14-.97.42c-.24.28-.36.63-.36,1.07s.12.8.36,1.08c.24.28.57.42.97.42s.73-.17.98-.5l.4.37c-.35.45-.82.67-1.42.67Z"/>
    <path class="cls-3" d="M517.83,56.82h-.6v-.58c-.33.45-.77.67-1.3.67s-.93-.18-1.24-.55-.48-.86-.48-1.48.16-1.11.48-1.48c.32-.37.73-.56,1.24-.56s.97.23,1.3.68v-2.06h.6v5.34ZM516.07,56.38c.23,0,.46-.06.67-.18.21-.12.38-.26.49-.43v-1.75c-.11-.18-.28-.32-.49-.44s-.44-.18-.67-.18c-.38,0-.68.14-.9.42-.22.28-.34.64-.34,1.08s.11.79.34,1.07c.22.28.53.42.9.42Z"/>
    <path class="cls-3" d="M522.05,56.82h-.6v-.44c-.33.36-.75.54-1.28.54-.36,0-.67-.11-.94-.34-.27-.23-.41-.54-.41-.94s.13-.72.4-.94c.27-.22.58-.33.95-.33.55,0,.98.18,1.28.53v-.7c0-.26-.09-.46-.27-.6-.18-.14-.42-.22-.7-.22-.45,0-.85.18-1.18.54l-.28-.42c.41-.43.92-.64,1.54-.64.44,0,.8.11,1.08.32.28.21.42.54.42.98v2.66ZM521.01,52.37h-.46l-1.35-1.15h.62l1.18,1.15ZM520.38,56.48c.48,0,.83-.16,1.06-.48v-.73c-.23-.32-.58-.48-1.06-.48-.28,0-.51.08-.68.24s-.27.36-.27.61.09.45.27.6.41.24.68.24Z"/>
    <path class="cls-3" d="M523.54,52.4c-.11,0-.2-.04-.28-.12-.08-.08-.12-.17-.12-.28s.04-.21.12-.29c.08-.08.17-.12.28-.12.11,0,.21.04.29.12.08.08.12.18.12.29s-.04.21-.12.28-.18.12-.29.12ZM523.85,56.82h-.6v-3.86h.6v3.86Z"/>
    <path class="cls-3" d="M530.33,56.82h-.6v-2.54c0-.32-.07-.55-.22-.68-.15-.13-.37-.2-.65-.2-.22,0-.43.06-.64.18s-.38.26-.5.42v2.82h-.6v-5.34h.6v2.03c.15-.18.35-.33.6-.46.25-.13.51-.2.78-.2.82,0,1.23.41,1.23,1.23v2.73Z"/>
    <path class="cls-3" d="M534.54,56.82h-.6v-.44c-.33.36-.75.54-1.28.54-.36,0-.67-.11-.94-.34-.27-.23-.41-.54-.41-.94s.13-.72.4-.94.58-.33.95-.33c.55,0,.98.18,1.28.53v-.7c0-.26-.09-.46-.27-.6-.18-.14-.42-.22-.7-.22-.45,0-.85.18-1.18.54l-.28-.42c.41-.43.93-.64,1.54-.64.44,0,.8.11,1.08.32.28.21.42.54.42.98v2.66ZM532.88,56.48c.48,0,.83-.16,1.06-.48v-.73c-.23-.32-.58-.48-1.06-.48-.28,0-.5.08-.68.24s-.27.36-.27.61.09.45.27.6.41.24.68.24ZM533.3,58.18c-.07.07-.16.11-.26.11s-.19-.04-.26-.11-.11-.16-.11-.26.04-.19.11-.26c.07-.08.16-.11.26-.11s.19.04.26.11.11.16.11.27-.04.2-.11.27Z"/>
    <path class="cls-3" d="M538.95,56.82h-.6v-2.53c0-.33-.07-.56-.22-.69-.15-.14-.36-.2-.64-.2-.22,0-.44.06-.65.18s-.38.26-.49.42v2.82h-.6v-3.86h.6v.56c.15-.18.35-.33.6-.46.25-.13.51-.2.78-.2.82,0,1.23.42,1.23,1.25v2.71Z"/>
  </g>
</svg>