<?xml version="1.0" encoding="UTF-8"?>
<svg xmlns="http://www.w3.org/2000/svg" xmlns:xlink="http://www.w3.org/1999/xlink" id="Gradient" viewBox="0 0 512 512" width="512" height="512"><defs><linearGradient id="linear-gradient" x1="256" y1="496" x2="256" y2="16" gradientUnits="userSpaceOnUse"><stop offset="0" stop-color="#12bee5"/><stop offset="0.5" stop-color="#c071e9"/><stop offset="1" stop-color="#f24f5a"/></linearGradient></defs><path d="M192,56a8,8,0,1,1-8-8A8,8,0,0,1,192,56Zm-40-8a8,8,0,1,0,8,8A8,8,0,0,0,152,48Zm312,72V360a40.045,40.045,0,0,1-40,40H306.246l12,48H344a40.045,40.045,0,0,1,40,40,8,8,0,0,1-8,8H136a8,8,0,0,1-8-8,40.045,40.045,0,0,1,40-40h25.754l12-48H88a40.045,40.045,0,0,1-40-40V120A40.067,40.067,0,0,1,80,80.805V40a24.028,24.028,0,0,1,24-24H408a24.028,24.028,0,0,1,24,24V80.805A40.068,40.068,0,0,1,464,120ZM96,80h98l58.235-31.059a8,8,0,0,1,7.53,0L318,80h98V40a8.009,8.009,0,0,0-8-8H104a8.009,8.009,0,0,0-8,8ZM344.558,288H408a8.009,8.009,0,0,0,8-8V96H348l31.765,16.941a8,8,0,0,1,4.212,7.673c-.331,4.3-8.282,105.688-24.549,146.357C356.434,274.455,351.167,281.493,344.558,288Zm.014-26.971c13.364-33.41,21.16-115.052,23.018-136.448L256,65.067,144.411,124.581c1.858,21.4,9.658,103.051,23.017,136.448C178.06,287.611,232.705,311.438,256,319.55,279.291,311.44,333.94,287.612,344.572,261.029ZM96,280a8.009,8.009,0,0,0,8,8h63.442c-6.609-6.507-11.876-13.545-14.87-21.029C136.305,226.3,128.354,124.91,128.023,120.614a8,8,0,0,1,4.212-7.673L164,96H96ZM64,320H215.843a247.263,247.263,0,0,1-28.289-16H104a24.028,24.028,0,0,1-24-24V97.376A24.038,24.038,0,0,0,64,120ZM168,464a24.042,24.042,0,0,0-22.629,16H366.629A24.042,24.042,0,0,0,344,464Zm133.754-16-12-48H222.246l-12,48ZM448,336H64v24a24.027,24.027,0,0,0,24,24H424a24.027,24.027,0,0,0,24-24Zm0-216a24.039,24.039,0,0,0-16-22.624V280a24.028,24.028,0,0,1-24,24H324.446a247.263,247.263,0,0,1-28.289,16H448ZM120,48a8,8,0,1,0,8,8A8,8,0,0,0,120,48ZM312,184v64a24.027,24.027,0,0,1-24,24H224a24.027,24.027,0,0,1-24-24V184a24.038,24.038,0,0,1,16-22.624V152a40,40,0,0,1,80,0v9.376A24.039,24.039,0,0,1,312,184Zm-80-24h48v-8a24,24,0,0,0-48,0Zm64,24a8.009,8.009,0,0,0-8-8H224a8.009,8.009,0,0,0-8,8v64a8.009,8.009,0,0,0,8,8h64a8.009,8.009,0,0,0,8-8Zm-16,32a24,24,0,1,1-24-24A24.027,24.027,0,0,1,280,216Zm-16,0a8,8,0,1,0-8,8A8.009,8.009,0,0,0,264,216Z" style="fill:url(#linear-gradient)"/></svg>
