<svg enable-background="new 0 0 48 48" height="512" viewBox="0 0 48 48" width="512" xmlns="http://www.w3.org/2000/svg" xmlns:xlink="http://www.w3.org/1999/xlink"><linearGradient id="lg1"><stop offset="0" stop-color="#8416f2"/><stop offset="1" stop-color="#f2388f"/></linearGradient><linearGradient id="SVGID_1_" gradientUnits="userSpaceOnUse" x1="0" x2="47.316" xlink:href="#lg1" y1="7" y2="7"/><linearGradient id="SVGID_00000151522901407955674790000001151917649915264435_" gradientUnits="userSpaceOnUse" x1="0" x2="47.316" xlink:href="#lg1" y1="45" y2="45"/><linearGradient id="SVGID_00000009554735305130228850000011656299570178034305_" gradientUnits="userSpaceOnUse" x1="0" x2="47.316" xlink:href="#lg1" y1="39" y2="39"/><linearGradient id="SVGID_00000052785672743070040740000006282622550007385517_" gradientUnits="userSpaceOnUse" x1="0" x2="47.316" xlink:href="#lg1" y1="30" y2="30"/><linearGradient id="SVGID_00000114049815818449715970000006465239624626464932_" gradientUnits="userSpaceOnUse" x1="0" x2="47.316" xlink:href="#lg1" y1="21" y2="21"/><linearGradient id="SVGID_00000156562545093433308260000010225929946712530824_" gradientUnits="userSpaceOnUse" x1="0" x2="47.316" xlink:href="#lg1" y1="36" y2="36"/><linearGradient id="SVGID_00000047746475742354434140000007209566747225378200_" gradientUnits="userSpaceOnUse" x1="0" x2="47.316" xlink:href="#lg1" y1="4" y2="4"/><linearGradient id="SVGID_00000174582044065463787920000012563131214718499469_" gradientUnits="userSpaceOnUse" x1="0" x2="47.316" xlink:href="#lg1" y1="14" y2="14"/><linearGradient id="SVGID_00000034090883031692131160000004692408584854747808_" gradientUnits="userSpaceOnUse" x1="0" x2="47.316" xlink:href="#lg1" y1="31" y2="31"/><linearGradient id="SVGID_00000036227361345025974340000013162151514320340368_" gradientUnits="userSpaceOnUse" x1="0" x2="47.316" xlink:href="#lg1" y1="43" y2="43"/><linearGradient id="SVGID_00000108271363284210718360000003398217327898201022_" gradientUnits="userSpaceOnUse" x1="0" x2="47.316" xlink:href="#lg1" y1="24" y2="24"/><linearGradient id="SVGID_00000034767842883889879040000003890312363719616439_" gradientUnits="userSpaceOnUse" x1="0" x2="47.316" xlink:href="#lg1" y1="12" y2="12"/><g id="Layer_1"><g><circle cx="36" cy="7" fill="url(#SVGID_1_)" r="1"/></g><g><circle cx="36" cy="45" fill="url(#SVGID_00000151522901407955674790000001151917649915264435_)" r="1"/></g><g><circle cx="27" cy="39" fill="url(#SVGID_00000009554735305130228850000011656299570178034305_)" r="1"/></g><g><circle cx="3" cy="30" fill="url(#SVGID_00000052785672743070040740000006282622550007385517_)" r="1"/></g><g><circle cx="6" cy="7" fill="url(#SVGID_1_)" r="1"/></g><path d="m10 20c0-.6-.4-1-1-1s-1 .4-1 1c-.6 0-1 .4-1 1s.4 1 1 1c0 .6.4 1 1 1s1-.4 1-1c.6 0 1-.4 1-1s-.4-1-1-1z" fill="url(#SVGID_00000114049815818449715970000006465239624626464932_)"/><path d="m45 35c0-.6-.4-1-1-1s-1 .4-1 1c-.6 0-1 .4-1 1s.4 1 1 1c0 .6.4 1 1 1s1-.4 1-1c.6 0 1-.4 1-1s-.4-1-1-1z" fill="url(#SVGID_00000156562545093433308260000010225929946712530824_)"/><path d="m27 3c0-.6-.4-1-1-1s-1 .4-1 1c-.6 0-1 .4-1 1s.4 1 1 1c0 .6.4 1 1 1s1-.4 1-1c.6 0 1-.4 1-1s-.4-1-1-1z" fill="url(#SVGID_00000047746475742354434140000007209566747225378200_)"/><g><path d="m42 15h-2c-.6 0-1-.4-1-1s.4-1 1-1h2c.6 0 1 .4 1 1s-.4 1-1 1z" fill="url(#SVGID_00000174582044065463787920000012563131214718499469_)"/></g><g><path d="m23 32h-2c-.6 0-1-.4-1-1s.4-1 1-1h2c.6 0 1 .4 1 1s-.4 1-1 1z" fill="url(#SVGID_00000034090883031692131160000004692408584854747808_)"/></g><g><path d="m19 44h-2c-.6 0-1-.4-1-1s.4-1 1-1h2c.6 0 1 .4 1 1s-.4 1-1 1z" fill="url(#SVGID_00000036227361345025974340000013162151514320340368_)"/></g><path d="m43 23c-5.5 0-10-4.5-10-10 0-.6-.4-1-1-1s-1 .4-1 1c0 5.5-4.5 10-10 10-.6 0-1 .4-1 1s.4 1 1 1c5.5 0 10 4.5 10 10 0 .6.4 1 1 1s1-.4 1-1c0-5.5 4.5-10 10-10 .6 0 1-.4 1-1s-.4-1-1-1z" fill="url(#SVGID_00000108271363284210718360000003398217327898201022_)"/><g><path d="m16 19c-.6 0-1-.4-1-1 0-2.8-2.2-5-5-5-.6 0-1-.4-1-1s.4-1 1-1c2.8 0 5-2.2 5-5 0-.6.4-1 1-1s1 .4 1 1c0 2.8 2.2 5 5 5 .6 0 1 .4 1 1s-.4 1-1 1c-2.8 0-5 2.2-5 5 0 .6-.4 1-1 1zm-2.4-7c1 .6 1.8 1.4 2.4 2.4.6-1 1.4-1.8 2.4-2.4-1-.6-1.8-1.4-2.4-2.4-.6 1-1.4 1.8-2.4 2.4z" fill="url(#SVGID_00000034767842883889879040000003890312363719616439_)"/></g><g><path d="m11 43c-.6 0-1-.4-1-1 0-2.8-2.2-5-5-5-.6 0-1-.4-1-1s.4-1 1-1c2.8 0 5-2.2 5-5 0-.6.4-1 1-1s1 .4 1 1c0 2.8 2.2 5 5 5 .6 0 1 .4 1 1s-.4 1-1 1c-2.8 0-5 2.2-5 5 0 .6-.4 1-1 1zm-2.4-7c1 .6 1.8 1.4 2.4 2.4.6-1 1.4-1.8 2.4-2.4-1-.6-1.8-1.4-2.4-2.4-.6 1-1.4 1.8-2.4 2.4z" fill="url(#SVGID_00000156562545093433308260000010225929946712530824_)"/></g></g></svg>