<svg id="Gradient" height="512" viewBox="0 0 512 512" width="512" xmlns="http://www.w3.org/2000/svg" xmlns:xlink="http://www.w3.org/1999/xlink"><linearGradient id="SVGID_1_" gradientUnits="userSpaceOnUse" x1="256" x2="256" y1="496" y2="16"><stop offset="0" stop-color="#12bee5"/><stop offset=".5" stop-color="#c071e9"/><stop offset="1" stop-color="#f24f5a"/></linearGradient><path d="m488 200h-48.312c-3.312-10.875-7.599-21.454-12.795-31.578l34.765-34.765c3.124-3.125 3.124-8.189 0-11.314l-72-72c-3.124-3.123-8.189-3.123-11.313 0l-34.765 34.765c-10.124-5.196-20.703-9.483-31.579-12.796v-48.312c0-4.418-3.582-8-8-8h-96c-4.419 0-8 3.582-8 8v48.312c-10.876 3.312-21.455 7.6-31.579 12.796l-34.765-34.765c-3.124-3.123-8.189-3.123-11.313 0l-72 72c-3.125 3.125-3.125 8.189 0 11.314l34.765 34.765c-5.196 10.123-9.483 20.702-12.796 31.578h-48.313c-4.419 0-8 3.582-8 8v96c0 4.418 3.581 8 8 8h48.312c3.313 10.876 7.6 21.455 12.796 31.578l-34.765 34.765c-3.125 3.125-3.125 8.189 0 11.314l72 72c3.124 3.123 8.189 3.123 11.313 0l34.765-34.765c10.124 5.196 20.703 9.483 31.579 12.796v48.312c0 4.418 3.581 8 8 8h96c4.418 0 8-3.582 8-8v-48.311c10.876-3.312 21.455-7.6 31.579-12.796l34.765 34.765c3.124 3.123 8.189 3.123 11.313 0l72-72c3.124-3.125 3.124-8.189 0-11.314l-34.765-34.765c5.197-10.124 9.483-20.703 12.795-31.578h48.313c4.418 0 8-3.582 8-8v-96c0-4.419-3.582-8.001-8-8.001zm-8 96h-46.338c-3.617 0-6.783 2.427-7.725 5.918-3.68 13.655-9.026 26.86-15.891 39.249-1.729 3.121-1.183 7.011 1.341 9.534l33.299 33.299-60.686 60.686-33.299-33.3c-2.524-2.522-6.414-3.069-9.534-1.341-12.388 6.865-25.593 12.211-39.249 15.892-3.492.941-5.918 4.108-5.918 7.725v46.338h-80v-46.338c0-3.616-2.426-6.783-5.918-7.725-13.656-3.681-26.861-9.026-39.249-15.892-3.122-1.728-7.011-1.181-9.534 1.341l-33.299 33.3-60.687-60.686 33.299-33.299c2.523-2.523 3.07-6.413 1.341-9.535-6.864-12.386-12.21-25.591-15.892-39.248-.941-3.492-4.108-5.918-7.724-5.918h-46.337v-80h46.338c3.616 0 6.783-2.426 7.724-5.918 3.681-13.657 9.028-26.862 15.892-39.248 1.729-3.122 1.183-7.012-1.341-9.535l-33.3-33.299 60.687-60.687 33.299 33.3c2.523 2.523 6.414 3.068 9.534 1.341 12.388-6.865 25.593-12.211 39.249-15.892 3.492-.941 5.918-4.108 5.918-7.725v-46.337h80v46.338c0 3.616 2.426 6.783 5.918 7.725 13.656 3.681 26.861 9.026 39.249 15.892 3.122 1.729 7.012 1.183 9.534-1.341l33.299-33.301 60.686 60.687-33.299 33.299c-2.523 2.523-3.07 6.413-1.341 9.534 6.864 12.389 12.211 25.594 15.891 39.249.941 3.491 4.108 5.918 7.725 5.918h46.338zm-81.344-92.438c-1.484-2.225-3.982-3.562-6.656-3.562-2.675 0-5.173 1.338-6.657 3.564l-31.998 47.997c-1.637 2.455-1.79 5.612-.398 8.214s4.103 4.226 7.054 4.226h7.717c-4.118 58.034-52.652 103.999-111.718 103.999-31.822 0-62.245-13.607-83.468-37.334-1.518-1.696-3.686-2.666-5.962-2.666h-39.84c-2.903 0-5.579 1.573-6.99 4.109-1.412 2.537-1.339 5.64.191 8.106 14.093 22.729 33.822 41.729 57.053 54.945 23.963 13.634 51.286 20.84 79.016 20.84 85.543 0 155.622-67.477 159.803-152h8.197c2.95 0 5.661-1.624 7.053-4.226 1.392-2.601 1.24-5.757-.397-8.212zm9.344 44.438c-4.418 0-8 3.582-8 8 0 79.402-64.598 144-144 144-45.213 0-86.841-20.685-114.018-56h21.08c24.114 25.465 57.779 40 92.939 40 70.58 0 128-57.421 128-128 0-4.418-3.582-8-8-8h-1.048l17.049-25.576 17.05 25.576zm-98.343-61.657c-3.124-3.123-8.189-3.123-11.313 0l-74.344 74.343-10.343-10.344c-3.124-3.123-8.189-3.123-11.313 0l-24 24c-3.125 3.125-3.125 8.189 0 11.314l40 40c1.562 1.562 3.609 2.343 5.657 2.343s4.095-.781 5.657-2.343l104-104c3.124-3.125 3.124-8.189 0-11.314zm-85.657 122.343-28.686-28.686 12.686-12.686 10.343 10.344c3.124 3.123 8.189 3.123 11.313 0l74.344-74.344 12.686 12.686zm-97.343-.25 31.998-47.997c1.637-2.455 1.79-5.612.398-8.214-1.391-2.601-4.102-4.225-7.053-4.225h-7.717c4.117-58.035 52.651-104 111.717-104 31.821 0 62.244 13.607 83.467 37.334 1.518 1.696 3.686 2.666 5.962 2.666h39.84c2.903 0 5.579-1.573 6.99-4.109 1.412-2.537 1.338-5.64-.192-8.106-14.094-22.729-33.822-41.729-57.053-54.945-23.961-13.634-51.284-20.84-79.014-20.84-85.542 0-155.622 67.477-159.803 152h-8.197c-2.95 0-5.661 1.624-7.053 4.226-1.392 2.601-1.24 5.757.397 8.212l32 48c1.484 2.226 3.982 3.562 6.657 3.562s5.173-1.338 6.656-3.564zm-23.709-44.436h1.052c4.419 0 8-3.582 8-8 0-79.402 64.598-144 144-144 45.212 0 86.841 20.685 114.018 56h-21.08c-24.114-25.465-57.779-40-92.938-40-70.58 0-128 57.421-128 128 0 4.418 3.581 8 8 8h1.048l-17.049 25.576z" fill="url(#SVGID_1_)"/></svg>